<?xml version="1.0" standalone="no"?>
<!DOCTYPE svg PUBLIC "-//W3C//DTD SVG 1.1//EN" "http://www.w3.org/Graphics/SVG/1.1/DTD/svg11.dtd" >
<svg xmlns="http://www.w3.org/2000/svg" xmlns:xlink="http://www.w3.org/1999/xlink" version="1.1">
<metadata>
Created by FontForge 20170731 at Tue Feb 10 06:21:32 2009
 By Aleksey,,,
Copyright (c) 2008 by Lobsang monlam. All rights reserved.
</metadata>
<defs>
<font id="MonlamUniOuChan4" horiz-adv-x="584" >
  <font-face 
    font-family="Monlam Uni OuChan4"
    font-weight="400"
    font-stretch="normal"
    units-per-em="1020"
    panose-1="1 1 1 0 1 1 1 1 1 1"
    ascent="816"
    descent="-204"
    x-height="360"
    cap-height="564"
    bbox="-1253 -1439.56 1728.06 1096.53"
    underline-thickness="102"
    underline-position="-358"
    unicode-range="U+000D-301F"
  />
<missing-glyph horiz-adv-x="500" 
d="M528 -179h-298v833h298v-833zM492 -143v760h-226v-760h226z" />
    <glyph glyph-name=".notdef" horiz-adv-x="500" 
d="M528 -179h-298v833h298v-833zM492 -143v760h-226v-760h226z" />
    <glyph glyph-name=".null" horiz-adv-x="0" 
 />
    <glyph glyph-name=".null" horiz-adv-x="0" 
 />
    <glyph glyph-name="nonmarkingreturn" unicode="&#xd;" horiz-adv-x="1024" 
 />
    <glyph glyph-name="space" unicode=" " horiz-adv-x="279" 
 />
    <glyph glyph-name="exclam" unicode="!" horiz-adv-x="290" 
d="M187 564l-10 -513h-67l-9 513h86zM145 -159q-23 0 -39 16t-16 39t16 39t39 16q22 0 38.5 -16t16.5 -39t-16.5 -39t-38.5 -16z" />
    <glyph glyph-name="quotedbl" unicode="&#x22;" horiz-adv-x="400" 
d="M161 564l-15 -222h-57l-15 222h87zM326 564l-15 -222h-57l-15 222h87z" />
    <glyph glyph-name="numbersign" unicode="#" horiz-adv-x="603" 
d="M581 364l-12 -53h-130l-31 -149h140l-14 -53h-137l-43 -198h-63l43 198h-125l-42 -198h-62l42 198h-131l10 53h132l31 149h-138l10 53h138l42 200h63l-42 -200h125l43 200h62l-42 -200h131zM378 311h-126l-33 -149h127z" />
    <glyph glyph-name="dollar" unicode="$" horiz-adv-x="550" 
d="M307 -254h-52v104q-106 0 -172 43v86q29 -25 79 -42t93 -17v255q-110 53 -142 97.5t-32 104.5q0 73 49 125.5t125 62.5v90h52v-88q97 -3 135 -28v-84q-51 39 -135 42v-263q103 -49 141.5 -95t38.5 -105q0 -70 -48 -118.5t-132 -61.5v-108zM255 494q-42 -8 -66.5 -36.5
t-24.5 -69.5q0 -43 20 -70.5t71 -55.5v232zM307 -76q96 21 96 103q0 69 -96 122v-225z" />
    <glyph glyph-name="percent" unicode="%" horiz-adv-x="835" 
d="M201 206q-74 0 -117.5 48.5t-43.5 129.5q0 89 46 140t125 51q76 0 118.5 -47t42.5 -133t-47.5 -137.5t-123.5 -51.5zM208 520q-47 0 -74.5 -35t-27.5 -96q0 -60 27 -94t73 -34q47 0 73.5 35t26.5 97q0 60 -26 93.5t-72 33.5zM679 564l-458 -719h-71l458 719h71zM627 -161
q-74 0 -118 49t-44 129q0 89 47 140.5t125 51.5q75 0 117.5 -48t42.5 -134q0 -85 -47 -136.5t-123 -51.5zM634 153q-48 0 -75.5 -35t-27.5 -97q0 -59 27 -92.5t74 -33.5q46 0 72.5 35t26.5 96t-26 94t-71 33z" />
    <glyph glyph-name="ampersand" unicode="&#x26;" horiz-adv-x="816" 
d="M720 -161q-29 0 -50.5 7.5t-40 21.5t-35.5 34.5t-36 46.5q-20 -21 -46 -41t-58 -35.5t-70 -24.5t-82 -9q-54 0 -99 13t-76.5 39.5t-49.5 64.5t-18 88q0 76 43.5 130.5t122.5 88.5q-15 11 -30 25.5t-26.5 33.5t-19 41.5t-7.5 49.5q0 39 14.5 69.5t39.5 51.5t58.5 31.5
t73.5 10.5q39 0 71 -10.5t55 -30.5t36 -48t13 -62q0 -60 -34 -99.5t-102 -67.5q34 -14 62 -33t51.5 -43t44 -51.5t40.5 -56.5q40 56 60.5 123.5t20.5 142.5q0 19 -2.5 35.5t-6.5 32.5h80q4 -16 4.5 -31t1.5 -35q0 -45 -9.5 -91t-25.5 -89t-37 -82t-44 -71q17 -24 31.5 -41.5
t29 -29.5t30.5 -18t36 -6q15 0 30 4t32 10v-76q-18 -6 -37.5 -9.5t-38.5 -3.5zM302 -91q38 0 69.5 8.5t58.5 22t49 31.5t40 38q-30 48 -56 81.5t-52 58t-55.5 42t-68.5 32.5q-32 -13 -58 -28t-45.5 -36t-30.5 -48t-11 -64q0 -34 12.5 -60t34.5 -43t50.5 -26t62.5 -9z
M426 418q0 25 -9 42.5t-23 28.5t-31.5 16.5t-34.5 5.5q-49 0 -78 -26.5t-30 -71.5q0 -21 6.5 -38.5t17.5 -33t26 -27.5t32 -21q63 22 93.5 51t30.5 74z" />
    <glyph glyph-name="quotesingle" unicode="'" horiz-adv-x="235" 
d="M161 564l-15 -222h-57l-15 222h87z" />
    <glyph glyph-name="parenleft" unicode="(" horiz-adv-x="308" 
d="M224 -312q-154 176 -154 434q0 260 154 442h74q-157 -189 -157 -441q0 -249 156 -435h-73z" />
    <glyph glyph-name="parenright" unicode=")" horiz-adv-x="308" 
d="M12 -312q155 186 155 435q0 252 -156 441h74q155 -182 155 -442q0 -258 -155 -434h-73z" />
    <glyph glyph-name="asterisk" unicode="*" horiz-adv-x="425" 
d="M388 400l-136 -28l95 -121l-55 -38l-78 132l-79 -132l-54 38l94 121l-137 28l22 62l131 -49l-12 151h69l-11 -151l131 49z" />
    <glyph glyph-name="plus" unicode="+" horiz-adv-x="698" 
d="M584 114h-202v-201h-66v201h-200v67h200v200h66v-200h202v-67z" />
    <glyph glyph-name="comma" unicode="," horiz-adv-x="221" 
d="M157 -36l-79 -245h-59l59 245h79z" />
    <glyph glyph-name="hyphen" unicode="-" horiz-adv-x="408" 
d="M344 102h-272v64h272v-64z" />
    <glyph glyph-name="period" unicode="." horiz-adv-x="221" 
d="M111 -161q-23 0 -39 16.5t-16 39.5t16 39.5t39 16.5t39.5 -16.5t16.5 -39.5t-16.5 -39.5t-39.5 -16.5z" />
    <glyph glyph-name="slash" unicode="/" horiz-adv-x="397" 
d="M405 564l-343 -833h-76l342 833h77z" />
    <glyph glyph-name="zero" unicode="0" horiz-adv-x="550" 
d="M268 -162q-106 0 -165.5 91t-59.5 264q0 189 62 286t179 97q224 0 224 -366q0 -181 -63 -276.5t-177 -95.5zM279 507q-152 0 -152 -310q0 -290 149 -290q148 0 148 295q0 305 -145 305z" />
    <glyph glyph-name="one" unicode="1" horiz-adv-x="550" 
d="M492 -150h-404v72h161v555l-165 -50v78l247 75v-658h161v-72z" />
    <glyph glyph-name="two" unicode="2" horiz-adv-x="550" 
d="M478 -150h-430v73l208 208q80 80 114 133t34 113q0 62 -35.5 96t-100.5 34q-96 0 -183 -82v86q83 65 194 65q96 0 151 -51.5t55 -139.5q0 -68 -38 -133.5t-136 -162.5l-165 -163v-2h332v-74z" />
    <glyph glyph-name="three" unicode="3" horiz-adv-x="550" 
d="M65 -35q73 -58 166 -58q74 0 118.5 37t44.5 101q0 140 -198 140h-60v69h57q177 0 177 131q0 122 -135 122q-76 0 -142 -51v79q68 41 162 41q90 0 144 -47.5t54 -122.5q0 -141 -143 -181v-2q77 -8 122.5 -54.5t45.5 -116.5q0 -96 -69 -155t-182 -59q-101 0 -162 38v89z
" />
    <glyph glyph-name="four" unicode="4" horiz-adv-x="550" 
d="M515 40h-92v-190h-80v190h-336v53l318 471h98v-458h92v-66zM343 106v309q0 33 2 73h-2q-7 -17 -28 -54l-219 -328h247z" />
    <glyph glyph-name="five" unicode="5" horiz-adv-x="550" 
d="M82 -46q73 -47 149 -47q75 0 121.5 42.5t46.5 113.5q0 70 -47.5 109.5t-135.5 39.5q-30 0 -112 -6v358h346v-74h-269v-209q33 2 61 2q115 0 177.5 -57.5t62.5 -157.5q0 -103 -67.5 -166.5t-184.5 -63.5q-100 0 -148 29v87z" />
    <glyph glyph-name="six" unicode="6" horiz-adv-x="550" 
d="M465 479q-55 28 -116 28q-95 0 -152.5 -84.5t-57.5 -226.5h2q50 101 164 101q93 0 148.5 -60t55.5 -161q0 -105 -63.5 -171.5t-160.5 -66.5q-108 0 -169 85.5t-61 240.5q0 188 80 300t212 112q74 0 118 -20v-77zM287 228q-63 0 -102.5 -43t-39.5 -101q0 -74 39 -125.5
t104 -51.5q62 0 99.5 45t37.5 114q0 76 -36 119t-102 43z" />
    <glyph glyph-name="seven" unicode="7" horiz-adv-x="550" 
d="M503 538l-283 -688h-85l268 640h-360v74h460v-26z" />
    <glyph glyph-name="eight" unicode="8" horiz-adv-x="550" 
d="M204 227q-128 59 -128 173q0 77 58.5 126.5t151.5 49.5q84 0 137.5 -46t53.5 -119q0 -119 -132 -184v-2q156 -56 156 -194q0 -88 -63.5 -140.5t-177.5 -52.5q-92 0 -151 52t-59 134q0 138 154 201v2zM393 401q0 49 -30.5 77.5t-84.5 28.5q-49 0 -84 -29.5t-35 -75.5
q0 -93 116 -141q118 49 118 140zM270 186q-137 -55 -137 -158q0 -53 40 -87t104 -34q62 0 101 33.5t39 84.5q0 108 -147 161z" />
    <glyph glyph-name="nine" unicode="9" horiz-adv-x="550" 
d="M86 -59q59 -34 126 -34q97 0 151 78t54 222h-2q-45 -92 -159 -92q-92 0 -150.5 62t-58.5 161q0 104 64.5 171t164.5 67q106 0 165 -83.5t59 -242.5q0 -198 -76.5 -305t-213.5 -107q-72 0 -124 24v79zM269 507q-59 0 -99 -44.5t-40 -113.5q0 -75 39 -118t105 -43
q58 0 98 39t40 96q0 81 -39.5 132.5t-103.5 51.5z" />
    <glyph glyph-name="colon" unicode=":" horiz-adv-x="221" 
d="M111 260q-23 0 -39 16.5t-16 39.5t16 39t39 16t39.5 -16t16.5 -39t-16.5 -39.5t-39.5 -16.5zM111 -161q-23 0 -39 16.5t-16 39.5t16 39.5t39 16.5t39.5 -16.5t16.5 -39.5t-16.5 -39.5t-39.5 -16.5z" />
    <glyph glyph-name="semicolon" unicode=";" horiz-adv-x="221" 
d="M113 260q-24 0 -40 16.5t-16 39.5t16 39t40 16q22 0 38.5 -16t16.5 -39t-16.5 -39.5t-38.5 -16.5zM157 -36l-79 -245h-59l59 245h79z" />
    <glyph glyph-name="less" unicode="&#x3c;" horiz-adv-x="698" 
d="M564 -87l-429 215v30l429 240v-75l-320 -177v-2l320 -157v-74z" />
    <glyph glyph-name="equal" unicode="=" horiz-adv-x="698" 
d="M584 221h-468v65h468v-65zM584 8h-468v66h468v-66z" />
    <glyph glyph-name="greater" unicode="&#x3e;" horiz-adv-x="698" 
d="M564 128l-429 -215v74l321 156v3l-321 177v75l429 -240v-30z" />
    <glyph glyph-name="question" unicode="?" horiz-adv-x="457" 
d="M167 48q-5 13 -8.5 34t-3.5 41q0 32 13 57.5t32 48t41 43t41 42t32 44.5t13 51q0 24 -9.5 42.5t-25.5 30.5t-36.5 18.5t-44.5 6.5q-84 0 -146 -66v87q76 48 158 48q38 0 71.5 -10t58.5 -29.5t39.5 -49t14.5 -68.5q0 -37 -13 -65.5t-32.5 -53t-42.5 -45.5t-43 -41.5
t-32.5 -43t-12.5 -49.5q0 -22 5.5 -41t10.5 -32h-80zM212 -159q-22 0 -39 16t-17 39t17 39q16 16 39 16q22 0 39 -16q16 -16 16 -39t-16 -39q-17 -16 -39 -16z" />
    <glyph glyph-name="at" unicode="@" horiz-adv-x="974" 
d="M577 59q-36 -118 -143 -118q-68 0 -109.5 50t-41.5 135q0 113 57.5 187.5t151.5 74.5q35 0 63.5 -18.5t36.5 -46.5h2q1 14 5 57h62q-24 -274 -24 -279q0 -103 60 -103q54 0 89.5 58t35.5 151q0 137 -87 223.5t-240 86.5q-148 0 -244.5 -103.5t-96.5 -258.5
q0 -153 92 -247t248 -94q123 0 210 41v-62q-86 -37 -215 -37q-182 0 -292.5 109.5t-110.5 286.5q0 182 116 302t297 120q169 0 280.5 -100.5t111.5 -262.5q0 -118 -59 -194t-143 -76q-109 0 -109 118h-3zM491 330q-62 0 -100 -58.5t-38 -146.5q0 -58 25.5 -92t68.5 -34
q62 0 98 61.5t36 163.5q0 106 -90 106z" />
    <glyph glyph-name="A" unicode="A" horiz-adv-x="658" 
d="M646 -150h-92l-76 200h-303l-71 -200h-93l274 714h87zM451 125l-112 305q-6 15 -11 48h-2q-5 -31 -12 -48l-111 -305h248z" />
    <glyph glyph-name="B" unicode="B" horiz-adv-x="585" 
d="M94 -150v714h203q92 0 146.5 -45t54.5 -118q0 -61 -33 -106t-90 -63v-2q72 -9 115 -55t43 -120q0 -91 -65.5 -148t-165.5 -57h-208zM177 488v-230h86q69 0 108 33t39 93q0 104 -137 104h-96zM177 183v-257h114q74 0 114.5 34.5t40.5 95.5q0 127 -173 127h-96z" />
    <glyph glyph-name="C" unicode="C" horiz-adv-x="632" 
d="M580 -120q-79 -42 -198 -42q-152 0 -243.5 98t-91.5 258q0 171 103 276.5t261 105.5q102 0 169 -29v-89q-77 42 -170 42q-123 0 -199.5 -82t-76.5 -219q0 -131 71.5 -208.5t187.5 -77.5q108 0 187 48v-81z" />
    <glyph glyph-name="D" unicode="D" horiz-adv-x="715" 
d="M94 -150v714h197q377 0 377 -348q0 -165 -104.5 -265.5t-280.5 -100.5h-189zM177 488v-562h107q140 0 218.5 75t78.5 213q0 274 -292 274h-112z" />
    <glyph glyph-name="E" unicode="E" horiz-adv-x="516" 
d="M472 -150h-378v714h362v-76h-279v-237h258v-75h-258v-250h295v-76z" />
    <glyph glyph-name="F" unicode="F" horiz-adv-x="498" 
d="M456 488h-279v-247h258v-75h-258v-316h-83v714h362v-76z" />
    <glyph glyph-name="G" unicode="G" horiz-adv-x="700" 
d="M628 -101q-108 -61 -240 -61q-152 0 -246.5 98.5t-94.5 261.5q0 165 104.5 271.5t265.5 106.5q117 0 196 -38v-92q-87 54 -205 54q-120 0 -197 -82.5t-77 -213.5q0 -136 71.5 -213.5t193.5 -77.5q84 0 145 34v200h-157v76h241v-324z" />
    <glyph glyph-name="H" unicode="H" horiz-adv-x="724" 
d="M631 -150h-84v326h-370v-326h-83v714h83v-313h370v313h84v-714z" />
    <glyph glyph-name="I" unicode="I" horiz-adv-x="271" 
d="M247 564v-72h-70v-570h70v-72h-223v72h70v570h-70v72h223z" />
    <glyph glyph-name="J" unicode="J" horiz-adv-x="364" 
d="M276 106q0 -127 -53.5 -197.5t-143.5 -70.5q-42 0 -69 12v83q27 -20 70 -20q113 0 113 192v459h83v-458z" />
    <glyph glyph-name="K" unicode="K" horiz-adv-x="592" 
d="M591 -150h-117l-276 327q-15 18 -19 25h-2v-352h-83v714h83v-335h2q7 10 19 24l267 311h104l-306 -342z" />
    <glyph glyph-name="L" unicode="L" horiz-adv-x="480" 
d="M464 -150h-370v714h83v-638h287v-76z" />
    <glyph glyph-name="M" unicode="M" horiz-adv-x="916" 
d="M822 -150h-83v479q0 57 7 139h-2q-12 -48 -22 -69l-244 -549h-41l-243 545q-11 24 -22 73h-2q4 -43 4 -140v-478h-80v714h110l219 -498q26 -57 33 -86h3q22 59 35 88l223 496h105v-714z" />
    <glyph glyph-name="N" unicode="N" horiz-adv-x="763" 
d="M669 -150h-102l-368 569q-14 22 -23 45h-3q4 -23 4 -98v-516h-83v714h108l358 -560q22 -35 29 -48h2q-5 31 -5 105v503h83v-714z" />
    <glyph glyph-name="O" unicode="O" horiz-adv-x="769" 
d="M382 -162q-152 0 -243.5 100t-91.5 261q0 172 93 274.5t253 102.5q148 0 238.5 -99.5t90.5 -260.5q0 -175 -92.5 -276.5t-247.5 -101.5zM387 500q-112 0 -182.5 -81t-70.5 -213t68.5 -212.5t179.5 -80.5q117 0 185 77t68 215q0 141 -66 218t-182 77z" />
    <glyph glyph-name="P" unicode="P" horiz-adv-x="571" 
d="M177 120v-270h-83v714h196q114 0 177 -55.5t63 -157.5t-70 -166.5t-189 -64.5h-94zM177 488v-292h88q87 0 132.5 39.5t45.5 111.5q0 141 -168 141h-98z" />
    <glyph glyph-name="Q" unicode="Q" horiz-adv-x="769" 
d="M377 -162q-32 0 -65 6t-64 19t-59 31.5t-51 43.5q-91 100 -91 261q0 172 92 275q94 102 256 102q146 0 237 -99q90 -100 90 -261q0 -68 -15 -128t-46 -108t-78 -82t-110 -48q26 -28 48.5 -49.5t45 -36t47 -22t53.5 -7.5q8 0 17.5 0.5t19.5 2.5t19 4t16 5v-80
q-8 -3 -18 -4l-20 -3q-10 -2 -20 -2.5t-19 -0.5q-47 0 -85.5 14t-71.5 38.5t-64 57.5t-64 71zM387 500q-112 0 -182 -81q-71 -81 -71 -213q0 -131 69 -213q68 -80 179 -80q117 0 185 77t68 215q0 142 -66 218q-66 77 -182 77z" />
    <glyph glyph-name="R" unicode="R" horiz-adv-x="610" 
d="M606 -150h-100l-120 200q-16 28 -31.5 47.5t-31.5 32t-35 18.5t-42 6h-69v-304h-83v714h213q47 0 86.5 -11.5t68.5 -35.5t45.5 -59.5t16.5 -83.5q0 -37 -11 -68.5t-32 -55.5t-50 -41.5t-65 -26.5v-2q17 -8 30.5 -18.5t25.5 -24.5t23.5 -31.5t26.5 -40.5zM177 488v-258
h114q31 0 58 9t46 27t30 43.5t11 57.5q0 57 -37 89t-107 32h-115z" />
    <glyph glyph-name="S" unicode="S" horiz-adv-x="542" 
d="M60 -23q17 -14 41 -26t50 -20.5t52.5 -13t48.5 -4.5q77 0 115 29t38 82q0 29 -12.5 50.5t-35 39t-53 34t-65.5 34.5q-38 19 -70.5 38t-56 42.5t-37.5 53.5t-14 69q0 49 21.5 85t56.5 59.5t79.5 35t90.5 11.5q106 0 154 -25v-94q-63 43 -162 43q-28 0 -55 -5.5
t-48.5 -18.5t-35 -33.5t-13.5 -49.5q0 -28 10 -47.5t30 -36t48.5 -32t66.5 -34.5q38 -18 72.5 -39t60.5 -46.5t41 -56.5t15 -71q0 -53 -20.5 -89.5t-55.5 -59.5t-81 -33t-97 -10q-17 0 -42 3t-50.5 8t-49 12.5t-37.5 17.5v98z" />
    <glyph glyph-name="T" unicode="T" horiz-adv-x="534" 
d="M516 488h-206v-638h-84v638h-206v76h496v-76z" />
    <glyph glyph-name="U" unicode="U" horiz-adv-x="701" 
d="M616 139q0 -301 -271 -301q-260 0 -260 289v437h83v-431q0 -220 186 -220q178 0 178 212v439h84v-425z" />
    <glyph glyph-name="V" unicode="V" horiz-adv-x="634" 
d="M625 564l-265 -714h-92l-259 714h93l198 -566q9 -27 14 -63h2q4 30 17 64l201 565h91z" />
    <glyph glyph-name="W" unicode="W" horiz-adv-x="953" 
d="M940 564l-201 -714h-99l-146 522q-10 33 -12 73h-2q-3 -37 -13 -72l-148 -523h-97l-209 714h92l152 -548q9 -34 12 -71h2q3 26 16 71l158 548h80l151 -552q8 -28 12 -66h2q2 26 14 68l146 550h90z" />
    <glyph glyph-name="X" unicode="X" horiz-adv-x="602" 
d="M587 -150h-102l-165 273q-7 13 -16 36h-2q-5 -12 -17 -36l-169 -273h-103l239 359l-220 355h102l146 -251q15 -25 26 -50h2q16 33 28 52l152 249h96l-225 -354z" />
    <glyph glyph-name="Y" unicode="Y" horiz-adv-x="564" 
d="M558 564l-236 -450v-264h-83v262l-230 452h95l160 -323q3 -6 17 -43h2q5 17 19 43l167 323h89z" />
    <glyph glyph-name="Z" unicode="Z" horiz-adv-x="582" 
d="M560 544l-419 -618h409v-76h-534v23l415 615h-381v76h510v-20z" />
    <glyph glyph-name="bracketleft" unicode="[" horiz-adv-x="308" 
d="M283 -312h-183v876h183v-59h-111v-758h111v-59z" />
    <glyph glyph-name="backslash" unicode="\" horiz-adv-x="386" 
d="M397 -270h-75l-335 834h77z" />
    <glyph glyph-name="bracketright" unicode="]" horiz-adv-x="308" 
d="M209 -312h-183v59h110v758h-110v59h183v-876z" />
    <glyph glyph-name="asciicircum" unicode="^" horiz-adv-x="698" 
d="M585 161h-75l-165 308h-3l-154 -308h-73l210 415h32z" />
    <glyph glyph-name="underscore" unicode="_" horiz-adv-x="423" 
d="M423 -298h-423v59h423v-59z" />
    <glyph glyph-name="grave" unicode="`" horiz-adv-x="273" 
d="M235 457h-64l-130 163h84z" />
    <glyph glyph-name="a" unicode="a" horiz-adv-x="519" 
d="M448 -150h-82v80h-2q-53 -92 -157 -92q-76 0 -119 40.5t-43 106.5q0 143 168 167l153 21q0 130 -105 130q-92 0 -166 -63v84q75 48 173 48q180 0 180 -190v-332zM366 108l-123 -17q-57 -8 -86 -28t-29 -72q0 -37 27 -60.5t71 -23.5q61 0 100.5 42.5t39.5 107.5v51z" />
    <glyph glyph-name="b" unicode="b" horiz-adv-x="600" 
d="M164 -76v-74h-81v755h81v-335h2q61 102 177 102q98 0 153.5 -68.5t55.5 -183.5q0 -128 -62.5 -205t-170.5 -77q-101 0 -153 86h-2zM164 58q0 -63 41.5 -107t104.5 -44q74 0 116 56.5t42 157.5q0 86 -39.5 134t-106.5 48q-71 0 -114.5 -49.5t-43.5 -124.5v-71z" />
    <glyph glyph-name="c" unicode="c" horiz-adv-x="471" 
d="M430 -127q-58 -35 -139 -35q-109 0 -176 71t-67 184q0 126 72 202.5t193 76.5q67 0 118 -25v-84q-56 40 -121 40q-78 0 -128.5 -56t-50.5 -147q0 -90 47.5 -141.5t126.5 -51.5q67 0 125 44v-78z" />
    <glyph glyph-name="d" unicode="d" horiz-adv-x="601" 
d="M518 -150h-82v87h-2q-56 -99 -175 -99q-96 0 -153.5 68.5t-57.5 186.5q0 127 63.5 203t169.5 76q105 0 153 -83h2v316h82v-755zM436 156q0 62 -40.5 104.5t-103.5 42.5q-75 0 -118 -54.5t-43 -151.5q0 -88 41.5 -139t110.5 -51q68 0 110.5 49t42.5 125v75z" />
    <glyph glyph-name="e" unicode="e" horiz-adv-x="533" 
d="M493 85h-361q2 -86 46 -132t121 -46q86 0 158 57v-77q-67 -49 -178 -49q-108 0 -169.5 69.5t-61.5 195.5q0 119 67.5 194t167.5 75t155 -65t55 -180v-42zM409 154q-1 71 -34.5 110t-93.5 39q-57 0 -97.5 -41t-50.5 -108h276z" />
    <glyph glyph-name="f" unicode="f" horiz-adv-x="348" 
d="M349 533q-24 14 -55 14q-85 0 -85 -108v-79h119v-70h-119v-440h-81v440h-88v70h88v83q0 80 46 126.5t115 46.5q38 0 60 -9v-74z" />
    <glyph glyph-name="g" unicode="g" horiz-adv-x="582" 
d="M518 -109q0 -281 -269 -281q-95 0 -165 36v81q86 -47 164 -47q188 0 188 200v56h-2q-58 -98 -175 -98q-95 0 -153 68t-58 183q0 130 62.5 206.5t170.5 76.5q103 0 153 -83h2v71h82v-469zM436 156q0 61 -41 104t-102 43q-76 0 -119 -55t-43 -154q0 -85 41.5 -136
t108.5 -51q69 0 112 48.5t43 125.5v75z" />
    <glyph glyph-name="h" unicode="h" horiz-adv-x="577" 
d="M506 -150h-82v294q0 159 -118 159q-60 0 -101 -46t-41 -118v-289h-81v755h81v-330h2q59 97 168 97q172 0 172 -208v-314z" />
    <glyph glyph-name="i" unicode="i" horiz-adv-x="247" 
d="M125 489q-22 0 -37.5 15t-15.5 38t15.5 38.5t37.5 15.5t37.5 -15.5t15.5 -38.5q0 -22 -15.5 -37.5t-37.5 -15.5zM164 -150h-81v510h81v-510z" />
    <glyph glyph-name="j" unicode="j" horiz-adv-x="247" 
d="M164 -129q0 -125 -50.5 -193t-144.5 -68q-35 0 -68 16v76q37 -22 70 -22q112 0 112 178v502h81v-489zM125 489q-22 0 -37.5 15t-15.5 38t15.5 38.5t37.5 15.5t37.5 -15.5t15.5 -38.5q0 -22 -15.5 -37.5t-37.5 -15.5z" />
    <glyph glyph-name="k" unicode="k" horiz-adv-x="507" 
d="M506 -150h-115l-225 245h-2v-245h-81v755h81v-479h2l215 234h107l-237 -246z" />
    <glyph glyph-name="l" unicode="l" horiz-adv-x="247" 
d="M164 -150h-81v755h81v-755z" />
    <glyph glyph-name="m" unicode="m" horiz-adv-x="879" 
d="M807 -150h-82v293q0 85 -26 122.5t-88 37.5q-52 0 -88.5 -47.5t-36.5 -114.5v-291h-82v303q0 150 -116 150q-54 0 -89 -45t-35 -117v-291h-81v510h81v-81h2q55 93 159 93q52 0 91 -29t53 -77q57 106 169 106q169 0 169 -208v-314z" />
    <glyph glyph-name="n" unicode="n" horiz-adv-x="577" 
d="M506 -150h-82v291q0 162 -118 162q-61 0 -101.5 -46t-40.5 -116v-291h-81v510h81v-85h2q58 97 168 97q83 0 127.5 -54t44.5 -156v-312z" />
    <glyph glyph-name="o" unicode="o" horiz-adv-x="598" 
d="M296 -162q-113 0 -180.5 71.5t-67.5 189.5q0 129 70 201t190 72q114 0 178 -70t64 -195q0 -122 -69 -195.5t-185 -73.5zM302 303q-79 0 -125 -53.5t-46 -147.5q0 -91 46.5 -143t124.5 -52q79 0 121.5 51t42.5 146q0 96 -42.5 147.5t-121.5 51.5z" />
    <glyph glyph-name="p" unicode="p" horiz-adv-x="600" 
d="M164 -76v-309h-81v745h81v-90h2q61 102 177 102q98 0 153.5 -68.5t55.5 -183.5q0 -128 -62.5 -205t-170.5 -77q-99 0 -153 86h-2zM164 58q0 -63 41.5 -107t104.5 -44q74 0 116 56.5t42 157.5q0 86 -39.5 134t-106.5 48q-71 0 -114.5 -49.5t-43.5 -124.5v-71z" />
    <glyph glyph-name="q" unicode="q" horiz-adv-x="601" 
d="M518 -385h-82v323h-2q-53 -100 -174 -100q-96 0 -154 68.5t-58 186.5q0 127 63.5 203t171.5 76q104 0 151 -83h2v71h82v-745zM436 154q0 63 -41 106t-104 43q-74 0 -117 -54.5t-43 -153.5q0 -88 41.5 -138t106.5 -50q72 0 114.5 49t42.5 124v74z" />
    <glyph glyph-name="r" unicode="r" horiz-adv-x="355" 
d="M349 277q-22 17 -62 17q-52 0 -87.5 -49.5t-35.5 -134.5v-260h-81v510h81v-105h2q18 54 53.5 84t80.5 30q32 0 49 -7v-85z" />
    <glyph glyph-name="s" unicode="s" horiz-adv-x="433" 
d="M52 -44q67 -49 147 -49q107 0 107 71q0 21 -9 35t-25 25t-37 20t-45 18q-34 14 -59.5 27.5t-43 30.5t-26 39t-8.5 52q0 35 16.5 63t43.5 46.5t62.5 28t72.5 9.5q66 0 119 -23v-83q-57 37 -130 37q-23 0 -41.5 -5t-31.5 -14.5t-20.5 -23t-7.5 -28.5q0 -20 7.5 -33.5
t21.5 -24t34 -19t45 -18.5q34 -13 61 -26.5t46 -31t29 -40t10 -53.5q0 -37 -16.5 -65t-44.5 -46.5t-64.5 -27.5t-76.5 -9q-78 0 -136 30v88z" />
    <glyph glyph-name="t" unicode="t" horiz-adv-x="346" 
d="M319 -145q-29 -16 -76 -16q-134 0 -134 149v302h-88v70h88v125l82 26v-151h128v-70h-128v-287q0 -51 17.5 -73t57.5 -22q31 0 53 17v-70z" />
    <glyph glyph-name="u" unicode="u" horiz-adv-x="577" 
d="M495 -150h-82v81h-2q-50 -93 -157 -93q-182 0 -182 217v305h81v-292q0 -161 123 -161q60 0 98.5 44t38.5 115v294h82v-510z" />
    <glyph glyph-name="v" unicode="v" horiz-adv-x="489" 
d="M484 360l-204 -510h-80l-193 510h90l129 -371q15 -40 18 -71h2q5 39 16 69l135 373h87z" />
    <glyph glyph-name="w" unicode="w" horiz-adv-x="737" 
d="M725 360l-153 -510h-84l-106 365q-5 21 -7 47h-2q-2 -18 -11 -46l-114 -366h-82l-154 510h86l105 -383q5 -18 7 -46h4q2 22 9 46l118 383h74l106 -384q5 -19 7 -46h4q1 19 9 46l103 384h81z" />
    <glyph glyph-name="x" unicode="x" horiz-adv-x="468" 
d="M455 360l-171 -258l168 -252h-95l-100 165q-9 16 -22 39h-2q-3 -4 -24 -39l-102 -165h-94l174 250l-167 260h96l98 -174l22 -40h2l127 214h90z" />
    <glyph glyph-name="y" unicode="y" horiz-adv-x="494" 
d="M489 360l-235 -592q-63 -158 -176 -158q-32 0 -54 6v74q27 -9 49 -9q61 0 92 73l41 97l-199 509h91l138 -392q2 -8 10 -39h3q3 12 10 38l145 393h85z" />
    <glyph glyph-name="z" unicode="z" horiz-adv-x="461" 
d="M438 337l-302 -417h299v-70h-419v25l302 415h-273v70h393v-23z" />
    <glyph glyph-name="braceleft" unicode="{" horiz-adv-x="308" 
d="M276 -312q-152 2 -152 154v149q0 101 -78 106v58q78 5 78 107v146q0 154 152 156v-64q-79 -2 -79 -98v-146q0 -105 -74 -129v-2q74 -22 74 -127v-144q0 -55 18 -79t61 -25v-62z" />
    <glyph glyph-name="bar" unicode="|" horiz-adv-x="244" 
d="M159 -390h-73v1020h73v-1020z" />
    <glyph glyph-name="braceright" unicode="}" horiz-adv-x="308" 
d="M263 97q-78 -5 -78 -106v-149q0 -152 -152 -154v62q43 1 61.5 25t18.5 79v144q0 105 74 127v2q-74 24 -74 129v146q0 96 -80 98v64q152 -2 152 -156v-146q0 -102 78 -107v-58z" />
    <glyph glyph-name="asciitilde" unicode="~" horiz-adv-x="698" 
d="M595 224q-4 -74 -40.5 -114.5t-99.5 -40.5q-54 0 -132 54q-48 34 -79 34q-70 0 -73 -88h-67q3 71 40 113t100 42q53 0 117 -44q66 -45 98 -45q31 0 49 24.5t19 64.5h68z" />
    <glyph glyph-name="cent" unicode="&#xa0;" horiz-adv-x="279" 
 />
    <glyph glyph-name="sterling" unicode="&#xa2;" horiz-adv-x="550" 
d="M474 -46q-48 -29 -110 -34v-94h-62v95q-96 11 -153 80t-57 172q0 109 57 182.5t153 92.5v106h62v-101q61 -1 110 -26v-85q-50 35 -110 38v-391q61 6 110 43v-78zM302 374q-59 -15 -93 -66.5t-34 -125.5q0 -75 34 -124.5t93 -62.5v379z" />
    <glyph glyph-name="currency" unicode="&#xa3;" horiz-adv-x="550" 
d="M501 -150h-448v67q108 35 108 156v93h-98v70h98v127q0 94 54.5 153.5t140.5 59.5q58 0 106 -20v-77q-50 28 -105 28q-114 0 -114 -153v-118h147v-70h-147v-77q0 -121 -96 -169h354v-70z" />
    <glyph glyph-name="yen" unicode="&#xa4;" horiz-adv-x="567" 
d="M517 26l-46 -48l-68 69q-52 -38 -119 -38q-68 0 -120 38l-68 -69l-46 48l69 67q-38 56 -38 118q0 64 38 118l-69 68l46 48l68 -69q55 39 120 39q64 0 118 -39l69 69l46 -48l-68 -68q39 -56 39 -118q0 -60 -39 -118zM284 349q-58 0 -97.5 -40.5t-39.5 -96.5t40 -96.5
t97 -40.5q56 0 96.5 40.5t40.5 96.5t-41 96.5t-96 40.5z" />
    <glyph glyph-name="section" unicode="&#xa5;" horiz-adv-x="550" 
d="M519 564l-177 -327h142v-69h-167v-103h167v-69h-167v-146h-81v146h-172v69h172v103h-172v69h145l-175 327h95l125 -256q14 -29 23 -55h2q7 21 25 58l125 253h90z" />
    <glyph glyph-name="copyright" unicode="&#xa6;" horiz-adv-x="244" 
d="M159 206h-73v424h73v-424zM159 -390h-73v424h73v-424z" />
    <glyph glyph-name="registered" unicode="&#xa7;" horiz-adv-x="457" 
d="M328 57q45 -37 45 -92q0 -66 -50 -107t-127 -41q-66 0 -119 28v79q64 -37 124 -37q42 0 65 19.5t23 49.5q0 26 -17.5 44.5t-90.5 56.5q-116 61 -116 158q0 81 73 122q-52 41 -52 111q0 63 46.5 104t122.5 41q65 0 109 -22v-79q-50 31 -111 31q-84 0 -84 -71
q0 -28 20.5 -50.5t101.5 -60.5q111 -54 111 -146q0 -85 -74 -138zM198 301q-50 -26 -50 -79q0 -36 28 -63.5t98 -58.5q44 34 44 86q0 36 -26 61t-94 54z" />
    <glyph glyph-name="trademark" unicode="&#xa9;" horiz-adv-x="908" 
d="M454 -166q-155 0 -264 109t-109 264t109 264.5t264 109.5t264 -109.5t109 -264.5t-109 -264t-264 -109zM454 537q-136 0 -232.5 -96.5t-96.5 -233.5q0 -136 96.5 -232.5t232.5 -96.5q137 0 233 96.5t96 232.5q0 137 -96 233.5t-233 96.5zM604 -18q-57 -34 -134 -34
q-104 0 -174 70.5t-70 176.5q0 123 72 196t187 73q65 0 117 -26v-75q-47 36 -126 36q-78 0 -128.5 -53t-50.5 -143q0 -87 51.5 -139.5t131.5 -52.5q72 0 124 39v-68z" />
    <glyph glyph-name="guilsinglleft" unicode="&#xab;" horiz-adv-x="516" 
d="M471 -50h-84l-148 167l148 171h85l-153 -171zM277 -50h-82l-149 167l149 171h82l-150 -171z" />
    <glyph glyph-name="plusminus" unicode="&#xac;" horiz-adv-x="698" 
d="M584 -23h-66v214h-402v66h468v-280z" />
    <glyph glyph-name="guillemotleft" unicode="&#xae;" horiz-adv-x="908" 
d="M454 -166q-155 0 -264 109t-109 264t109 264.5t264 109.5t264 -109.5t109 -264.5t-109 -264t-264 -109zM454 537q-136 0 -232.5 -96.5t-96.5 -233.5q0 -136 96.5 -232.5t232.5 -96.5q137 0 233 96.5t96 232.5q0 137 -96 233.5t-233 96.5zM636 -26h-81l-52 114
q-39 85 -85 85h-43v-199h-67v475h134q83 0 128 -35t45 -95q0 -49 -31.5 -83t-88.5 -46v-2q39 -9 78 -88zM375 392v-162h71q98 0 98 81q0 44 -26.5 62.5t-83.5 18.5h-59z" />
    <glyph glyph-name="guillemotright" unicode="&#xaf;" horiz-adv-x="423" 
d="M423 545h-423v60h423v-60z" />
    <glyph glyph-name="paragraph" unicode="&#xb0;" horiz-adv-x="384" 
d="M192 297q-58 0 -98 40.5t-40 98.5q0 57 39.5 96.5t97.5 39.5t98.5 -40t40.5 -96q0 -58 -40.5 -98.5t-97.5 -40.5zM192 514q-33 0 -55.5 -23t-22.5 -55q0 -34 22 -57.5t55 -23.5q32 0 55.5 24t23.5 57t-23 55.5t-55 22.5z" />
    <glyph glyph-name="periodcentered" unicode="&#xb1;" horiz-adv-x="698" 
d="M584 175h-202v-201h-65v201h-201v65h201v202h65v-202h202v-65zM584 -150h-468v66h468v-66z" />
    <glyph glyph-name="Euro" unicode="&#xb6;" horiz-adv-x="467" 
d="M415 513h-63v-663h-53v663h-79v-663h-54v450q-53 0 -88.5 37.5t-35.5 95.5t37 94.5t90 36.5h246v-51z" />
    <glyph glyph-name="brokenbar" unicode="&#xb7;" horiz-adv-x="221" 
d="M111 104q-23 0 -39 16.5t-16 39.5t16 39.5t39 16.5t39.5 -16.5t16.5 -39.5t-16.5 -39.5t-39.5 -16.5z" />
    <glyph glyph-name="guilsinglright" unicode="&#xbb;" horiz-adv-x="516" 
d="M472 118l-150 -168h-82l150 168l-150 170h82zM278 118l-149 -168h-84l153 168l-153 170h84z" />
    <glyph glyph-name="logicalnot" unicode="&#xbc;" horiz-adv-x="924" 
d="M318 141h-251v56h92v295l-96 -27v62l161 48v-378h94v-56zM694 564l-428 -714h-71l428 714h71zM850 -48h-55v-102h-66v102h-196v45l184 276h78v-267h55v-54zM729 211q-6 -16 -19 -37l-108 -168h127v161q0 16 2 44h-2z" />
    <glyph glyph-name="degree" unicode="&#xbd;" horiz-adv-x="949" 
d="M318 141h-251v56h92v295l-96 -27v62l161 48v-378h94v-56zM694 564l-428 -714h-71l428 714h71zM871 -150h-276v57l119 118q52 51 66 78t14 54q0 29 -19 47.5t-50 18.5q-59 0 -107 -51v74q41 38 117 38q58 0 92.5 -33t34.5 -87q0 -76 -102 -173l-82 -78v-2h193v-61z" />
    <glyph glyph-name="OE" unicode="&#x152;" horiz-adv-x="949" 
d="M901 -150h-358q-8 0 -69 -7q-49 -5 -91 -5q-155 0 -245.5 100t-90.5 261q0 172 94.5 274.5t255.5 102.5q45 0 89 -5q56 -7 57 -7h343v-76h-279v-237h258v-75h-258v-250h294v-76zM523 487q-80 13 -134 13q-114 0 -184.5 -82.5t-70.5 -211.5q0 -128 69.5 -210.5
t182.5 -82.5q58 0 137 17v557z" />
    <glyph glyph-name="oe" unicode="&#x153;" horiz-adv-x="946" 
d="M909 85h-361q1 -86 45 -132t121 -46q87 0 159 57v-77q-68 -49 -178 -49q-134 0 -190 118h-2q-65 -118 -207 -118q-114 0 -181 71t-67 189q0 129 70.5 201.5t190.5 72.5q146 0 200 -117h2q59 117 192 117q97 0 151.5 -65.5t54.5 -178.5v-43zM825 154q-1 71 -34 110t-91 39
q-60 0 -101.5 -42.5t-49.5 -106.5h276zM302 303q-79 0 -125 -54t-46 -149q0 -90 46 -141.5t124 -51.5q79 0 122 51t43 145q0 97 -43 148.5t-121 51.5z" />
    <glyph glyph-name="scaron" unicode="&#x161;" horiz-adv-x="433" 
d="M52 -44q67 -49 147 -49q107 0 107 71q0 21 -9 35t-25 25t-37 20t-45 18q-34 14 -59.5 27.5t-43 30.5t-26 39t-8.5 52q0 35 16.5 63t43.5 46.5t62.5 28t72.5 9.5q66 0 119 -23v-83q-57 37 -130 37q-23 0 -41.5 -5t-31.5 -14.5t-20.5 -23t-7.5 -28.5q0 -20 7.5 -33.5
t21.5 -24t34 -19t45 -18.5q34 -13 61 -26.5t46 -31t29 -40t10 -53.5q0 -37 -16.5 -65t-44.5 -46.5t-64.5 -27.5t-76.5 -9q-78 0 -136 30v88zM340 621l-107 -164h-66l-107 164h57l82 -114l81 114h60z" />
    <glyph glyph-name="Ydieresis" unicode="&#x178;" horiz-adv-x="564" 
d="M558 564l-236 -450v-264h-83v262l-230 452h95l160 -323q3 -6 17 -43h2q5 17 19 43l167 323h89zM378 629q-20 0 -34.5 14t-14.5 36q0 21 14 35t34 14q21 0 35.5 -14.5t14.5 -34.5q0 -21 -14 -35.5t-35 -14.5zM187 629q-21 0 -36 15t-15 35q0 21 14.5 35t34.5 14
q21 0 36 -14.5t15 -34.5q0 -21 -14.5 -35.5t-34.5 -14.5z" />
    <glyph glyph-name="Zcaron" unicode="&#x17d;" horiz-adv-x="582" 
d="M560 544l-419 -618h409v-76h-534v23l415 615h-381v76h510v-20zM448 794l-106 -165h-66l-108 165h58l81 -114l82 114h59z" />
    <glyph glyph-name="zcaron" unicode="&#x17e;" horiz-adv-x="461" 
d="M438 337l-302 -417h299v-70h-419v25l302 415h-273v70h393v-23zM389 621l-106 -164h-66l-107 164h57l82 -114l81 114h59z" />
    <glyph glyph-name="florin" unicode="&#x192;" horiz-adv-x="550" 
d="M474 481q-24 13 -54 13q-72 0 -84 -79l-16 -104h83v-69h-93l-45 -322q-29 -208 -173 -208q-16 0 -45 8v71q18 -11 43 -11q74 0 94 146l46 316h-52v69h62l14 109q8 66 52 105t110 39q32 0 58 -9v-74z" />
    <glyph glyph-name="uniFFFC.477" unicode="&#x1af;" horiz-adv-x="719" 
d="M131 30q8 0 8 -4h1q21 -14 43.5 -28.5t42.5 -31.5q16 -10 40 -33.5t56 -54.5q30 -29 53 -49.5t38 -30.5q26 -15 56 -23t62 -8q107 3 108 57q2 58 -59 60q-59 0 -92 -51q0 129 91 129q18 0 33 -4q-6 6 -14 16q-83 84 -153.5 134t-121.5 58h-7q-5 0 -8 1h-13
q-52 0 -100 -22q0 96 94 105q33 0 56 -5q4 20 6 36.5t2 29.5q0 85 -58 117h-138q-34 -21 -51.5 -56t-17.5 -79q0 -47 36 -108l-80 -58q-16 29 -23 65t-5 79q3 115 144 246h244l-24 -80q24 -27 24 -78q0 -53 -27 -127q41 -22 96.5 -72t121.5 -130q-2 126 -6 202t-9 104
q-7 36 -18.5 59t-30.5 37l22 85h104l-22 -90v-444q0 -22 -10 -30q58 -26 54 -131q-4 -136 -148 -146h-7q-4 -1 -10 -1q-18 0 -43 11.5t-52 32.5t-57 51.5t-61 65.5q-39 45 -85.5 88.5t-96.5 76.5h2q-11 4 -3 21h-2q5 8 15 8z" />
    <glyph glyph-name="circumflex" unicode="&#x2c6;" horiz-adv-x="379" 
d="M327 457h-61l-82 114l-82 -114h-56l107 165h66z" />
    <glyph glyph-name="tilde" unicode="&#x2dc;" horiz-adv-x="344" 
d="M337 576q0 -52 -24 -85t-65 -33q-35 0 -81 26q-38 21 -59 21q-44 0 -44 -56h-47q0 53 24 85t67 32q32 0 74 -26q37 -22 64 -22q42 0 42 58h49z" />
    <glyph glyph-name="afii59681" unicode="&#xe01;" horiz-adv-x="717" 
d="M404 224h-188q-17 -3 -35.5 -11.5t-39.5 -20.5q31 -7 53 -13t37 -10q22 19 45.5 30t50.5 16q13 0 25 1t23 1q29 0 52.5 -4.5t35.5 -13.5q25 -14 25 -39q0 -6 -1 -11q-3 -4 -3 -6l42 42q6 -3 17 -6.5t22 -8.5q35 -12 67 -9q-10 -24 -54 -45h1q-1 -2 -9 -2l-2 2
q-26 3 -48 16l-15 -8q9 -11 20 -24.5t21 -23.5h1l-39 -54h-277q-19 -4 -34 -10q-12 -5 -20 -6h299l-25 -50h-306q-10 -8 -13 -26q27 5 51 7.5t47 2.5q191 -8 233 -50q19 -20 33 -38t21 -30q7 -13 12.5 -29t11.5 -37l2 -7q-2 -1 -4.5 -3t-7.5 -4q-11 -2 -18 6q-32 83 -90 109
l-27 -45h-136q-26 -9 -49 -16.5t-39 -16.5q24 -7 44.5 -18t36.5 -21q17 24 44 36t61 12q34 2 54.5 -7.5t22.5 -31.5q5 -38 -37 -66h59l-24 -45q12 -21 -18 -44q62 -28 63 -75q0 -6 -6 -10q-6 -3 -8 -1t-6 7h2q-10 17 -36 29t-54 18q-8 0 -14 0.5t-7 0.5q-28 0 -64 -11
q5 54 64 59q26 0 47 -6q8 16 -26 31h-80q-32 -15 -32 -37q0 -14 13 -32q-7 -25 -45 -39q-25 38 -25 71q0 27 77 75q-3 -1 -5 0q-5 1 -8 4q-27 27 -66.5 40.5t-89.5 12.5q7 25 23 46t39 35h-67l34 54h261l-7 1q-79 14 -149 14q-66 0 -145 -20v18q0 37 2.5 61t7.5 40
q3 13 12.5 23.5t25.5 18.5h-68l36 54h138q-3 1 -5 4q-30 27 -75 42t-110 12q24 65 65 90h-70l43 68q-27 -5 -56 -14v17q0 95 11 118q5 11 16 20.5t23 16.5h-75l42 67h467l-36 43l86 86q5 -4 16.5 -7.5t27.5 -12.5q22 -7 43.5 -10t39.5 -2q-5 -13 -21 -26t-45 -28
q-1 -1 -8 -1q-4 1 -5 1q-16 2 -29.5 7t-28.5 15l-20 -12q11 -14 25 -30q10 -12 17 -23h12l-44 -67h-362q-30 -6 -45 -11.5t-19 -7.5h382l-32 -47h-382q-13 2 -16 -20q34 3 66 4.5t60 1.5q237 -2 290 -56q52 -52 59 -105v1q2 -1 2 -3.5t1 -3.5q0 -1 2 -4l-2 -1q-1 -1 -4 -1
l-5 -5q-21 -4 -27 5q-9 38 -37 60q-20 15 -53 25zM466 -570q-40 -59 -91 -59q-42 0 -90 40q-55 43 -114.5 81.5t-125.5 75.5q-3 6 1 16h3q11 3 14 -6q115 -63 132 -76q10 -8 39.5 -27t78.5 -50q42 -12 72 -12q36 0 54 22q11 12 11 21q0 21 -42 33q-27 9 -48 9q-12 0 -26 -1
q14 21 27.5 31.5t29.5 10.5q8 0 17.5 -3.5t21.5 -7.5q24 -13 36 -28.5t12 -33.5q0 -16 -12 -36zM418 138q0 29 -43 29q-78 0 -127 -19q11 -18 16.5 -32t6.5 -25q5 -9 -1 -15h126q22 40 22 62zM366 -314q14 21 14 34q0 20 -41 20q-42 0 -69 -17q4 -3 8 -12.5t8 -21.5
q3 -8 0 -11q4 2 9 5h69q0 1 2 3zM316 300q-46 5 -90 5q-58 -1 -122 -12h277q-32 5 -65 7zM462 101q-11 -12 -26 -25h56l-26 31q-1 -4 -4 -6z" />
    <glyph glyph-name="afii59682" unicode="&#xe02;" horiz-adv-x="25" 
d="M-30 -433q-1 0 -2 2q-96 64 -196 70q-8 0 -15 1q-9 1 -19 1q-22 0 -58 -14q3 54 63 59q16 1 47 -6q2 7 4 13.5t2 11.5q1 15 -56 32h-83q-24 -14 -33 -28.5t-7 -28.5q5 -17 9 -30.5t9 -19.5q-11 -13 -23 -22t-22 -20q-8 12 -11 26t-3 32v13q-8 37 88 126h158l-21 -50
q29 -18 23 -34q-5 -7 -8 -13.5t-4 -12.5q44 -15 80.5 -34.5t64.5 -44.5q0 43 -5 69q-16 52 -53 72q6 12 11 23t10 23q18 0 36 2h6q-6 1 -10 6q-1 0 -4 1q-2 2 -2 4l-1 2q0 47 -15 158v-3q-16 65 -58 65h-101q5 -72 5 -180v-50q-47 32 -93.5 53t-91.5 29q-63 14 -109 14
q-10 0 -21.5 -1.5t-24.5 -3.5q19 53 36 89t34 50h-60l42 61h534l-39 -61v-216q0 -14 -9 -17h15l-11 -48v-163q0 -1 -0.5 -3.5t-2.5 -3.5h18l-25 -42q10 -15 10 -30q0 -19 -25 -37q59 -28 58 -82q0 -7 -11 -11q-6 0 -10 9q-8 22 -30 35t-52 16q-9 3 -14.5 3.5t-6.5 0.5
q-27 0 -63 -10q6 52 63 57q12 0 23.5 -2t21.5 -7q8 11 10.5 16.5t2.5 10.5q-4 8 -42 30h-76q-42 -18 -53 -42v-5q0 -23 17 -45q-5 -10 -16 -19t-31 -17q-22 34 -22 65q-5 54 109 106h139zM-415 18q-29 -11 -52.5 -28.5t-38.5 -42.5q156 -7 246 -91q-3 64 -15.5 104.5
t-35.5 57.5h-104z" />
    <glyph glyph-name="afii59683" unicode="&#xe03;" horiz-adv-x="25" 
d="M-35 -646q-2 1 -3 4q-100 88 -202 94q-18 4 -36 4q-24 0 -64 -20q4 74 68 79q16 4 52 -7q3 20 3 34q0 21 -57 43h-87q-46 -39 -39 -76l9 -42q3 -18 7 -27q-11 -16 -22.5 -29t-24.5 -27q-15 30 -15 77v19q-8 51 93 170h162l-23 -66q33 -26 26 -47q-5 -11 -7 -21l-4 -14
q91 -40 151 -109q-1 31 -3 54.5t-3 41.5q-14 69 -54 96q6 17 11 32t11 30q18 1 35 1h10l-7 11q-43 30 -85 51t-79 33q-40 12 -92 19.5t-114 9.5q-32 -2 -62.5 -5t-61.5 -11q7 88 31 147t63 92h-79l45 82h494l-30 -76v-332q0 -15 -8 -20l9 1l-11 -65v-228q0 -2 -1 -3h22
l-27 -55q6 -11 9 -21t3 -20q0 -27 -26 -50q62 -40 59 -114q0 -8 -10 -13q-7 -3 -11 8q-20 66 -86 75q-17 2 -22 2q-30 0 -64 -13q2 36 18 54.5t48 22.5q26 0 46 -9q6 12 9 20t2 15q-1 11 -41 40h-80q-44 -26 -54 -58v-7q0 -31 17 -59q-9 -30 -48 -52q-24 51 -24 92
q-4 74 116 142h138zM-342 -5q-54 -25 -88 -60t-40 -74q9 1 18.5 1.5t20.5 0.5q228 -17 377 -147v13q0 105 -21 173t-58 93h-209z" />
    <glyph glyph-name="afii59684" unicode="&#xe04;" horiz-adv-x="626" 
d="M254 -233l135 142h-5q-110 0 -222 125q-24 28 -61 82t-89 135l48 85q23 -38 38.5 -60t21.5 -30q186 30 186 166v16h-268l43 89h523l-43 -89h-205v-10q0 -22 4.5 -41t10.5 -35q6 -7 20.5 -16t36.5 -15q28 -7 49 -13t31 -11h-1q91 -46 91 -177q0 -51 -30 -98
q-28 -42 -66 -68q-35 -24 -83 -32l11 -8v-220zM384 235q-51 17 -72 36q0 1 4 3h-6q1 -2 2 -3q-28 -36 -65 -60.5t-76 -38.5q37 -54 68 -91.5t54 -54.5q36 -26 71.5 -41.5t63.5 -15.5q42 0 75 27q31 29 36 72q1 6 1 12v12q0 81 -73 116q-5 2 -26.5 9t-56.5 18zM393 -139
q-12 -16 -24.5 -29t-24.5 -29q10 -2 23.5 -9.5t25.5 -11.5v79z" />
    <glyph glyph-name="afii59685" unicode="&#xe05;" horiz-adv-x="25" 
d="M-299 -502l111 114v3q18 18 32 35v9l5 -2q12 13 23 26q22 29 32 48q6 12 6 29q0 31 -22 70v-2q-42 38 -96 38q-33 0 -76 -16q-47 -17 -66 -37q3 -23 6.5 -46.5t7.5 -46.5q1 -12 -4.5 -18t-17.5 -6q-3 0 -6 4q-6 6 -6 11q-13 33 -25 70t-25.5 74t-26.5 74t-25 71l62 77
h417l-44 -82h-357q10 -33 18 -65.5t15 -68.5q24 48 59.5 69.5t84.5 21.5q194 0 194 -158v-20q0 -10 -2 -20q-18 -47 -96 -122v-218zM-160 -409q-12 -13 -24.5 -27t-25.5 -30q12 -4 24.5 -9t25.5 -11v77z" />
    <glyph glyph-name="afii59686" unicode="&#xe06;" horiz-adv-x="25" 
d="M-230 -538l135 143q-2 5 -5 12q-6 19 -16 47q-5 8 -7 15.5t-5 16.5q-26 42 -78 64t-136 22q-85 0 -176 -27q9 197 61 228h-72l43 93h492l-34 -93h-333q-19 -6 -35 -15.5t-25 -19.5q-18 -18 -34 -87q43 7 93 7q123 0 195 -43t94 -129q18 -68 20 -98q1 -14 0 -22v-194z
M-91 -444q-12 -14 -24.5 -27.5t-24.5 -26.5q13 -7 23.5 -12.5t25.5 -11.5v78z" />
    <glyph glyph-name="afii59687" unicode="&#xe07;" horiz-adv-x="25" 
d="M-332 -634l135 144q4 8 6 14v4h3q12 29 12 41q4 57 -71 57q-27 0 -50 -8.5t-40 -23.5q12 -20 18 -36t8 -28q5 -20 -9 -26q-8 -2 -16 11q-70 96 -194 96q21 79 73 112h-78l41 81h333q-24 15 -59 24q-54 14 -134 14q-44 0 -88 -6t-91 -18q5 74 17.5 115.5t35.5 56.5h-64
l47 84h491l-36 -84h-337q-48 -8 -68.5 -25t-21.5 -44q23 5 46 7t47 2q231 -1 285 -86q13 -22 30 -83t33 -156q2 -18 -15 -31q-25 16 -52 100q-11 42 -22 71t-23 45q-4 4 -8 7l-32 -74h-168q-65 6 -106 -42q28 -9 52 -24t46 -36q21 36 54.5 56.5t73.5 20.5q73 0 96 -30
q22 -32 20 -69q0 -15 -15 -45q-12 -23 -34 -54l6 -215zM-196 -542q-10 -12 -22 -26t-26 -28q14 -6 25 -11t23 -11v76z" />
    <glyph glyph-name="afii59688" unicode="&#xe08;" horiz-adv-x="25" 
d="M-203 -527l135 142q-108 54 -212 54q-34 0 -67 -6q-20 0 -41 -2.5t-44 -7.5q14 67 33.5 108.5t44.5 58.5q-18 -1 -36.5 -6.5t-41.5 -11.5q14 106 104 106h18v8q0 42 -70 79h-102q-9 -5 -13 -8l-8 -5q-2 -2 -4 -3.5t-2 -3.5q-21 -16 -29 -41q-6 -8 -4 -30q0 -43 24 -77
l-54 -77q-41 52 -41 106v14l3 12q14 58 57.5 109t115.5 86h183l-39 -77q24 -36 21 -101q52 -11 102.5 -35.5t98.5 -60.5q-2 84 -20.5 132.5t-56.5 64.5l30 77h124l-32 -81v-604zM-68 -240q-45 28 -90.5 43t-95.5 17q-68 -13 -110 -77h14q14 1 28 3t28 2q58 0 115 -20.5
t115 -62.5q0 10 -0.5 19.5t-0.5 17.5q0 26 -0.5 39.5t-2.5 18.5zM-64 -432q-12 -16 -24.5 -29t-25.5 -29q12 -4 25 -10t25 -12v80z" />
    <glyph glyph-name="afii59689" unicode="&#xe09;" horiz-adv-x="25" 
d="M-199 -497l141 147v14q-4 47 -8 96q-8 65 -16 127q-13 -11 -23.5 -23.5t-19.5 -24.5q-23 -30 -83 -38q-21 -5 -42 -5q-18 0 -38 3.5t-38 9.5q-15 6 -27 18t-23 29q2 -11 5.5 -26.5t9.5 -35.5q24 -24 43 -59t35 -78q1 -4 1 -5v-13q-1 -12 -10 -13q-7 -4 -12.5 -1t-9.5 13
v-2q-65 107 -183 107q-20 0 -41 -2.5t-45 -6.5q19 93 125 93q14 0 27 -2.5t27 -5.5q-27 47 -27 128q0 113 159 132l277 3l-28 -86q0 -93 0.5 -184.5t0.5 -185.5q0 -5 -1 -10v-197zM-106 -32q-6 9 -18.5 17t-26.5 15h-123q-99 -6 -99 -48q0 -11 6 -24t17 -29q28 -32 109 -32
q79 0 146 68q-7 31 -11 33zM-60 -404q-14 -14 -25.5 -28t-24.5 -28q10 -6 23.5 -11t26.5 -11v78z" />
    <glyph glyph-name="afii59690" unicode="&#xe0a;" horiz-adv-x="25" 
d="M-396 -367q16 -17 35 -35l37 -37q18 -19 36.5 -38t33.5 -35l-184 -82l4 220q0 43 1 91l1 96v186l52 83l366 -3l-28 -74q4 -15 8 -28.5t9 -28.5q0 -40 -6.5 -73t-20.5 -56q27 8 53 8q107 0 127 -93q-22 4 -44 6.5t-42 2.5q-120 0 -185 -107v2q-8 -18 -24 -12q-6 0 -6 13
v13q0 1 1 5q14 43 34 78t43 59q5 15 7.5 25.5t5 17.5t3 10.5t0.5 8.5q-11 -17 -24 -29t-25 -18q-20 -6 -39.5 -9.5t-38.5 -3.5q-22 0 -40 5q-28 2 -50.5 13t-33.5 25q-20 24 -44 47zM-352 -32q-1 -4 -10 -33q67 -68 147 -68q82 0 108 32q11 16 17 29t6 24q0 43 -98 48h-123
q-15 -7 -26.5 -15t-20.5 -17zM-395 -497q12 6 24 11t25 11q-13 15 -23.5 28t-25.5 29v-79z" />
    <glyph glyph-name="afii59691" unicode="&#xe0b;" horiz-adv-x="25" 
d="M-202 -497l134 139q-92 123 -171 200q-87 87 -161 121q-33 -7 -57 -27.5t-39 -51.5q74 -14 131 -62t97 -128q5 -4 5 -14q0 -16 -14 -16q-7 0 -15 6q-121 121 -268 116q12 76 34.5 128t59.5 81h-96l40 82h361l-32 -82h-99q59 -50 117.5 -127t115.5 -173q-5 144 -24.5 219
t-56.5 82l37 81h104l-24 -81v-577zM-62 -404q-14 -14 -26 -28l-24 -28q11 -6 24.5 -11t25.5 -11v78z" />
    <glyph glyph-name="afii59692" unicode="&#xe0c;" horiz-adv-x="25" 
d="M-266 -523l122 128l1 1q10 11 18 21v8l6 -2q12 17 22 35q18 30 32 63q1 6 3 12t2 11q0 25 -18 61l2 -1q-30 47 -91 53q-2 1 -6 1h-7q-66 0 -109 -65q21 -29 37 -62t26 -69q3 -15 -7 -25h-8q-10 0 -16 11v-1q-23 38 -45 65.5t-41 44.5q-29 21 -62.5 31t-73.5 10h-26
q-3 -1 -7 -2.5t-6 -1.5q18 82 39.5 128t47.5 63h-83l28 84h474l-24 -84h-290q-41 -11 -70.5 -36t-46.5 -62q73 -7 126 -63q57 118 150 118q46 0 86 -22t74 -67q18 -25 18 -67v-10q0 -4 -1 -9q0 -39 -28 -83q-25 -40 -73 -77v-224zM-128 -431q-12 -13 -25 -27t-25 -28
q12 -6 23.5 -11.5t26.5 -11.5v78z" />
    <glyph glyph-name="afii59693" unicode="&#xe0d;" horiz-adv-x="25" 
d="M-10 0h-218q0 -22 -1 -48t-5 -55q41 60 122 60q161 0 161 -154q-1 -103 -74 -140l3 -244l-177 84l141 147q-24 -8 -56 -9q-46 -2 -80.5 21.5t-61.5 69.5q-21 -46 -57.5 -69.5t-84.5 -21.5q-150 5 -150 166q0 141 154 150q80 5 120 -70q-10 66 -50 113h-198l42 82h446
l-13 37l61 109q22 -10 46 -14.5t48 -4.5h25l10 1q-5 -35 -43 -71q6 -1 4.5 -3t-20.5 -4h-7q-24 0 -59 13l-18 -26q6 -11 11 -24q3 -6 5 -13h18zM-114 -122q-110 0 -116 -69q6 -37 34.5 -59t81.5 -24q60 0 92 20t36 58q-7 35 -39.5 53.5t-88.5 20.5zM-282 -188
q-7 30 -38.5 47t-83.5 19q-46 -10 -73.5 -28.5t-34.5 -45.5q4 -34 33 -54.5t79 -23.5q50 5 81.5 27.5t36.5 58.5zM-60 -404q-13 -14 -25 -28t-25 -28q10 -6 23.5 -11t26.5 -11v78z" />
    <glyph glyph-name="afii59694" unicode="&#xe0e;" horiz-adv-x="25" 
d="M-217 14q3 -45 4 -79.5t1 -55.5v-55q0 -11 -17 -11q-16 0 -16 11q-1 36 -3.5 60.5t-5.5 37.5q-17 74 -63 92h-72q4 -14 4 -30q0 -21 -5 -37q-11 -31 -43 -43q-43 -14 -48 -17q-17 -12 -33 -48q-16 40 -16 64q0 18 10 31q15 6 30.5 12t26.5 12q3 0 5.5 2t5.5 2q10 8 25 52
h-97l22 65h509l-30 -59v-223q0 -12 -20 -12q-11 0 -12 9q-4 20 -7.5 41.5t-8.5 42.5q-9 58 -23 93.5t-31 42.5h-92zM-193 -572l141 122v11q-36 22 -75 38q-53 21 -101 23q-8 2 -17 3t-17 1q-25 0 -60 -15q2 30 18 46.5t46 18.5q8 0 21.5 -2t27.5 -6q6 16 6 27q0 18 -57 37
h-86q-48 -32 -38 -62q6 -44 16 -58q-11 -10 -22.5 -21.5t-22.5 -23.5q-8 13 -11.5 28t-3.5 35v17q-6 39 91 138h159l-21 -56q30 -18 23 -35q-4 -10 -7.5 -17t-4.5 -14q92 -33 147 -89q0 48 -3 78q-15 56 -53 80q5 14 9 26t10 25q19 0 36 1t35 1l-11 -53v-181q0 -6 -2 -9h-2
l4 -2v-180zM-55 -497q-13 -12 -24.5 -22.5t-23.5 -22.5q12 -4 22.5 -8t25.5 -9v62zM-47 -443l17 -12l2 -1q2 -2 3 -2h3z" />
    <glyph glyph-name="afii59695" unicode="&#xe0f;" horiz-adv-x="25" 
d="M-187 -566l139 114v9l6 -3q-88 58 -182 66q-10 1 -17 1h-17q-25 0 -61 -15q3 58 63 62q17 2 48 -8q4 9 5 15t1 12q0 18 -55 35h-85q-47 -30 -38 -59q2 -19 7 -33t9 -20q-12 -11 -23 -21.5t-22 -22.5q-7 13 -11 28t-4 32v15q-8 39 89 130h159l-22 -51q31 -19 23 -36
q-3 -8 -6.5 -14.5t-4.5 -12.5q46 -15 82 -36t66 -47q-3 46 -6 72q-15 55 -53 76q5 12 10 23t11 25q17 0 34 1q-7 1 -11 6q-1 2 -5 3q-1 2 -1.5 3.5t-0.5 2.5q0 50 -14 162q-18 69 -60 69h-101q5 -77 5 -190v-51q-47 33 -94.5 54t-91.5 31q-65 14 -112 14q-10 0 -21 -1
t-23 -2q18 54 36 91t33 54h-61l42 62h539l-39 -63v-228q0 -13 -8 -17h24l-12 -49v-171q0 -1 -1 -3.5t-1 -4.5h-3l9 -4v-168zM-424 17q-30 -12 -53 -30.5t-37 -45.5q156 -7 246 -96q-3 66 -14.5 110.5t-34.5 61.5h-107zM-52 -494q-12 -12 -24.5 -22.5t-24.5 -21.5
q15 -4 25.5 -8.5t23.5 -9.5v62zM-34 -450l4 -4q2 -3 4 -3h3zM-30 -229q-4 -1 -8 -1q-3 0 -4 1h12z" />
    <glyph glyph-name="afii59696" unicode="&#xe10;" horiz-adv-x="610" 
d="M417 -223l128 133v2q-30 82 -78 130q-48 50 -103 61q-16 3 -25.5 4t-13.5 1q-53 0 -115 -22q11 98 116 112q46 0 85 -18q25 46 25 94q0 73 -72 122h-143q-44 -19 -71.5 -58.5t-36.5 -98.5q-1 -2 -1 -7v-9q0 -29 7.5 -55.5t22.5 -52.5q-15 -55 -62 -88q-21 42 -32 82
t-11 79q0 192 193 288h291l-43 -76q11 -28 16.5 -51t5.5 -41v-17q0 -1 -1 -3v-4q0 -2 -1 -3q-9 -51 -57 -121q49 -37 81.5 -96t51.5 -145q1 -10 -2 -16l3 -2v-199zM542 -141l-22 -24q-11 -12 -22 -25q11 -5 22.5 -10.5t21.5 -10.5v70z" />
    <glyph glyph-name="afii59697" unicode="&#xe11;" horiz-adv-x="25" 
d="M-84 -432l-26 -44q13 -16 13 -32q0 -21 -25 -42q31 -15 45.5 -36t12.5 -51q0 -7 -7 -12q-8 -1 -13 8q-22 52 -85 58q-4 1 -9 1h-14q-28 0 -64 -10q9 57 65 62q13 0 25 -2t22 -6q12 20 11 27q-1 9 -40 32h-79q-43 -19 -53 -44v-6q0 -25 17 -48q-10 -24 -48 -39
q-23 35 -23 71q-5 59 113 113h92l-140 53l108 91q17 16 31 28v8l5 -4q12 12 23 22q24 24 32 37q6 10 6 24q0 24 -21 55v-1q-40 29 -94 29q-35 0 -76 -12q-46 -12 -66 -30q4 -18 7.5 -36.5t7.5 -35.5q1 -8 -4.5 -13.5t-16.5 -5.5q-2 0 -6 2q-6 6 -6 9q-12 26 -24.5 55
t-25.5 59t-25.5 58.5t-24.5 55.5l62 61h409l-43 -65h-352q10 -26 18 -51.5t16 -55.5q23 40 57.5 56.5t84.5 16.5q190 0 190 -126q0 -7 -0.5 -14.5t-2.5 -15.5q-17 -36 -94 -96v-158h35zM-156 -306q-13 -11 -25 -22.5t-25 -23.5q10 -4 23 -7t27 -9v62z" />
    <glyph glyph-name="afii59698" unicode="&#xe12;" horiz-adv-x="25" 
d="M-31 -433l-24 -42q6 -7 9 -15t3 -16q0 -21 -28 -40q33 -14 46.5 -35t12.5 -49q1 -7 -6 -11q-4 -1 -8 1.5t-5 5.5q-11 22 -34.5 37t-52.5 20h-20q-28 0 -65 -10q7 54 64 59q14 0 26 -1t22 -5q12 17 12 26q-1 8 -42 29h-77q-25 -8 -37 -19t-17 -22q-2 -2 -2 -3v-4
q0 -24 18 -45q-9 -22 -47 -38q-25 35 -25 68q-2 30 27 57t88 52h90l-125 43l136 108q-4 5 -5 10q-6 14 -17 36q-5 6 -7.5 11t-5.5 13q-24 31 -75.5 47t-134.5 16q-84 0 -174 -18q9 149 62 172h-73l42 71h486l-34 -71h-328q-18 -5 -34 -12t-25 -13q-18 -16 -33 -69q42 7 90 7
q123 0 194.5 -33.5t90.5 -96.5q19 -51 21 -76q0 -11 -1 -17v-128h22zM-90 -319q-12 -11 -24.5 -21t-24.5 -21q14 -4 25 -8.5t24 -9.5v60z" />
    <glyph glyph-name="afii59699" unicode="&#xe13;" horiz-adv-x="25" 
d="M-134 -449l-26 -42q11 -14 11 -27q0 -11 -6 -20.5t-17 -18.5q59 -29 58 -79q0 -6 -7 -13q-11 0 -16 9q-19 46 -83 53h-21q-31 0 -65 -7q6 49 65 54q27 0 48 -6q12 17 11 24q-3 8 -42 30h-80q-43 -19 -52 -42q-2 0 -2 -1v-4q0 -23 18 -44q-8 -21 -49 -35q-21 32 -21 65
q-2 26 26 52.5t86 51.5h86l-118 39l134 102q4 6 8 10v3h1q2 6 6 12q6 12 8 18q-8 13 -22 19.5t-33 6.5q-5 0 -11 -0.5t-11 -0.5q-22 -5 -43 -11.5t-38 -19.5q11 -5 17 -11.5t6 -16.5q4 -12 -5 -17q-12 -3 -18 6q-36 26 -84 39t-108 13q20 56 73 78h-78l41 61h327
q-22 11 -57 17q-54 10 -133 10q-44 0 -87 -4.5t-90 -15.5q7 54 18.5 85t34.5 41h-61l44 60h485l-35 -60h-333q-48 -8 -67.5 -19t-21.5 -31q21 4 44.5 5t46.5 1q228 0 281 -61q15 -16 31 -61t32 -111q2 -14 -14 -21q-26 10 -50 70q-11 29 -23 50t-24 34q-4 2 -6 5l-33 -55
h-165q-64 5 -106 -28q29 -7 52.5 -17.5t44.5 -26.5q21 28 52 43.5t70 16.5q38 -1 64.5 -10.5t40.5 -23.5q6 -8 6 -20q0 -14 -13 -34q-11 -15 -26 -34l3 -135h21zM-192 -343l-24 -20q-12 -10 -24 -21q14 -5 25 -8t23 -8v57z" />
    <glyph glyph-name="afii59700" unicode="&#xe14;" horiz-adv-x="25" 
d="M-17 -443l-24 -43q11 -14 11 -31q0 -10 -6.5 -20.5t-17.5 -19.5q28 -15 41.5 -37t12.5 -48q1 -10 -5 -13q-9 -1 -12 8q-11 22 -32.5 37.5t-51.5 17.5q-2 0 -6.5 1.5t-5.5 1.5h-6q-29 0 -63 -10q4 54 63 59q12 0 23 -2l22 -4q10 18 9 28q0 7 -38 28h-77q-19 -8 -32.5 -19
t-17.5 -21v-9q0 -25 15 -47q-8 -22 -45 -38q-24 37 -24 71q-4 57 111 110h119l-139 53l128 110q-104 40 -201 40q-34 0 -65 -5q-19 0 -39 -1t-42 -5q12 52 31 84.5t44 45.5q-16 -1 -34.5 -6t-40.5 -10q14 83 99 83h18v6q0 32 -67 62h-99q-7 -4 -11 -6.5t-8 -6.5
q-1 0 -3 -0.5t-3 -1.5q-20 -13 -26 -33q-5 -7 -4 -24q0 -33 22 -58l-51 -60q-41 39 -41 81v11l4 11q12 43 54.5 82.5t111.5 67.5h175l-37 -60q21 -27 18 -77q51 -8 99 -27.5t93 -46.5q0 64 -19 101.5t-53 49.5l28 60h118l-31 -63v-457h8zM-65 -169q-43 21 -87 33t-89 15
q-65 -11 -106 -61h15q12 1 25 1.5t27 0.5q56 0 110 -14.5t110 -46.5q0 7 -1 14t-1 15q0 19 -1 29t-2 14zM-60 -317q-13 -13 -24.5 -23t-23.5 -22q11 -3 24 -8.5t24 -8.5v62z" />
    <glyph glyph-name="afii59701" unicode="&#xe15;" horiz-adv-x="25" 
d="M-12 -415l-24 -43q11 -16 11 -32q0 -10 -6.5 -20t-17.5 -19q29 -16 42.5 -37t12.5 -48q0 -6 -6 -10q-7 -2 -12 5q-11 23 -33.5 38t-51.5 19q-9 0 -14 1t-7 1q-14 0 -30 -2.5t-33 -8.5q6 55 65 59q13 0 23.5 -1t21.5 -5q6 9 8.5 15t2.5 12q-2 6 -41 30h-77
q-42 -19 -55 -44v-6q0 -23 18 -46q-8 -21 -47 -37q-25 37 -25 70q-2 55 114 109h126l-149 54l141 114v11h1q-6 34 -11 72q-8 51 -14 98q-13 -10 -23.5 -19.5t-19.5 -17.5q-22 -22 -80 -30q-21 -5 -42 -5q-18 0 -37 3t-36 10q-14 4 -27.5 13t-23.5 22q3 -10 7 -20l9 -28
q24 -20 42 -45.5t34 -60.5v-12q0 -9 -7 -10q-9 -3 -14 -1t-9 10v-1q-64 80 -179 80q-18 0 -39 -1.5t-46 -5.5q20 72 122 72q15 0 28 -1.5t25 -4.5q-25 35 -25 99q0 85 155 100l270 2l-28 -66q0 -70 0.5 -141t2.5 -141q0 -5 -2 -8v-141h10zM-102 -5q-6 6 -18.5 11.5
t-27.5 11.5h-118q-98 -4 -98 -35q0 -9 6 -19.5t16 -21.5q29 -24 107 -24q77 0 144 51q-9 25 -11 26zM-59 -289q-12 -11 -24 -21t-24 -22q11 -4 24 -9t24 -9v61z" />
    <glyph glyph-name="afii59702" unicode="&#xe16;" horiz-adv-x="25" 
d="M-396 -292q16 -13 34.5 -28.5t37 -31.5t37 -31t33.5 -29l-184 -68l4 182q0 36 1 76l1 80v153l52 71l366 -2l-28 -62q4 -12 8 -23.5t9 -24.5q0 -34 -6.5 -61t-20.5 -46q27 7 53 7q107 0 127 -78q-22 5 -44 7t-42 2q-120 0 -185 -89q-8 -16 -24 -10q-6 0 -6 14v8q0 2 1 4
q14 37 34 65.5t43 48.5q5 14 7.5 22.5t5 14t3 8.5t0.5 6q-11 -14 -24 -23t-25 -14q-20 -6 -39.5 -9t-38.5 -3q-22 0 -40 2q-28 5 -50.5 13.5t-33.5 19.5q-20 21 -44 41zM-58 -400l-24 -46q12 -17 12 -33q0 -11 -7.5 -22t-18.5 -21q62 -35 58 -92q1 -10 -5 -11q-6 -4 -8.5 -2
t-6.5 8q-10 26 -33 40.5t-54 19.5q-3 0 -6.5 1t-4.5 1h-10q-30 0 -64 -11q7 60 64 65q28 0 47 -8q6 9 9 17t3 13q0 9 -41 33h-80q-43 -20 -54 -46v-8q0 -26 17 -51q-9 -25 -48 -40q-24 36 -24 76q-4 60 116 117h163zM-352 -12q-1 -4 -10 -29q67 -55 147 -55q82 0 108 26
q11 12 17 23t6 21q0 36 -98 38h-123q-15 -5 -26.5 -11t-20.5 -13zM-395 -400q12 5 25 10l24 7q-13 15 -23.5 25t-25.5 23v-65z" />
    <glyph glyph-name="afii59703" unicode="&#xe17;" horiz-adv-x="25" 
d="M-17 -427l-24 -45q9 -7 11 -15.5t2 -14.5q0 -10 -7 -20.5t-19 -21.5q59 -32 55 -86q0 -7 -5 -11q-8 -3 -13 7q-9 26 -31.5 39t-53.5 18h-12q-5 0 -6.5 0.5t-3.5 0.5q-14 0 -30 -2.5t-34 -8.5q7 57 64 63q28 0 48 -9q6 11 8.5 17.5t2.5 10.5q-1 5 -11 12t-30 19h-79
q-45 -20 -54 -42q-1 -2 -1 -4v-3q0 -27 19 -48q-9 -25 -48 -39q-25 35 -25 71q-4 58 116 112h136l-156 57l132 108q-90 95 -168 156q-88 69 -161 94q-32 -6 -56 -21.5t-39 -39.5q74 -11 130 -49t97 -99q5 -3 5 -12q0 -12 -16 -12q-6 0 -13 5q-120 95 -266 90q13 60 34.5 100
t58.5 64h-94l40 63h356l-33 -63h-96q58 -40 115.5 -99.5t112.5 -134.5q-3 112 -23 169.5t-56 64.5l36 63h103l-24 -63v-441h6zM-62 -298q-12 -10 -23.5 -21t-24.5 -22q10 -5 23.5 -9t24.5 -9v61z" />
    <glyph glyph-name="afii59704" unicode="&#xe18;" horiz-adv-x="25" 
d="M-79 -442l-24 -43q12 -15 12 -29q0 -10 -8 -21t-20 -21q30 -14 45 -35.5t14 -49.5q1 -8 -6 -11q-10 -3 -14 8q-10 24 -33.5 37.5t-52.5 18.5h-14q-2 0 -4.5 0.5t-3.5 0.5q-29 0 -66 -11q8 56 67 60q26 0 44 -7q6 10 10.5 16.5t4.5 11.5q-2 5 -12.5 12t-29.5 18h-80
q-45 -19 -54 -42q-1 -1 -1 -4v-2q0 -27 17 -47q-10 -25 -48 -38q-25 33 -25 69q-3 55 117 109h134l-156 57l124 101h-2q7 4 12 9l4 3q1 2 3 4v6l6 -1q12 12 22 24q18 25 32 48q1 5 3 10.5t2 8.5q0 21 -18 48h2q-30 34 -91 39q-2 1 -6 1h-7q-66 0 -109 -49q21 -23 37 -47
t26 -54q3 -12 -7 -20h-8q-10 0 -16 9v-1q-23 29 -45 50t-41 35q-29 16 -62.5 23.5t-73.5 7.5h-26q-3 0 -7 -1t-6 -1q18 62 39.5 97.5t47.5 48.5h-83l28 65h474l-24 -65h-290q-41 -8 -70.5 -27t-46.5 -49q73 -4 126 -48q57 92 150 92q46 0 86 -17.5t74 -50.5q18 -21 18 -53
v-9q0 -2 -1 -7q0 -27 -28 -62q-25 -29 -73 -59v-166h12zM-128 -313q-12 -11 -25 -22t-25 -21q12 -5 23.5 -8.5t26.5 -9.5v61z" />
    <glyph glyph-name="afii59705" unicode="&#xe19;" horiz-adv-x="25" 
d="M0 47h-204q0 -19 -2 -40t-4 -44q38 48 114 48q151 0 150 -121q0 -93 -85 -119l19 -12v-168h5l-5 -9l-18 -36q12 -16 12 -32q0 -10 -7 -21t-18 -21q26 -16 40 -38.5t14 -49.5q1 -8 -11 -13q-5 -1 -7 9q-10 24 -31.5 39t-51.5 19q-7 0 -12 1t-6 1q-14 0 -30 -2.5t-34 -8.5
q8 57 64 62q12 0 23 -1.5t21 -5.5l8 16q3 6 2 13q0 7 -38 30h-75q-20 -9 -32.5 -21t-18.5 -24v-6q0 -25 16 -49q-8 -24 -45 -39q-13 19 -18.5 36.5t-5.5 36.5q-1 59 110 114h125l-144 57l136 118q-24 -5 -56 -6q-40 -1 -73 17.5t-57 53.5q-21 -35 -55 -53.5t-79 -17.5
q-141 4 -141 132q0 113 146 119q72 3 112 -55q-11 54 -47 91h-186l38 65h420l-14 28l58 88q21 -8 42.5 -12t45.5 -4h18q2 0 5 2h10q-5 -28 -42 -58q6 0 5.5 -1t-20.5 -4h-4q-24 0 -56 11l-16 -22q6 -7 10 -19q2 -5 3 -9h18zM-100 -52q-102 0 -108 -55q6 -30 32.5 -47.5
t75.5 -18.5q58 0 87.5 16.5t34.5 46.5q-6 28 -35.5 42.5t-86.5 15.5zM-256 -103q-6 23 -35 36.5t-79 14.5q-43 -7 -68.5 -22t-33.5 -36q4 -29 31.5 -45.5t73.5 -17.5q48 4 77.5 22t33.5 48zM-48 -277q-12 -11 -23 -22t-24 -23q11 -4 23.5 -9t23.5 -9v63z" />
    <glyph glyph-name="afii59706" unicode="&#xe1a;" horiz-adv-x="25" 
d="M-217 14q3 -45 4 -78t1 -55v-56q0 -11 -17 -11q-16 0 -16 11q-1 36 -3.5 60.5t-5.5 38.5q-17 75 -63 90h-72q4 -14 4 -30q0 -20 -5 -37q-11 -31 -43 -42q-43 -13 -48 -17q-17 -13 -33 -48q-16 39 -16 64q0 18 10 30q15 7 30.5 12.5t26.5 11.5q3 0 5.5 2t5.5 3q10 7 25 51
h-97l22 65h509l-30 -57v-224q0 -12 -20 -12q-11 0 -12 10q-4 19 -7.5 41.5t-8.5 40.5q-9 60 -23 94.5t-31 41.5h-92zM-193 -570l141 122v11q-34 24 -75 39q-53 19 -101 24q-8 1 -17 1h-17q-25 0 -60 -12q2 27 18 43.5t46 19.5q8 0 21.5 -2t27.5 -7q6 18 6 29q0 18 -57 36
h-86q-48 -32 -38 -62q6 -44 16 -56q-11 -12 -23 -23l-22 -24q-8 15 -11.5 29t-3.5 35v15q-6 41 91 138h159l-21 -54q30 -20 23 -37q-4 -9 -7.5 -16t-4.5 -14q92 -32 147 -87q0 48 -3 75q-15 59 -53 81q5 14 9 25.5t10 25.5q19 0 36 0.5t35 0.5l-11 -52v-180q0 -6 -2 -9l2 -2
v-179zM-55 -494q-13 -12 -24.5 -22.5t-23.5 -22.5q12 -5 23 -8l25 -9v62z" />
    <glyph glyph-name="afii59707" unicode="&#xe1b;" horiz-adv-x="25" 
d="M-187 -572l139 115v8l14 -6q-93 64 -190 70q-10 0 -18.5 0.5t-15.5 0.5q-25 0 -61 -14q3 57 63 61q17 2 48 -6q4 7 5 14t1 12q0 17 -55 34h-85q-47 -30 -38 -59q2 -19 7 -33t9 -20q-12 -12 -23 -22t-22 -22q-7 12 -11 27.5t-4 32.5v15q-8 39 89 131h159l-22 -51
q31 -20 23 -35q-3 -9 -6.5 -16t-4.5 -13q46 -14 82 -35t66 -49q-3 47 -6 73q-15 55 -53 76q5 14 10 25.5t11 23.5q17 0 34 1q-7 3 -11 7q-1 2 -5 3q-1 2 -1.5 3.5t-0.5 2.5q0 50 -14 164q-18 69 -60 69h-101q5 -78 5 -192v-52q-47 35 -94.5 56.5t-91.5 31.5q-65 13 -112 13
q-10 0 -21 -1.5t-23 -3.5q18 56 36 93.5t33 54.5h-61l42 63h539l-39 -63v-231q0 -14 -9 -18h25l-12 -50v-171q0 -3 -1 -5t-1 -4h-3l9 -5v-168zM-424 16q-30 -11 -53 -30.5t-37 -45.5q156 -8 246 -96q-3 66 -14.5 110.5t-34.5 61.5h-107zM-52 -500q-12 -12 -24.5 -22.5
t-24.5 -22.5l26 -8q10 -4 23 -9v62zM-34 -455q2 -3 4 -5q2 -3 4 -3h3zM-31 -233q-3 -1 -7 -1q-3 0 -4 1h11z" />
    <glyph glyph-name="afii59709" unicode="&#xe1d;" horiz-adv-x="25" 
d="M-66 -199l-2 30q-11 73 -25 117.5t-32 51.5h-92q2 -68 2.5 -116t0.5 -82v-23l-1 -30q0 -11 -14 -11q-18 0 -18 11q-3 53 -5 88t-5 50q-17 91 -62 113h-72q1 -10 1.5 -19t0.5 -18q0 -25 -6 -45q-6 -19 -16.5 -32t-26.5 -20q-19 -14 -31.5 -21t-17.5 -12q-19 -15 -35 -57
q-18 49 -18 75q0 24 12 36q41 22 70 48q6 5 12.5 21t13.5 44h-98l22 79h519l-31 -72v-270q-3 -43 -33 -79q-55 -49 -127 -49q-22 0 -46 6q-36 5 -73 23q-54 25 -88.5 38t-54.5 16q-10 2 -19 2q-13 0 -22 -2t-19 -6q23 -18 47 -42t48 -50q13 -16 34 -29.5t49 -22.5
q25 -8 45.5 -12.5t32.5 -5.5q6 -3 13 -3h15q49 0 86 9t62 27q52 36 135 165q9 12 20 9q10 -11 0 -31q-55 -120 -132.5 -185.5t-172.5 -65.5q-9 0 -18 0.5t-19 0.5q-42 5 -76 14t-57 25q-8 6 -20 18t-29 27q-13 23 -26.5 44t-24.5 38q-15 22 -32 41t-34 32q38 46 98 46
q14 0 27 -1q30 -5 61 -21q93 -45 130 -50l22 -5q20 -5 40 -5t38.5 5t36.5 14t28 30.5t10 52.5q0 10 -0.5 20t-2.5 21z" />
    <glyph glyph-name="afii59710" unicode="&#xe1e;" horiz-adv-x="25" 
d="M-20 -4v-248q0 -53 -34 -90q-56 -49 -126 -49q-23 0 -46 6q-37 5 -74 23q-54 25 -89 38t-54 16q-11 2 -20 2q-12 0 -21.5 -2t-18.5 -6q24 -18 47.5 -42t46.5 -50q14 -16 35.5 -29.5t48.5 -22.5q26 -8 46.5 -12.5t31.5 -5.5q6 -3 13 -3h14q50 0 87 9t62 27q27 19 60 60.5
t75 104.5q7 13 20 9q8 -13 1 -31q-113 -251 -306 -251q-19 0 -37 1q-42 5 -76 15.5t-56 23.5q-8 6 -21 18.5t-31 29.5q-13 21 -25.5 41.5t-23.5 37.5q-15 23 -31.5 41.5t-34.5 31.5q37 46 97 46q14 0 28 -1q30 -5 60 -21q96 -45 131 -50l21 -5q21 -5 40 -5q41 0 77 19h-3
q40 20 44 83q-3 39 -14 154q-19 90 -62 90h-106q4 -64 4.5 -143t0.5 -173q-93 88 -188 113q-67 17 -115 17q-11 0 -22.5 -2t-23.5 -4q38 145 71 192h-64l46 80h552zM-434 -1q-34 -16 -58 -41.5t-37 -58.5q80 -6 143.5 -36t111.5 -87q-3 39 -6.5 75t-11 65.5t-16 50.5
t-18.5 32h-108z" />
    <glyph glyph-name="afii59711" unicode="&#xe1f;" horiz-adv-x="25" 
d="M-10 0h-218q0 -22 -1 -48t-5 -55q41 60 122 60q161 0 161 -154q-1 -98 -69 -138v-11q0 -50 -33 -88q-27 -26 -59.5 -38.5t-68.5 -12.5q-11 0 -22.5 1.5t-22.5 3.5q-18 4 -36 9t-37 16v-2q-53 25 -88 38t-52 18q-13 1 -22 1q-20 0 -41 -7q23 -19 47 -43t48 -50
q29 -34 83 -51q29 -9 47.5 -14t30.5 -6q7 0 16.5 -0.5t17.5 -0.5q48 0 82.5 9t59.5 25q50 36 135 164q8 12 20 12q10 -14 0 -32q-27 -60 -61 -106t-72 -79t-81.5 -50t-90.5 -17q-9 0 -18 1t-19 3q-42 5 -76 14t-57 23q-6 4 -18.5 16t-30.5 32l-5 6q-13 18 -24 36.5t-22 35.5
q-15 24 -32 42.5t-34 30.5q38 48 96 48q8 0 15 -0.5t14 -2.5q30 -4 61 -19q48 -24 80 -37.5t50 -14.5l22 -5q10 -2 20.5 -3.5t19.5 -1.5q40 0 75 20q33 18 38 70q-24 -6 -49 -7q-46 -2 -80.5 21.5t-61.5 69.5q-22 -46 -58 -69.5t-84 -21.5q-150 5 -150 166q0 141 154 150
q80 5 120 -70q-10 66 -50 113h-198l42 82h446l-13 37l61 109q22 -10 46 -14.5t48 -4.5h25l10 1q-5 -35 -43 -71q6 -1 4.5 -3t-20.5 -4h-7q-24 0 -59 13l-18 -26q5 -11 11 -24q3 -6 5 -13h18zM-114 -122q-110 0 -116 -69q6 -37 34.5 -59t81.5 -24q60 0 90.5 20t37.5 58
q-7 35 -39.5 53.5t-88.5 20.5zM-282 -188q-7 30 -38.5 47t-83.5 19q-46 -10 -73.5 -28.5t-34.5 -45.5q4 -34 33 -54.5t79 -23.5q50 5 81.5 27.5t36.5 58.5z" />
    <glyph glyph-name="afii59712" unicode="&#xe20;" horiz-adv-x="25" 
d="M-53 -420q-5 -6 -9 -11q-48 -45 -111 -45q-23 0 -41 4q-14 2 -31 8t-32 15q-45 22 -76.5 35t-48.5 16q-11 2 -19 2q-10 0 -17.5 -2.5t-15.5 -5.5q22 -18 42.5 -41t38.5 -47q27 -31 74 -48q48 -16 69 -19q6 -1 13 -1h14q41 0 72 9t55 24q22 18 52 58.5t65 96.5q2 7 7 10
t11 1q7 -13 1 -30q-98 -238 -269 -238q-14 0 -32 3q-76 6 -115 33q-8 6 -18.5 17.5t-25.5 29.5q-24 40 -43 76q-27 46 -60 69q34 45 88 45q11 0 24 -2q23 -4 51 -21q41 -21 70.5 -34t43.5 -14q5 -1 11 -2.5t11 -2.5q17 -2 32 -2q34 0 66 16q14 8 22 18q0 6 8 16
q24 67 24 101q0 32 -19 73q-19 37 -57 60q-39 22 -74 22q-69 0 -93 -28q-9 -13 -9 -24q0 -22 24 -50q17 -11 51 -11h8q6 1 15 1.5t15 0.5q-11 -27 -24.5 -52t-28.5 -49q-56 -3 -92 24q-37 29 -40 83q0 63 45 106q21 21 50 35t63 21q15 3 30 4.5t28 1.5q30 0 52 -8q1 13 1 26
q0 9 -12.5 18t-35.5 22h-204q-30 -7 -49 -21.5t-26 -35.5v-18q0 -31 25 -68q-15 -20 -30.5 -39.5t-34.5 -39.5q-11 15 -21 36t-14 44q-5 15 -6.5 27t-1.5 20q3 12 4.5 21.5t3.5 15.5q37 91 185 139l312 2l-37 -76q6 -11 9 -21t3 -17q0 -20 -31 -57q32 -21 52 -48t32 -59
q1 -4 1 -10v-12q0 -68 -42 -144q-1 -5 -5 -10q-8 -22 -23 -42z" />
    <glyph glyph-name="afii59713" unicode="&#xe21;" horiz-adv-x="25" 
d="M-460 77h455l-21 -77l-122 -294q0 -6 -7 -11q-1 -5 -7 -5q-24 0 -20 21l32 107q-10 10 -33 23.5t-56 26.5q-19 8 -39.5 11t-37.5 3q-24 0 -44 -5t-38 -15q-11 -28 -11 -53q0 -15 5.5 -31.5t13.5 -31.5q18 -28 38 -54.5t42 -50.5q4 -11 0 -19l-1 -1v-1q-3 -3 -5 -4
q-3 -4 -7.5 1t-12.5 13q-40 18 -92 75q-54 56 -58 125q-1 56 36 86.5t107 34.5q3 1 8 1h10q127 0 186 -89q7 35 16 68t16 69h-385zM-133 -293q33 13 43 -18q1 -8 2.5 -16t1.5 -15q0 -47 -33 -84q-29 -23 -60 -34.5t-67 -11.5q-23 0 -48 4q-37 5 -78 26q-30 21 -57.5 33.5
t-44.5 14.5q-12 3 -22 3q-21 0 -39 -9q23 -16 47 -39.5t46 -47.5q32 -33 68 -51q37 -15 58 -16h33q96 0 146 34q25 17 60 55.5t77 97.5q4 5 8 7t10 1q10 -13 2 -26q-27 -57 -61.5 -101t-73.5 -75t-82.5 -47t-91.5 -16q-17 0 -37 4q-52 7 -96 33q-9 5 -22 16.5t-30 30.5
q-13 20 -25.5 39t-22.5 35q-35 45 -70 70q39 43 98 43q8 0 15 -0.5t15 -2.5q31 -3 63 -18q59 -44 93 -50q4 0 10 -1t11 -2q22 -4 42 -4q21 0 39.5 5t33.5 13q21 11 30.5 31t9.5 50q0 8 -0.5 17t-1.5 17z" />
    <glyph glyph-name="afii59714" unicode="&#xe22;" horiz-adv-x="25" 
d="M-78 -299q35 15 44 -15q4 -16 4 -32q0 -44 -34 -76q-55 -44 -123 -44q-23 0 -47 3q-37 5 -74 20q-51 23 -85.5 35t-54.5 14q-15 3 -31.5 1t-28.5 -7q26 -15 48.5 -36.5t44.5 -44.5q15 -15 35.5 -26t48.5 -20q26 -8 45.5 -12.5t29.5 -5.5h32q94 0 145 31q49 34 132 146
q11 14 18 10q9 -14 3 -30q-111 -222 -304 -222q-17 0 -36 2q-44 4 -76 12.5t-53 20.5q-17 11 -53 45q-12 18 -24.5 36t-23.5 34v-1q-16 22 -32 38t-34 27q38 42 99 42h14q-1 4 -1 13v348l35 70h401l-22 -60q13 -17 19 -33t6 -31q1 -13 -10 -31.5t-32 -35.5q31 -23 56 -56.5
t44 -83.5q-65 19 -203 19q-68 0 -136.5 -28.5t-135.5 -83.5q-9 -5 -16 -8q3 0 7 -1q15 -2 29 -6.5t32 -11.5q92 -41 126 -46l24 -2q20 -5 39 -5q20 0 37.5 3.5t36.5 11.5q17 10 27 28.5t10 46.5q0 7 -1.5 16.5t-1.5 18.5zM-192 -149q-118 0 -210 76l1 2v3l-6 -2q1 -1 3 -2
l2 -1q-14 -72 -14 -216q66 56 145 85t174 29q27 0 44 -3q-17 30 -53 35q-10 -5 -33 -5.5t-53 -0.5zM-356 4q-28 -18 -38 -34q14 -13 36.5 -23.5t57.5 -19.5q31 -9 58 -13t50 -4q17 0 34 4q44 8 67 19.5t23 22.5q0 12 -1.5 24.5t-6.5 23.5h-280z" />
    <glyph glyph-name="afii59715" unicode="&#xe23;" horiz-adv-x="25" 
d="M-32 -252q-22 -85 -59 -137q-49 -44 -112 -44q-21 0 -41 5q-14 1 -31 7t-33 14q-44 22 -76 35t-48 16q-11 2 -18 2q-10 0 -18 -2t-14 -5q19 -18 40 -40.5t40 -47.5q13 -15 31.5 -28t42.5 -20q23 -9 39.5 -14t26.5 -6q6 0 14.5 -0.5t14.5 -0.5q41 0 73 9t53 24
q22 19 51.5 57.5t65.5 99.5q2 4 7.5 6.5t10.5 2.5q8 -12 2 -31q-100 -238 -270 -238h-16q-9 0 -16 1q-36 5 -66 15t-50 22q-16 11 -43 45q-12 23 -22.5 42t-20.5 36q-26 43 -60 68q17 23 38.5 33t47.5 10h13q7 0 13 -1q24 -3 52 -18q42 -23 70.5 -35.5t43.5 -14.5l21 -4
q18 -6 36 -6q17 0 33 5t32 14h-3q34 18 47 70h-5q5 6 9 13q4 17 6 36q0 28 -20 66q-8 21 -37 34.5t-71 22.5q-16 0 -36.5 -5t-39.5 -11q-47 -17 -66 -37q3 -23 6.5 -46.5t7.5 -46.5q1 -12 -4.5 -18t-17.5 -6q-3 0 -6 4q-6 6 -6 11q-13 33 -25 70t-25.5 74t-26.5 74t-25 71
l62 77h417l-44 -82h-357q9 -33 17.5 -65.5t15.5 -68.5q24 48 59.5 69.5t84.5 21.5q183 0 183 -162q0 -20 -3 -42h5z" />
    <glyph glyph-name="afii59716" unicode="&#xe24;" horiz-adv-x="25" 
d="M7 77l-30 -76v-327q1 -5 1 -9v-17q0 -46 -33 -81q-29 -24 -59.5 -35.5t-66.5 -11.5q-23 0 -47 5q-35 5 -72 21q-106 45 -139 52q-5 1 -10 1h-9q-11 0 -22.5 -2.5t-21.5 -5.5q26 -17 48.5 -39t46.5 -48q29 -31 83 -46q26 -8 45 -13t29 -7h30q99 0 149 34q27 17 59 55.5
t74 96.5q9 12 18 9q6 -7 6 -14.5t-2 -14.5q-30 -56 -62.5 -99.5t-72 -73t-82.5 -45.5t-90 -16q-17 0 -35 4q-89 8 -131 33q-17 11 -50 47q-15 19 -26 37t-22 35q-16 22 -34 39t-35 29q38 42 98 42q12 0 27 -1q29 -3 61 -19q46 -20 79 -32t50 -15l21 -3q11 -3 20 -4t19 -1
q20 0 39.5 4t35.5 13q24 13 38 42q6 15 9 33q-133 81 -263 81q-136 0 -201 -22q37 124 97 170q-20 18 -30 38.5t-10 41.5q2 20 21 48t57 67h395zM-60 -298q0 74 -2.5 128t-8.5 92q-96 -78 -212 -78q-65 0 -89 7q-18 -2 -33.5 -11t-26.5 -25q11 3 26 3.5t27 0.5h26
q135 0 293 -117zM-401 1q-9 -13 -8 -42q2 -29 92 -50q13 -5 34 -5q23 0 50 5t58 13q67 20 95 47q-6 8 -16 16t-23 16h-282z" />
    <glyph glyph-name="afii59717" unicode="&#xe25;" horiz-adv-x="25" 
d="M7 76l-35 -87h-328q-20 -7 -35.5 -16t-23.5 -17q-18 -18 -34 -84q42 9 91 9q244 0 287 -163q0 -6 1 -12q4 -5 6 -11q2 -9 2 -17v-15q0 -48 -34 -87q-53 -45 -122 -45q-23 0 -48 5q-34 4 -74 22q-50 21 -85.5 34t-53.5 17q-6 1 -11 1h-8q-13 0 -22 -2t-19 -4
q23 -19 47 -41.5t46 -47.5q30 -29 82 -48q28 -7 46.5 -12t29.5 -6q8 -2 17 -2h15q95 0 144 35q52 36 132 154q10 11 21 10q8 -13 2 -30q-113 -236 -305 -236q-9 0 -18 0.5t-19 0.5q-42 5 -74.5 14t-53.5 22q-7 6 -20.5 16.5t-31.5 28.5q-13 21 -25 39.5t-23 35.5
q-15 21 -32 39t-34 29q37 43 95 43h15q8 0 14 -1q27 -3 60 -19q47 -22 78.5 -33t50.5 -15l22 -6q11 0 20 -1t18 -1q21 0 39.5 4t35.5 14q37 20 37 78v13q-4 19 -10 42q-30 36 -84.5 55.5t-134.5 19.5q-85 0 -175 -24q9 184 62 215h-73l42 87h488z" />
    <glyph glyph-name="afii59718" unicode="&#xe26;" horiz-adv-x="25" 
d="M-6 74l-36 -78h-336q-48 -7 -67 -22.5t-21 -39.5q22 4 45 5.5t48 1.5q206 -11 260 -96l28 -43q5 -16 -16 -28q-11 8 -27 22q-10 7 -21 17l-31 -63h-166q-64 6 -106 -37q30 -8 53 -22.5t45 -33.5q22 33 55 52.5t73 19.5q71 0 94 -29q22 -28 20 -62q0 -16 -14 -42.5
t-46 -63.5q-3 -4 -8 -7q-38 -33 -88 -33q-16 0 -34 3q-12 2 -25 6.5t-26 11.5q-36 17 -63 28t-39 13q-11 2 -21 0l-20 -4q20 -16 35 -33t33 -37q8 -13 23.5 -23t34.5 -16q42 -13 54 -13q8 -3 16 -3h12q65 0 97 27q21 14 45.5 45t54.5 81v-2q6 11 15 9q5 -11 0 -24
q-80 -192 -222 -192q-6 0 -13.5 0.5t-12.5 1.5q-29 4 -53 11.5t-39 18.5q-12 6 -38 34q-10 19 -18.5 33.5t-17.5 28.5h3q-24 34 -52 55q28 36 71 36q10 0 20 -3q22 -3 46 -16q65 -35 92 -38q4 0 8 -0.5t8 -0.5q16 -5 32 -5q26 0 45 12q11 5 19 11q23 46 23 62q3 50 -71 50
q-26 0 -49.5 -7t-40.5 -21q12 -20 18.5 -33.5t7.5 -24.5q5 -17 -9 -23q-7 -3 -16 10q-67 87 -193 87q22 74 73 102h-78l42 77h327q-17 15 -58 25t-106 10q-7 0 -12.5 -0.5t-12.5 -0.5q-43 0 -86 -5.5t-90 -17.5q5 67 17 106t36 52h-64l46 78h488z" />
    <glyph glyph-name="afii59719" unicode="&#xe27;" horiz-adv-x="25" 
d="M-32 -6h-176q2 -12 2 -32v-14q0 -8 -2 -18q116 -64 137 -144v2q12 -33 18 -64.5t6 -63.5v-10q0 -4 -1 -11q0 -12 -5 -19q-1 -3 -1 -4q-8 -26 -28 -49q-28 -25 -59 -36.5t-67 -11.5q-22 0 -48 5q-18 2 -36.5 7t-35.5 14q-55 24 -89.5 39t-51.5 18q-5 0 -9 1t-9 1
q-24 0 -43 -10q22 -20 47 -43t46 -49q31 -35 84 -52q53 -16 76 -20h33q95 0 144 35q53 38 134 163q10 14 20 11q11 -13 4 -33q-113 -250 -308 -250q-18 0 -37 3q-43 5 -75.5 15t-55.5 24q-8 4 -22 17t-29 31q-13 21 -26 40.5t-23 38.5q-16 23 -33 41.5t-36 31.5
q39 46 100 46q15 0 26 -2q13 -3 29 -7.5t32 -13.5q48 -22 80 -35t49 -17l24 -2q11 -4 20.5 -4.5t18.5 -0.5q20 0 39 5t36 13q38 24 38 84v8q-8 39 -21 68q-22 45 -44 62q-21 -58 -68.5 -90t-118.5 -40q-79 4 -120.5 40.5t-48.5 99.5q2 21 12 45.5t32 46.5q51 48 141 48
q48 0 79 -7q-6 32 -48 49h-205l35 80h471zM-191 -164q-66 43 -170 43q-52 -12 -81.5 -29t-36.5 -38q13 -59 131 -59q97 -4 157 83z" />
    <glyph glyph-name="afii59720" unicode="&#xe28;" horiz-adv-x="25" 
d="M-23 0v-348q0 -4 -2 -6q-3 -40 -33 -70q-27 -24 -59 -36t-68 -12q-21 0 -44 4q-34 7 -73 25v-1q-104 44 -141 50q-6 3 -11 3h-10q-11 0 -20.5 -1.5t-18.5 -5.5q23 -17 47.5 -41t46.5 -47q30 -32 83 -49q54 -18 76 -19h32q96 0 144 34q26 17 60 56.5t74 98.5q8 11 19 9
q10 -12 1 -29q-27 -57 -60.5 -101t-72 -75t-81 -47t-90.5 -16q-9 0 -18 0.5t-18 0.5q-44 5 -77 14.5t-54 21.5q-7 5 -20 17.5t-32 29.5q-14 22 -25.5 40.5t-22.5 33.5q-15 22 -32 40.5t-34 30.5q39 43 94 43q8 0 16 -0.5t14 -1.5q27 -4 60 -19q47 -22 79 -34.5t50 -14.5
l21 -4q11 -1 20.5 -3t17.5 -2q21 0 41 5t37 14q23 14 36 40q6 14 11 30q-154 145 -308 145h-23q-31 -1 -63.5 -6t-65.5 -11q3 63 26.5 117.5t61.5 96.5h-73l37 77h259l-36 -77h-101q-38 -17 -67 -48t-45 -73q21 3 41.5 4t38.5 1q43 0 74 -8q59 -9 119.5 -50t125.5 -120v88
q0 146 -81 207l34 76h122z" />
    <glyph glyph-name="afii59721" unicode="&#xe29;" horiz-adv-x="25" 
d="M-22 5v-197h8l-38 -73h-258q-43 -15 -80 -46q29 -9 52.5 -22.5t42.5 -31.5q21 33 56.5 50t83.5 17q70 0 102 -38q9 -12 12 -24.5t0 -24.5q-2 -22 -50 -83l-1 -1l-8 -11q-40 -37 -92 -37q-16 0 -31 3q-11 2 -25 6.5t-26 10.5q-34 17 -60.5 28t-39.5 12q-11 3 -19.5 1.5
t-18.5 -5.5q16 -14 31.5 -31t32.5 -36q11 -12 24.5 -21.5t31.5 -15.5q21 -6 34 -9.5t22 -6.5h21q30 0 56 7.5t45 19.5q18 12 42 43t52 77v-3q2 9 6 10t9 0q5 -10 0 -23q-79 -185 -213 -185q-6 0 -13.5 0.5t-14.5 3.5q-60 5 -91 26q-11 7 -35 35q-11 17 -19.5 31.5
t-14.5 26.5q-21 32 -48 54q27 36 69 36q11 0 20 -4q9 -1 19.5 -4t21.5 -9q67 -35 91 -40q4 -1 8 -1t8 -1q8 -1 14 -3t15 -2q12 0 23 3.5t22 8.5q15 10 24 19q9 17 13 29q6 14 6 24q0 41 -73 41q-68 0 -104 -27q14 -13 25 -56q6 -16 -5 -24q-12 -1 -19 11q-67 84 -188 83
q10 38 29 65t45 44h-78l41 73h365q-141 62 -327 62q-60 0 -113 -13q4 91 56 150h-56l30 66h479zM-343 7q-36 -6 -60 -22t-40 -44h17q208 0 367 -95q-6 64 -21 105.5t-36 55.5h-227z" />
    <glyph glyph-name="afii59722" unicode="&#xe2a;" horiz-adv-x="25" 
d="M-176 77l-23 -77h-79q1 -11 2.5 -26t1.5 -33q0 -1 -1 -2t-1 -3v-2q52 -29 106 -83.5t116 -143.5q-5 273 -73 298l26 72h108l-30 -76v-326q1 -5 1 -7v-18q0 -46 -33 -84q-55 -47 -126 -47q-12 0 -23 1t-24 4q-35 6 -72 21q-106 46 -139 53q-5 1 -10 1h-9q-11 0 -22.5 -2.5
t-21.5 -5.5q26 -18 48.5 -39.5t46.5 -48.5q29 -31 83 -48q26 -9 45 -13t29 -6q9 -1 17 -1h16q98 0 146 35q27 16 59 54.5t74 99.5q9 12 18 9q11 -11 4 -28q-30 -57 -62.5 -102t-72 -74.5t-82.5 -46t-90 -16.5q-17 0 -35 3q-89 8 -131 37q-7 2 -20 14t-30 30q-15 21 -26 39.5
t-22 35.5q-16 21 -34 39t-35 30q39 44 99 44q13 0 26 -2q15 -3 29 -6.5t32 -12.5q46 -21 79 -33t50 -16l21 -5q21 -2 40 -2q20 0 39 4t35 13q36 20 47 69q-7 10 -14 16q-9 11 -13 17q-3 0 -3 1q-43 53 -75 86.5t-50 46.5q-73 -116 -175 -113q-149 0 -156 119q15 126 154 131
h26q11 0 15 -4q9 0 17.5 -0.5t16.5 -1.5q-16 35 -45 55h-147l22 77h310zM-391 -119q-112 -3 -117 -61q3 -49 117 -48q48 2 84 16.5t62 45.5q-66 50 -146 47z" />
    <glyph glyph-name="afii59723" unicode="&#xe2b;" horiz-adv-x="25" 
d="M-23 -4q0 -75 0.5 -150t2.5 -151q0 -5 -2 -8q0 -3 2 -4v-18q0 -49 -34 -87q-54 -50 -126 -50q-11 0 -23 1.5t-23 2.5q-37 5 -74 24q-53 24 -88.5 37t-54.5 18q-15 0 -31.5 -1t-28.5 -6q24 -19 47.5 -43t46.5 -51q30 -32 84 -49q27 -9 46 -14.5t32 -5.5q6 -1 14 -1h16
q47 0 84 9t62 27q27 18 60 60t75 103q7 14 20 9q11 -12 1 -31q-113 -251 -306 -251q-18 0 -37 3q-44 6 -77 14.5t-55 23.5q-8 5 -20 17t-29 31q-3 1 -4 3.5t-3 3.5q-12 20 -23.5 38.5t-21.5 33.5q-15 24 -31.5 42t-34.5 30q37 47 97 47h14q7 0 14 -1q14 -2 29 -7.5t31 -12.5
q47 -23 80.5 -36.5t50.5 -15.5l21 -4q11 -2 20 -3t19 -1q21 0 40.5 5t37.5 13q23 14 35 43q10 30 9 73v1l-23 180q-25 -21 -43 -48q-23 -30 -83 -38q-21 -5 -39 -5q-21 0 -41 3.5t-37 9.5q-16 6 -28 18t-23 29q2 -11 5.5 -26.5t9.5 -35.5q24 -24 43 -59t35 -78q1 -4 1 -5
v-13q-1 -12 -10 -13q-13 -6 -22 12v-2q-65 107 -183 107q-20 0 -41 -2.5t-45 -6.5q19 93 125 93q14 0 27 -2.5t27 -5.5q-27 47 -27 128q0 113 159 132l277 3zM-103 -32q-9 9 -21.5 17t-26.5 15h-123q-99 -6 -99 -48q0 -11 6 -24t17 -29q28 -32 109 -32q79 0 149 68
q-10 31 -11 33z" />
    <glyph glyph-name="afii59724" unicode="&#xe2c;" horiz-adv-x="25" 
d="M-76 -335q33 15 44 -18q10 -26 -33 -75q-27 -24 -58.5 -35.5t-67.5 -11.5q-19 0 -45 6q-35 5 -70 21q-52 22 -87 35t-55 18h-18q-21 0 -40 -7q21 -18 46.5 -42t44.5 -47q15 -15 36 -26.5t48 -21.5q26 -7 45.5 -12t29.5 -5q10 -1 19 -1h17q45 0 79.5 8.5t58.5 25.5
q27 17 60 56t74 97q7 12 18 9q9 -11 1 -28q-109 -236 -301 -236h-18q-10 0 -18 1q-42 4 -75 13t-54 23q-7 5 -20 15.5t-31 28.5q-14 21 -25 39.5t-23 35.5q-17 23 -33.5 40t-32.5 29q37 44 96 44q6 0 13.5 -1t13.5 -1q9 -1 16 -2q-5 4 -5 12l2 349l51 81l362 -3l-30 -69
q5 -14 10 -27t8 -26q0 -79 -25 -123q25 8 53 8q103 0 123 -88q-25 5 -45.5 6t-39.5 1q-117 0 -181 -98q-7 -17 -24 -11q-7 0 -7 13v11q0 2 2 5q13 41 33 73t43 55q5 16 7 26t4 16t3 10.5t1 6.5q-10 -16 -23 -26.5t-26 -16.5q-18 -6 -39 -9.5t-38 -3.5q-19 0 -38 3
q-28 5 -50.5 15t-33.5 22q-11 14 -21 25l-22 21q-7 -62 -14 -121t-13 -119q-1 -19 -10 -23h-4q15 -5 30 -13q94 -43 128 -48l22 -5q11 -1 20.5 -1.5t19.5 -0.5q19 0 37.5 4.5t36.5 12.5q18 10 29 24t11 34q0 5 -1 10t-3 11zM-343 -26q-4 -4 -13 -32q68 -63 146 -63
q80 0 107 31q11 14 17 26t6 23q0 41 -98 45h-120q-30 -11 -45 -30z" />
    <glyph glyph-name="afii59725" unicode="&#xe2d;" horiz-adv-x="25" 
d="M-96 -332q12 30 18 76h2q-3 26 -14 63q-17 54 -77 60q-2 1 -6 1h-7q-66 0 -109 -65q21 -29 37 -62t26 -69q3 -15 -7 -25h-8q-10 0 -16 11v-1q-23 38 -45 65.5t-41 44.5q-29 21 -62.5 31t-73.5 10h-26q-3 -1 -7 -2.5t-6 -1.5q18 82 39.5 128t47.5 63h-83l28 84h474
l-24 -84h-290q-41 -11 -70.5 -36t-46.5 -62q73 -7 126 -63q57 118 150 118q94 0 131 -68q18 -28 18 -81v-18l-2 -21q-5 -42 -27 -83l-12 -22q-14 -27 -32 -53q-48 -45 -112 -45q-21 0 -41 5q-28 6 -64 24q-90 45 -123 49q-11 3 -18 3q-17 0 -33 -9q21 -17 41.5 -40.5
t39.5 -47.5q12 -14 30.5 -26.5t42.5 -20.5q24 -9 40.5 -13.5t27.5 -4.5q9 -2 19 -2h15q77 0 119 35q45 32 118 155q7 12 19 10q7 -13 1 -30q-101 -241 -270 -241q-15 0 -33 4q-36 3 -65.5 13t-47.5 22q-9 6 -19.5 18t-26.5 28q-12 21 -22 40t-19 36v-1q-15 23 -30 40t-28 31
q14 21 35 32t47 11q14 0 26 -1q12 -4 25 -7.5t29 -12.5q42 -22 69.5 -35t42.5 -14l22 -5q10 -1 18 -1.5t18 -0.5q34 0 65 16h-1q4 2 9 6q15 20 28 39z" />
    <glyph glyph-name="afii59726" unicode="&#xe2e;" horiz-adv-x="25" 
d="M-6 74l-35 -75h-331q-48 -9 -67 -23t-21 -40q22 5 44 7t48 2q225 0 278 -78q14 -18 30 -73.5t32 -140.5q2 -18 -14 -27q-24 13 -50 90q-10 37 -22.5 62t-23.5 41q-2 3 -6 5l-32 -65h-165q-63 6 -103 -37q28 -9 51 -22t43 -32q22 32 54.5 50.5t72.5 18.5q72 0 93 -29
q22 -27 20 -61q0 -14 -14.5 -39.5t-44.5 -62.5q-1 -2 -3 -2l-3 -4q-40 -41 -91 -41q-17 0 -33 5q-12 0 -25 5t-28 12q-36 17 -61.5 27.5t-38.5 13.5q-9 1 -21 -1t-19 -4q34 -28 65 -68q11 -12 25 -22t35 -16q39 -14 51 -15h24q68 0 104 25q37 28 93 120h-1q7 14 17 10
q8 -10 1 -23q-80 -186 -215 -186h-15q-8 0 -14 1q-30 4 -53 10t-40 16q-12 9 -35 38q-11 16 -20 30.5t-16 27.5h1q-21 35 -48 54q25 35 70 35h20q9 -3 19.5 -6t23.5 -9q33 -17 55.5 -27.5t34.5 -11.5q4 -2 8 -2.5t8 -2.5q16 -3 31 -3q12 0 23.5 4t22.5 8q11 7 19 14
q25 48 25 64q4 51 -71 51q-25 0 -47.5 -7.5t-39.5 -22.5q12 -16 18.5 -30t7.5 -25q5 -18 -11 -24q-6 -2 -12 10q-70 86 -192 86q20 72 72 100h-76l39 74h327q-23 13 -57 22q-53 12 -133 12q-43 0 -85.5 -5.5t-88.5 -17.5q5 66 17.5 104t34.5 51h-63l46 75h481z" />
    <glyph glyph-name="afii59727" unicode="&#xe2f;" horiz-adv-x="25" 
d="M-73 -236h-139v-47q102 -34 120 -97q8 -9 0 -26v-15q0 -40 -26 -61q-48 -34 -103 -34q-9 0 -19.5 1t-19.5 3q-16 1 -31 5t-31 9q-19 6 -36.5 12t-33 11t-27.5 8t-19 4q-10 2 -17 2q-17 0 -31 -7q20 -11 39 -25.5t38 -30.5q13 -11 29 -19t38 -13q23 -6 38.5 -9t25.5 -5h27
q78 0 118 24q20 11 47.5 35.5t62.5 64.5q7 8 16 8q6 -5 6 -9.5t-5 -10.5q-91 -158 -250 -158q-16 0 -31 2q-37 2 -63 8.5t-45 13.5q-17 9 -39 28q-12 14 -23 28t-19 25q-14 14 -27.5 25.5t-29.5 19.5q33 29 79 29q11 0 26 -1q24 -4 49 -12q80 -30 107 -31l18 -4
q8 -1 16.5 -1.5t17.5 -0.5q45 6 59 11q29 13 29 55q0 11 -1 26l-6 6q-11 11 -31 24q-39 -73 -166 -83q-68 4 -105.5 27t-40.5 65q0 15 9 27.5t27 26.5q22 18 53 26t69 8q22 0 40 -0.5t32 -3.5q-5 25 -42 36h-180l30 63h341q13 45 -7 67q-29 38 -81 44q-50 7 -91 -48l6 -29
q5 -12 -6 -21q-2 -1 -5 -1h-2q-10 0 -16 10v-3q-14 14 -36.5 22t-56 17t-71.5 9h-23q-4 -1 -8.5 -1.5t-7.5 -0.5q17 44 38.5 73.5t47.5 41.5h-81l27 72h464l-24 -72h-284q-38 -7 -66.5 -17t-45.5 -22q36 -4 66.5 -17t54.5 -35q59 56 136 67q50 0 83 -12.5t50 -34.5
q19 -22 19 -57q0 -4 -1 -8.5t-1 -9.5q-5 -27 -22 -47zM-188 -346q-29 18 -66.5 25.5t-82.5 7.5q-48 -9 -74 -22t-32 -29q6 -15 35 -23.5t80 -8.5q87 0 140 50z" />
    <glyph glyph-name="afii59729" unicode="&#xe30;" horiz-adv-x="25" 
d="M-62 -239h-153v-39q102 -46 119 -107q10 -10 14 -54q-2 -5 -3 -10q0 -37 -25 -57q-48 -33 -104 -33q-9 0 -18 0.5t-20 3.5q-16 1 -31.5 4t-29.5 9q-19 6 -37 12.5t-34 10t-27 6.5t-17 6q-10 1 -20 1q-16 0 -31 -5q21 -12 39.5 -25.5t38.5 -33.5v2q12 -11 28.5 -19
t37.5 -14q24 -5 39.5 -8.5t24.5 -3.5h27q78 0 119 22q19 12 48 37t63 65q7 8 14 6q5 -5 5.5 -9t-4.5 -10q-91 -158 -248 -158q-16 0 -31 3q-36 2 -63 8t-47 15q-16 9 -38 27q-12 12 -23 26.5t-20 26.5q-12 12 -26 24t-29 20q32 30 78 30q13 0 25 -1q25 -3 49 -14
q80 -28 107 -31q5 0 9 -2l10 -1q10 0 18 -1.5t16 -1.5q15 0 30 3t28 9q30 13 32 51q-5 25 -17 43q-15 22 -34 36q-39 -73 -167 -84q-69 5 -105 28.5t-42 63.5q1 16 10 33.5t28 30.5q22 18 53 26.5t71 8.5q19 0 37.5 -1.5t31.5 -3.5q-4 17 -42 29h-177l27 63h386
q-164 64 -326 58q-30 0 -61.5 -3.5t-64.5 -11.5q8 132 88 140h-72l37 70h255l-35 -70h-100q-42 -1 -67.5 -4.5t-43.5 -51.5q21 2 101 -7t154.5 -27.5t138.5 -49.5v1q0 138 -81 143l36 66h119l-39 -66v-187l-8 -4zM-199 -342q-30 16 -67.5 23.5t-83.5 7.5q-45 -8 -71.5 -21.5
t-32.5 -29.5q6 -16 34.5 -24.5t78.5 -8.5q87 0 142 53z" />
    <glyph glyph-name="afii59728" unicode="&#xe31;" horiz-adv-x="25" 
d="M-41 -421q11 -11 7 -23q-2 -2 -7 -2l-2 -2q-6 0 -17 6q-5 4 -11 9l-11 -15l-20 -26q-48 -37 -107 -37q-20 0 -38 3q-15 3 -30.5 7t-30.5 10q-44 17 -74 28t-45 13q-5 1 -10 1h-9q-8 0 -15 -0.5t-14 -4.5q18 -14 39 -31t40 -37q11 -11 28.5 -20t39.5 -17q23 -6 38.5 -9.5
t24.5 -3.5q8 -3 16 -3h14q38 0 67.5 7.5t49.5 19.5q44 26 112 121q7 11 17 6q9 -7 5 -18q-100 -190 -260 -190q-14 0 -32 3q-34 3 -61 9.5t-46 17.5q-8 5 -18.5 13.5t-22.5 19.5q-24 28 -44 60q-24 34 -55 54q15 19 35 27.5t45 8.5q12 0 25 -2q23 -4 51 -15q80 -35 110 -39
l16 -2q8 -1 17.5 -3t19.5 -2q31 0 59 15q20 10 32 22q10 14 11 27q-48 26 -96 43q-70 25 -138 24q-12 2 -23 0q-29 -4 -54 -14.5t-50 -32.5q-1 27 1 46t8 30q17 27 66 36q16 1 35 1q87 0 183 -50q25 26 43 45q21 27 31 43q4 8 5 14.5t1 12.5q0 30 -22 66v-3q-39 35 -94 35
q-34 0 -77 -14q-47 -16 -65 -34q2 -24 6.5 -45t6.5 -40q3 -11 -2.5 -16.5t-16.5 -5.5q-5 0 -7 2q-6 6 -6 10q-12 32 -24.5 66t-26.5 67.5t-26.5 68t-24.5 65.5l62 72h414l-43 -76h-354q7 -32 16 -61.5t16 -63.5q23 46 58 66t85 20q192 0 192 -148v-18q0 -8 -2 -17
q-18 -47 -113 -131q47 -28 96 -69h1z" />
    <glyph glyph-name="afii59730" unicode="&#xe32;" horiz-adv-x="680" 
d="M222 -419l115 120q-45 1 -89 12q-91 28 -118 87q-12 23 -22 41t-17 28q-23 13 -39 13q67 65 102 65q32 0 102 -28q65 -27 96 -27q73 0 110 41q28 29 34 49q8 23 8 103q0 121 -52 161h-100q2 -25 2.5 -57t1.5 -74q0 -16 1.5 -34.5t1.5 -32.5q0 -23 -1.5 -46t-2.5 -41
q-101 96 -206 96q-21 1 -35 0q-16 0 -42 -9q11 48 31 97.5t46 100.5h-71l21 69h215q-14 61 -51 86h-174l21 79h458l-17 -79h-215q1 -3 1.5 -9.5t1.5 -11.5v-4q0 -4 2 -5v-56h216l-19 -70v-183q0 -112 -45 -156q-49 -51 -139 -51q-31 0 -61 8t-63 24q-20 11 -37 17t-36 10
q-10 0 -22 -4t-22 -13q30 -22 44 -43q20 -39 72.5 -61t131.5 -29q69 0 130 49.5t103 148.5q8 17 21 14q14 -7 9 -24q-73 -235 -243 -251v-193zM220 246q-29 -26 -50 -56t-35 -63q50 0 96.5 -22.5t91.5 -65.5q-4 66 -13 118t-23 89h-67zM345 -337q-9 -11 -20 -24.5t-24 -24.5
q13 -5 23 -9t21 -9v67z" />
    <glyph glyph-name="afii59731" unicode="&#xe33;" horiz-adv-x="631" 
d="M392 -359l123 127q-183 125 -319 125q-90 0 -157 -44q4 126 102 126q16 0 31 -3h-2q104 -7 193 -52q36 -19 74.5 -47.5t79.5 -67.5q-12 88 -24 141t-24 79q-62 138 -238 138q-34 0 -71 -3.5t-73 -13.5q0 149 80 254h-93l28 80h471l-29 -80h-282q-43 -29 -76.5 -72
t-52.5 -90q45 5 83 5q245 0 303 -205q11 -58 20.5 -126t17.5 -142q0 -19 -6 -20v-185zM517 -276q-11 -14 -21 -26.5t-24 -26.5q13 -3 24 -8l21 -11v72z" />
    <glyph glyph-name="afii59732" unicode="&#xe34;" horiz-adv-x="599" 
d="M372 -449l98 153q-3 13 -7 28q-11 53 -29 123q-32 138 -146 170q-38 9 -100 9h-24q-22 -2 -44.5 -4t-47.5 -6q3 61 21 114.5t52 100.5h-111l26 79h220q-6 57 -49 83h-197l26 79h481l-37 -79h-186q0 -48 -7 -83h214l-31 -79h-254q-37 -26 -67.5 -59t-48.5 -68q35 2 53 2.5
t20 0.5q46 -1 58 -4q36 -5 67.5 -15.5t59.5 -27.5q34 -26 58 -79.5t39 -134.5q14 -77 21 -130q7 -42 10 -64l31 -152zM478 -346q-10 -14 -18.5 -28t-16.5 -29q14 -5 25 -6t25 -4z" />
    <glyph glyph-name="afii59733" unicode="&#xe35;" horiz-adv-x="597" 
d="M371 -388l108 142q-9 95 -29 161q-24 82 -55 110q-64 -119 -182 -114q-150 5 -163 141q7 57 42 89t98 40q18 5 57 5q38 0 54 -4q-9 42 -29 63h-236l36 74h200q-2 32 -14 51.5t-29 30.5h-181l35 79h454l-34 -79h-198q4 -16 4 -38q0 -24 -4 -44h226l-32 -74h-166
q2 -10 2 -19v-34q0 -8 -2 -19q121 -52 151 -209q12 -71 20 -122.5t11 -85.5v-7h2l21 -194zM226 -27q88 0 148 76q-56 66 -172 66q-112 0 -117 -62q14 -80 141 -80zM488 -292q-12 -16 -21.5 -28t-20.5 -24l24 -9q13 -3 25 -8z" />
    <glyph glyph-name="afii59734" unicode="&#xe36;" horiz-adv-x="626" 
d="M501 245h-310q-20 -15 -34.5 -33.5t-23.5 -41.5h346l-27 -69h-341l-6 -38q-2 -21 -5 -48q29 8 58.5 10.5t59.5 2.5q87 0 159 -36q109 -61 148 -180q4 -7 4 -11q0 -5 -2 -6l18 -180l-165 57l109 143q-96 136 -275 133q-29 0 -67.5 -7t-81.5 -23q-2 15 -2 30v52q0 11 2 23
q0 16 1 37.5t2 38.5q4 25 15 61t31 85h-76l32 77h176q-5 22 -15 40q-12 24 -28 38h-150l37 80h325l-38 -80h-89v-43q-4 -21 -5 -34l-2 -1h179q-17 32 -17 60v12q3 3 3 8q5 35 47 72q40 35 46 67q19 -36 19 -61q0 -17 -11 -38q-14 -19 -24.5 -33t-15.5 -20q-9 -15 -15.5 -30
t-6.5 -26v-11h42zM496 -233q-11 -15 -21 -27t-20 -26q15 -6 25 -9t23 -8z" />
    <glyph glyph-name="afii59735" unicode="&#xe37;" horiz-adv-x="689" 
d="M277 -401l101 130q-11 -1 -24 -2q-73 0 -132.5 27.5t-92.5 80.5q-14 19 -24 36t-16 31l2 -1q-8 11 -17 18t-21 11q50 52 100 52q29 0 98 -27q70 -26 99 -26q36 0 62.5 10t50.5 28q14 15 23.5 34.5t12.5 41.5q2 11 2 21q0 20 -5 39t-14 37q-15 29 -36.5 45.5t-48.5 18.5
q-3 2 -7 2h-7q-33 0 -57.5 -15t-46.5 -44q41 -55 60 -123q5 -15 -8 -24q0 -1 -3 -1h-3q-11 0 -15 10q-22 34 -43.5 60.5t-38.5 42.5q-24 18 -57 28t-70 10h-22q-6 -1 -16 -1q20 77 42 140t48 113h-84l26 77h443l-19 -77h-259q-34 -21 -65.5 -64t-58.5 -105q33 -3 62.5 -17.5
t53.5 -40.5q57 111 142 111q88 0 136 -74q33 -46 33 -110q0 -35 -9 -74q-11 -25 -25 -45.5t-32 -36.5q-29 -27 -66 -41.5t-81 -14.5q-55 0 -121 34q-40 20 -70 22q-14 0 -24.5 -3t-23.5 -12q27 -34 42 -62q48 -74 197 -74q157 0 251 225q9 4 22 15q16 -10 11 -29
q-44 -134 -115 -205q-48 -45 -104 -63l6 -2l21 -194zM391 -304q-10 -14 -19.5 -26t-17.5 -30q13 -2 22.5 -6t21.5 -9z" />
    <glyph glyph-name="afii59736" unicode="&#xe38;" horiz-adv-x="639" 
d="M541 13v-309q0 -4 -1 -9l-1 -176l-157 77l115 115q-118 113 -213 120q-10 2 -17 2.5t-15 0.5q-20 0 -39 -5t-41 -14q0 85 83 90q19 0 49 -8v27q0 47 -52 83h-82q-31 -21 -46.5 -49t-15.5 -62q2 -25 9 -42t19 -31l-72 -51q-9 18 -14 41t-5 46v20q0 84 128 205h172l-24 -70
q9 -14 14 -28.5t8 -30.5v-31q-3 -13 -4 -20.5t-5 -15.5q44 -19 87 -53t88 -87q-2 52 -4.5 86t-4.5 52q-12 100 -56 127l33 71h32l-11 166v-1q-21 143 -53 151h-88q3 -49 4.5 -88.5t1.5 -69.5v-25q0 -10 -3 -20v-25q0 -11 -15 -11q-14 0 -14 11q-1 47 -4 80t-5 49
q-9 42 -23.5 67.5t-36.5 31.5h-66q1 -13 1 -29q0 -23 -3 -42q-7 -18 -17.5 -30t-25.5 -18q-17 -14 -30 -21t-18 -11q-16 -16 -29 -54q-19 45 -19 71q0 23 12 33q19 10 35.5 21t29.5 24q12 10 26 56h-94l22 80h486l-28 -71v-325h27zM509 -326q-12 -11 -24 -23.5t-22 -24.5
q10 -5 19.5 -10.5t24.5 -11.5z" />
    <glyph glyph-name="afii59737" unicode="&#xe39;" horiz-adv-x="639" 
d="M544 15v-308q0 -6 -1 -9l-3 -179l-157 77l118 119q-117 111 -213 120q-10 1 -17.5 1.5t-15.5 0.5q-36 0 -79 -21q0 88 82 95q19 0 47 -10q1 8 2 15.5t1 12.5q0 45 -54 82h-81q-62 -41 -62 -114q1 -21 7.5 -39.5t22.5 -31.5l-73 -50q-11 19 -16 40.5t-5 46.5v18
q0 85 130 207h172l-25 -69q9 -15 14 -30t7 -30q4 -13 0 -32l-4 -21q-1 -9 -2 -10q84 -42 172 -143q-2 48 -3 82.5t-4 51.5q-12 102 -55 128l33 73h29q-3 135 -19 213q-13 80 -40 99h-111q6 -29 9 -66t3 -75v-21q0 -10 -2 -20q0 -18 -1 -39.5t-1 -39.5q0 -8 -1 -13.5t-3 -7.5
q-5 -5 -25 12q-107 94 -239 94h-17q-1 -1 -7 -1h-12q24 121 66 177h-64l27 80h488l-22 -74v-318h33zM175 400q-35 -22 -64 -95q25 -6 52.5 -17t54 -27.5t52 -37.5t47.5 -43q-3 90 -15 146t-29 74h-98zM511 -326l-24 -23q-12 -13 -23 -25q12 -5 22 -10.5t22 -11.5z" />
    <glyph glyph-name="afii62841.060" unicode="&#xe3d;" horiz-adv-x="547" 
d="M277 308q-24 -14 -42 -25.5t-45 -28.5q47 0 86.5 -0.5t81.5 -2.5zM506 255l-24 -75h-462l19 75h70q35 20 67.5 38t66.5 36q-34 20 -67.5 37.5t-69.5 36.5h-63l20 77h464l-22 -77h-63q-33 -19 -63.5 -36.5t-64.5 -37.5q30 -18 62 -37.5t62 -37.5zM190 400q22 -11 41.5 -22
t39.5 -23q15 7 28.5 13.5t26 11t24 10t26.5 13.5z" />
    <glyph glyph-name="afii62841.061" unicode="&#xe3e;" horiz-adv-x="524" 
d="M23 352q0 36 16 62q15 24 46 53q14 9 30 14t32 5q15 0 25 -3q22 -3 33.5 -18t14.5 -30q0 -4 1 -12t1 -13q0 -8 1 -13t3 -9q7 17 21.5 33.5t32 28t35 17.5t35.5 6q11 0 20 -2q16 -3 30.5 -17t29 -33t27.5 -41t24.5 -45t20 -46t17.5 -42q0 -3 3.5 -10.5t3.5 -9.5
q-2 -3 -5 -4t-7 -1t-7 2t-4 2q-8 10 -13.5 20t-10.5 20q-4 6 -6.5 10.5t-6.5 8.5q-14 23 -25 42.5t-21 34.5q-9 16 -21.5 25t-29.5 15h-2q-1 0 -1 2q-10 1 -24 1q-13 0 -25 -2t-24 -8.5t-19 -16.5t-9 -23q-4 -10 -4 -15q0 -6 2 -10.5t4 -6.5q5 -8 11.5 -16t10.5 -17l7 -4v2
q4 -2 13.5 0.5t19.5 6.5t20 9.5t16 11.5q11 -9 21.5 -20t22.5 -24q-7 -12 -19.5 -24t-27 -21t-31 -13.5t-32.5 0.5q-21 6 -37 24t-25.5 38.5t-15.5 41.5t-11 34q-1 6 -8.5 21t-23.5 28q-7 9 -16.5 14.5t-19.5 5.5q-13 0 -29 -16q-12 -4 -20 -20t-12 -33q-5 -13 -5 -23
t3.5 -16t11.5 -10q22 -7 45 -7q14 0 26 1q1 -5 7.5 -12.5t11 -16t10 -16.5t9.5 -16q-16 -7 -37 -7t-42.5 5t-33.5 14q-14 5 -23.5 13.5t-15.5 19.5t-11 24.5t-8 32.5q-3 2 -4 5.5t-2 8.5z" />
    <glyph glyph-name="afii59743" unicode="&#xe3f;" horiz-adv-x="629" 
d="M559 171l-34 -76v-499q0 -17 -13 -19q-18 0 -18 19q-3 224 -14.5 348t-31.5 149h-96q2 -19 4 -47.5t2 -65.5q0 -38 -3 -87t-6 -106q0 -7 -2.5 -10.5t-8.5 -3.5q-15 0 -17 14q-5 120 -18.5 197.5t-39.5 108.5h-80q2 -14 3 -26.5t1 -19.5q0 -77 -45 -111q-56 -32 -81 -97
q-11 24 -15.5 44.5t-4.5 36.5q0 50 38 69q70 38 70 104h-108l40 78h478zM316 308q-24 -13 -42.5 -25.5t-43.5 -26.5q43 -1 83.5 -1.5t85.5 -2.5zM545 256l-25 -75h-461l20 75h70q34 21 66.5 38t66.5 36q-34 19 -67.5 38t-68.5 35h-65l21 76h464l-22 -76h-63
q-33 -19 -63.5 -36.5t-65.5 -36.5q31 -18 63 -37.5t62 -37.5zM230 402q21 -12 40.5 -22.5t39.5 -21.5q16 5 27.5 10.5t25 12t25.5 12t27 10.5z" />
    <glyph glyph-name="afii59744" unicode="&#xe40;" horiz-adv-x="663" 
d="M596 161l-25 -75q7 -56 11 -138q0 -12 0.5 -21.5t0.5 -16.5v-227q-49 49 -94 82.5t-82 52.5q-23 10 -50.5 15.5t-58.5 5.5q-14 0 -27 -1t-26 -3q12 80 33 141t53 108h-98q-55 -10 -88 -69t-37 -171q-1 -20 -1 -33v-20l-6 -86v-40q-1 -23 -2.5 -36.5t-2.5 -17.5h4v-143
q0 -23 -19 -23q-15 1 -15 23v419q0 240 121 274h409zM596 256l-25 -75h-461l20 75h71q34 21 66.5 38.5t67.5 37.5q-35 17 -68.5 35t-68.5 36h-65l21 77h465l-24 -77h-61q-34 -19 -65 -36t-64 -35q30 -19 61.5 -38.5t62.5 -38.5zM400 84q-64 -67 -95 -153q118 -4 247 -162
q-9 248 -71 315h-81zM368 308q-24 -13 -42.5 -25.5t-41.5 -26.5q43 -1 83 -2t83 -2zM284 403q18 -12 38 -23.5t41 -21.5q14 5 26 10.5t25 10.5l26 11q13 6 26 13h-182z" />
    <glyph glyph-name="afii59745" unicode="&#xe41;" horiz-adv-x="632" 
d="M518 132v-415q0 -9 -7 -14q-5 0 -16 8q-81 81 -161.5 124t-153.5 47q-31 0 -66.5 -3t-65.5 -9q8 128 88 260h-70l35 72h242l-35 -72h-93q-33 -30 -58 -68.5t-45 -86.5q46 0 82 -4.5t61 -12.5q112 -35 230 -190v88q0 108 -18 174.5t-57 100.5l33 71h113zM73 360
q0 38 15 62q13 25 44 52q28 21 65 21q13 0 23 -3q21 -5 32.5 -18.5t15.5 -30.5q0 -4 0.5 -11t0.5 -15q2 -7 2 -12.5t2 -8.5q9 19 23.5 35t31.5 27.5t35 17.5t34 6q13 0 22 -2q15 -5 30 -18t29.5 -32.5t27 -41.5t24 -45t21.5 -46.5t16 -42.5q1 -2 3.5 -9t2.5 -10
q0 -4 -4.5 -4.5t-6.5 -0.5t-5.5 2t-5.5 2q-7 11 -12.5 20.5t-12.5 18.5l-6 11q-2 5 -7 9q-11 24 -22.5 43t-22.5 35q-18 28 -52 39q-2 0 -2 1q-11 4 -24 4t-25 -3t-23 -9.5t-19 -17t-11 -22.5q-2 -10 -2 -14q0 -6 1 -10.5t4 -7.5q6 -8 11.5 -15.5t12.5 -17.5l5 -4l-1 3
q7 -3 16 -0.5t19 7t19.5 9.5t15.5 13q11 -10 21.5 -21.5t23.5 -25.5q-8 -11 -21 -22.5t-27.5 -20t-30.5 -13.5t-31 -1q-23 6 -37.5 24t-25.5 39t-16.5 41t-10.5 34q-1 6 -8.5 21.5t-23.5 27.5q-7 8 -16 14t-19 6q-14 0 -31 -14q-10 -6 -19 -21.5t-14 -33.5q-2 -14 -2 -23
q0 -10 3.5 -15.5t10.5 -10.5q21 -7 44 -7q15 0 27 2q3 -6 8 -14t11 -16t10.5 -16t7.5 -15q-6 -3 -16 -5t-21 -2q-19 0 -41.5 5.5t-33.5 11.5h1q-15 7 -24.5 15t-15 19t-10.5 24.5t-11 31.5v7q0 3 -2 8z" />
    <glyph glyph-name="afii59746" unicode="&#xe42;" horiz-adv-x="646" 
d="M368 181l-35 -76h-112q-95 -75 -121 -156q7 1 14 1h21l90 -6q14 -1 23.5 -3t18.5 -3q26 44 69.5 82t102.5 72q-12 11 -27 14l42 75h124l-30 -75v-418q0 -11 -9 -16q-4 0 -7.5 2.5t-6.5 8.5q-36 38 -75.5 69t-80 54t-82.5 37.5t-83 19.5h-51q-27 0 -53.5 -2t-51.5 -8
q4 139 85 252h-80l28 76h287zM83 357q0 40 14 64q17 25 46 51q29 21 64 21q14 0 24 -3q20 -4 31.5 -18.5t16.5 -28.5q0 -7 1 -13t1 -15q1 -6 1 -11.5t1 -9.5q10 20 23.5 35t32 27t35.5 18t36 6q9 0 19 -2q16 -4 31.5 -18t28.5 -32.5t26 -40.5t24 -45.5t21 -46.5t18 -41
q0 -5 2.5 -11.5t2.5 -8.5q-1 -5 -3.5 -5.5t-7 -0.5t-7.5 2.5t-4 2.5q-6 11 -11.5 20.5t-11.5 18.5q-4 5 -7 10l-6 10q-13 23 -24 43t-22 33q-8 14 -21.5 25t-30.5 16l-1 1q-11 4 -26 4q-11 0 -24 -3t-24.5 -10t-18.5 -17.5t-9 -21.5q-4 -9 -4 -16q0 -4 2 -8t4 -10
q4 -6 10 -14.5t13 -18.5l6 -3l-2 3q7 -3 17 -1t20 6.5t19 10t15 13.5q21 -19 45 -47q-8 -11 -21 -22t-28 -20t-31 -14t-30 0q-21 5 -37.5 23.5t-27 39t-16 41t-9.5 32.5q-1 8 -9.5 22.5t-20.5 28.5q-9 7 -18 12.5t-19 5.5q-15 0 -30 -12q-10 -6 -19.5 -22t-13.5 -35
q-4 -12 -4 -22t3.5 -15.5t12.5 -9.5q21 -8 44 -8q14 0 25 2q4 -5 9 -13t10.5 -16.5t10 -17t8.5 -13.5q-7 -5 -17 -6.5t-20 -1.5q-19 0 -40.5 5.5t-36.5 13.5h2q-14 4 -23 12.5t-15 20t-11 24.5t-11 33q-2 1 -2 5.5t-1 6.5zM514 -230q0 216 -51 293q-56 -29 -96.5 -63
t-65.5 -75q58 -27 111 -72.5t102 -111.5v29z" />
    <glyph glyph-name="afii59747" unicode="&#xe43;" horiz-adv-x="616" 
d="M59 548q3 22 39 150q26 104 90 124q6 1 11 1h7q26 0 48 -24t41 -72q2 -7 3.5 -15.5t1.5 -17.5q3 -1 3 -3v-5q0 2 1 4l2 9q0 5 1 14t3 15q40 103 93 103q11 0 18 -4q33 -9 57 -41.5t38 -86.5h-2q21 -66 31.5 -104.5t10.5 -48.5l-16 -18q-13 33 -34 79q-37 96 -114 136
q-17 9 -27 9q-23 0 -27 -33q-4 -11 -4 -20q0 -31 26 -48q4 -2 7.5 -3.5t6.5 -1.5q6 -2 10 -2q14 0 27 16l3 -4q-26 -82 -66 -85q-42 27 -45 85q-2 -25 -10 -43q-10 -22 -31 -34q-17 0 -33 17t-25 51q4 -5 10.5 -7t12.5 -2q5 0 11 1q3 0 6.5 1.5t7.5 4.5q27 17 27 54
q0 10 -3 21q-6 36 -31 36q-4 0 -11.5 -1t-16.5 -5q-39 -22 -67.5 -56t-47.5 -81q-10 -22 -18.5 -41.5t-13.5 -34.5z" />
    <glyph glyph-name="afii59748" unicode="&#xe44;" horiz-adv-x="696" 
d="M601 479q0 -28 -0.5 -59t-3.5 -61v-16q0 -27 1.5 -52t1.5 -50q1 -56 10 -109q5 -24 12 -47.5t16 -43.5l-57 -61q-6 18 -13.5 43t-14.5 49q-6 26 -10.5 52.5t-5.5 54.5q-2 6 -3 12.5t-1 15.5q-1 21 -1.5 42t-4.5 42q-2 15 -2 30v79q-14 -7 -26.5 -14.5t-27.5 -14.5v-295
l-103 -67l-144 52v308q-13 11 -23.5 15.5t-24.5 0.5q-22 -2 -37 -16v-292l-82 -38v354l110 86h138v-370q20 -5 41 -11l42 -12v332l101 61h112zM348 598q-18 2 -35 8t-33 16.5t-25.5 27t-9.5 38.5v6q0 4 2 8v-3q8 40 34 71q25 32 71 32q16 0 33 -7t31.5 -18.5t23 -27.5
t8.5 -35q0 -43 -33 -73q-28 -31 -66 -43h-1zM343 490q-51 0 -92.5 26t-67.5 67l37 49q3 -5 5 -6q1 0 2 -1.5t3 -2.5q12 -12 24 -25.5t27 -17.5q19 -9 38 -16t37 -7q14 0 32 6.5t38 16.5t36.5 21.5t27.5 22.5q10 0 10 -7q0 -4 -4 -10t-9 -13q-1 -2 -3 -5t-3 -5
q-10 -14 -23.5 -30t-30.5 -29t-36 -23t-35 -11h-13zM324 747q-17 0 -30 -6t-13 -20q1 -17 10 -29t21 -21t27 -14.5t28 -7.5q15 0 26.5 7t11.5 24q0 13 -7 26t-19 21.5t-27 14t-28 5.5z" />
    <glyph glyph-name="afii59749" unicode="&#xe45;" horiz-adv-x="710" 
d="M343 -508q-8 -23 -13 -23q-20 0 -15 30q26 37 51 76t54 77q49 74 49 116q-1 28 -6 52t-15 43q-9 21 -33 30q-29 15 -57 15q-53 0 -80 -35l1 1q-5 -13 -5 -23q0 -17 23 -35q6 -4 16.5 -7t22.5 -3h5l27 1q-16 -39 -42 -75q-44 -5 -70 16.5t-31 63.5q0 48 35 90q17 18 36 32
t44 20h-2q21 10 50 10q9 0 19 -0.5t19 -4.5q2 5 2 10v8q0 22 -10.5 39.5t-26.5 26.5h-150q-24 -9 -38 -29t-22 -50v-12q0 -21 21 -54q-10 -11 -22.5 -27t-25.5 -32q-18 24 -27 64q-3 10 -4 18t-1 14v7q2 6 3 11.5t2 10.5q22 89 140 139l220 3q-15 12 -30 23q-31 23 -67 36
t-80 13q-10 0 -26 -3t-34.5 -6t-33.5 -6.5t-27 -9.5q0 15 6.5 29.5t16 30t21 27t21.5 18.5q18 13 46 9q10 0 20.5 -2.5t19.5 -3.5q6 13 9 28.5t3 31.5q0 44 -47 65q0 1 -2.5 2t-7 2t-6.5 1h-107q-17 0 -27.5 -7.5t-18 -19t-10 -23.5t-2.5 -20q2 -20 6.5 -35t8.5 -28
q5 -9 8 -19.5t3 -23.5t-5 -29q-10 -14 -18.5 -24.5t-17.5 -19t-21 -14t-26 -9.5q5 14 6 23.5t1 19.5q0 20 -3.5 40t-7.5 38l-6 22q-3 11 -3 20q0 19 2.5 35t8.5 33q5 14 18.5 29.5t31.5 33.5t36.5 34.5t33.5 27.5h-2l3 3q1 1 6 2h195l-13 -80q11 -13 15.5 -28.5t4.5 -31.5
q0 -24 -5.5 -45t-14.5 -40q43 -10 76 -29.5t63 -53.5q4 -4 7.5 -12.5t8.5 -18.5l9 -18h-3q3 -4 4.5 -7t3.5 -5q2 -8 4.5 -13t4.5 -11q-1 7 -4.5 16.5t-6.5 19.5q-8 26 -18.5 59t-20.5 74q-11 45 -11 87q0 44 12 83q8 19 19.5 34t29.5 28q8 3 17 4t18 1q24 0 44 -11t35 -33
q0 -7 -2 -14.5t-3 -14.5q0 -9 -0.5 -17t-0.5 -13q-2 -9 -4.5 -19.5t-4.5 -17.5q-2 1 -5.5 5t-5.5 7q-6 5 -11.5 11t-15 11.5t-20.5 9t-25 3.5q-9 -10 -14 -30t-5 -45q0 -24 3 -52t8 -58q2 -19 5.5 -39.5t8 -39.5t7 -35.5t6.5 -27.5q5 -19 5 -21v-17q0 -14 -10 -14h-4v2
q-28 30 -57 57q-10 9 -20 19l-27 -47q7 -11 9.5 -21.5t2.5 -20.5q0 -37 -23 -68q23 -15 38.5 -35t27.5 -44q1 -8 2.5 -21.5t1.5 -24.5q8 -35 -38 -117t-148 -208h1zM349 602q-15 4 -33 9.5t-32.5 17t-24 27.5t-9.5 35v15q5 19 13 35.5t20 33.5q14 15 31.5 23t39.5 8
q19 0 36 -6.5t30.5 -19t21.5 -27.5t8 -32q0 -44 -29 -75q-14 -15 -31 -26t-38 -18h-3zM345 493q-24 0 -47.5 7.5t-43.5 20.5t-36.5 30t-30.5 37l40 48q8 -14 24.5 -27t34 -24.5t37 -18t36.5 -6.5q14 0 33 7t37.5 16.5t36.5 21.5t26 24q9 0 9 -9q0 -7 -5 -17t-12 -15
q-7 -11 -21.5 -27.5t-31.5 -30.5t-35.5 -23t-36.5 -14h-14zM326 753q-15 0 -26.5 -7t-11.5 -23q-1 -13 6.5 -25.5t21.5 -22.5t28.5 -16t26.5 -6q15 0 26 7t11 24q0 16 -7.5 28.5t-19.5 21.5t-26 14t-29 5z" />
    <glyph glyph-name="afii59752" unicode="&#xe48;" horiz-adv-x="927" 
d="M501 -28q-1 22 -1.5 43t-2.5 39q-3 37 -4.5 71t-2.5 63q-9 88 -28 137q-31 91 -111 97q-40 4 -76 -20q-30 -24 -52 -66q-9 -21 -20 -44.5t-18 -50.5q-5 -16 -8.5 -32.5t-7.5 -34.5q-4 -10 -5.5 -20t-4.5 -21q-5 -16 -7 -35q-1 -8 -2.5 -16t-2.5 -15q-4 -16 -6.5 -32.5
t-4.5 -35.5l-63 -30q0 36 2 72.5t8 66.5q4 33 9.5 64.5t13.5 57.5v-2q36 130 100.5 192.5t151.5 59.5q109 -9 164.5 -136.5t54.5 -374.5q-19 -11 -38 -11q-9 0 -18 3.5t-20 9.5v1zM424 -25q-1 55 -3.5 96t-5.5 74q-2 34 -6 59.5t-8 46.5q-3 19 -8.5 33t-14.5 22
q-12 16 -32 20h1q-28 5 -48 -22q-10 -10 -18.5 -29t-14.5 -41q-2 -6 -3 -11t-2 -9q-4 -18 -8.5 -40t-7.5 -47q-3 -18 -5 -35t-5 -34q-2 -16 -4 -30t-4 -30l-35 -28q3 58 7.5 112.5t12.5 96.5q18 99 52.5 149.5t82.5 46.5q124 -10 123 -401q-12 -12 -22 -12q-12 0 -23 12z
M371 620q-20 2 -38.5 8t-33.5 17t-23.5 27t-8.5 36v14q5 21 13.5 38t21.5 34q26 28 71 28q18 0 34.5 -5.5t31 -16.5t23 -26.5t8.5 -35.5q0 -22 -8 -40.5t-24 -34.5q-14 -13 -31 -25.5t-35 -17.5h-1zM731 283q-16 0 -33.5 6.5t-32 17t-25 25.5t-10.5 35q0 6 0.5 9.5t1.5 7.5
q4 19 12 36.5t22 33.5q25 31 70 31q20 0 36.5 -7t30 -18t21.5 -27t8 -33q0 -44 -31 -76q-28 -30 -69 -41h-1zM731 -38q-17 3 -34.5 8.5t-31.5 16.5t-24.5 26t-10.5 37q0 9 2 14q9 41 34 70q25 30 70 30q20 0 36.5 -6t30 -16.5t21.5 -26t8 -35.5q0 -43 -31 -75
q-28 -31 -69 -43h-1zM311 260q3 1 7.5 3t6.5 2q4 1 7 2t7 2q6 1 9.5 1.5t7.5 0.5q1 2 5.5 3.5t5.5 1.5v-292q-20 -22 -33 -22q-20 0 -21 24zM709 182q-33 0 -67 15.5t-61 36.5l53 42q15 -8 27 -16.5t24 -13.5q10 -6 24 -9.5t25 -3.5q14 0 32 6.5t35 17.5t31 23.5t23 23.5
q8 0 8 -9q0 -10 -12.5 -24.5t-29 -29t-34.5 -26t-26 -15.5h1q-14 -8 -28 -13t-25 -5zM343 523q-18 0 -34.5 3.5t-33 10.5t-31.5 16t-26 18l52 42q13 -5 26.5 -12.5t24.5 -13.5q8 -6 21.5 -10t28.5 -4q12 -2 26 3.5t28.5 14t28 19t24.5 20.5q3 2 7.5 6.5t8.5 5.5q6 -2 6 -7
q0 -12 -14 -25t-29 -28q-9 -7 -17.5 -13.5t-16.5 -13t-15 -10.5t-10 -8q-14 -4 -27.5 -9t-27.5 -5zM709 431q-16 0 -27.5 -5.5t-11.5 -22.5q0 -13 8 -25.5t20 -22.5t27 -16.5t26 -6.5q15 0 27.5 7t12.5 25q0 14 -7 26.5t-19.5 21.5t-28 14t-27.5 5zM709 115
q-16 0 -27.5 -7.5t-11.5 -26.5q0 -12 8 -23t20 -21t27 -16.5t26 -6.5q15 0 27.5 7t12.5 25q-1 13 -8.5 25.5t-18.5 21.5t-26 14.5t-29 7.5zM343 769q-14 0 -26.5 -4.5t-12.5 -23.5q0 -13 9.5 -25.5t21.5 -22t26.5 -15.5t25.5 -6q16 0 28 6t12 24q0 14 -8 26.5t-19.5 22
t-27 14t-29.5 4.5z" />
    <glyph glyph-name="afii59753" unicode="&#xe49;" horiz-adv-x="927" 
d="M501 -28q-1 22 -1.5 43t-2.5 39q-3 37 -4.5 71t-2.5 63q-9 88 -28 137q-31 91 -111 97q-40 4 -76 -20q-30 -24 -52 -66q-9 -21 -20 -44.5t-18 -50.5q-5 -16 -8.5 -32.5t-7.5 -34.5q-4 -10 -5.5 -20t-4.5 -21q-5 -16 -7 -35q-1 -8 -2.5 -16t-2.5 -15q-4 -16 -6.5 -32.5
t-4.5 -35.5l-63 -30q0 36 2 72.5t8 66.5q4 33 9.5 64.5t13.5 57.5v-2q36 130 100.5 192.5t151.5 59.5q109 -9 164.5 -136.5t54.5 -374.5q-19 -11 -38 -11q-9 0 -18 3.5t-20 9.5v1zM371 620q-20 2 -38.5 8t-33.5 17t-23.5 27t-8.5 36v14q5 21 13.5 38t21.5 34q26 28 71 28
q18 0 34.5 -5.5t31 -16.5t23 -26.5t8.5 -35.5q0 -22 -8 -40.5t-24 -34.5q-14 -13 -31 -25.5t-35 -17.5h-1zM731 283q-16 0 -33.5 6.5t-32 17t-25 25.5t-10.5 35q0 6 0.5 9.5t1.5 7.5q4 19 12 36.5t22 33.5q25 31 70 31q20 0 36.5 -7t30 -18t21.5 -27t8 -33q0 -44 -31 -76
q-28 -30 -69 -41h-1zM731 -38q-17 3 -34.5 8.5t-31.5 16.5t-24.5 26t-10.5 37q0 9 2 14q9 41 34 70q25 30 70 30q20 0 36.5 -6t30 -16.5t21.5 -26t8 -35.5q0 -43 -31 -75q-28 -31 -69 -43h-1zM311 305l7 2q5 2 7 2q9 2 18 5q4 1 9.5 2t14.5 2v-334q-20 -22 -33 -22
q-20 0 -21 24zM709 182q-33 0 -67 15.5t-61 36.5l53 42q15 -8 27 -16.5t24 -13.5q10 -6 24 -9.5t25 -3.5q14 0 32 6.5t35 17.5t31 23.5t23 23.5q8 0 8 -9q0 -10 -12.5 -24.5t-29 -29t-34.5 -26t-26 -15.5h1q-14 -8 -28 -13t-25 -5zM343 523q-18 0 -34.5 3.5t-33 10.5
t-31.5 16t-26 18l52 42q13 -5 26.5 -12.5t24.5 -13.5q8 -6 21.5 -10t28.5 -4q12 -2 26 3.5t28.5 14t28 19t24.5 20.5q3 2 7.5 6.5t8.5 5.5q6 -2 6 -7q0 -12 -14 -25t-29 -28q-9 -7 -17.5 -13.5t-16.5 -13t-15 -10.5t-10 -8q-14 -4 -27.5 -9t-27.5 -5zM709 431
q-16 0 -27.5 -5.5t-11.5 -22.5q0 -13 8 -25.5t20 -22.5t27 -16.5t26 -6.5q15 0 27.5 7t12.5 25q0 14 -7 26.5t-19.5 21.5t-28 14t-27.5 5zM709 115q-16 0 -27.5 -7.5t-11.5 -26.5q0 -12 8 -23t20 -21t27 -16.5t26 -6.5q15 0 27.5 7t12.5 25q-1 13 -8.5 25.5t-18.5 21.5
t-26 14.5t-29 7.5zM343 769q-14 0 -26.5 -4.5t-12.5 -23.5q0 -13 9.5 -25.5t21.5 -22t26.5 -15.5t25.5 -6q16 0 28 6t12 24q0 14 -8 26.5t-19.5 22t-27 14t-29.5 4.5z" />
    <glyph glyph-name="afii59754" unicode="&#xe4a;" horiz-adv-x="672" 
d="M313 410q10 0 19 -0.5t19 -2.5q-16 31 -24 57t-9 46q-2 20 0 38t11 33v-4q16 30 37 47q10 2 19.5 8.5t13.5 11.5q5 2 7.5 4t6.5 4q14 5 27 8.5t26 7.5q19 6 34 10l25 8q17 6 44 22.5t67 43.5l-14 -51q-5 -52 -107 -87q-50 -19 -80 -36t-40 -34q-12 -16 -17 -32t-2 -35
q0 -15 3 -33l8 -37q3 -19 8 -42.5t14 -50.5q-13 11 -25 16t-22 8q-51 -8 -81 -25.5t-39 -47.5q-21 -57 -27 -288q-4 -230 -12 -279q-7 -45 -21 -94t-33 -91q-17 -43 -42 -88.5t-55 -85.5l-4 44q41 64 66 138v-2q13 41 20.5 78.5t12.5 76.5q1 19 1.5 67.5t0.5 128.5v279
q0 30 2.5 55t6.5 50q4 24 11 45.5t18 41.5q23 36 60 56q29 13 66 13z" />
    <glyph glyph-name="afii59755" unicode="&#xe4b;" horiz-adv-x="608" 
d="M535 479l-40 -77h-170v-32q0 -47 -14 -94q83 -24 140.5 -95.5t92.5 -190.5q1 -9 1 -13q-1 -1 -1 -2.5t-1 -3.5q-2 -3 -2 -4q-15 -8 -23 9q-115 222 -275 233h-18q-98 0 -189 -65q12 89 96 127q9 5 28.5 8.5t46.5 4.5q16 1 27.5 1.5t21.5 0.5q9 0 14.5 -0.5t7.5 -0.5v14
q0 28 -11 55t-32 48h-188l38 77h450z" />
    <glyph glyph-name="afii59756" unicode="&#xe4c;" horiz-adv-x="672" 
d="M355 511q-1 -21 -8.5 -47t-23.5 -57q8 2 18 2.5t18 0.5q37 0 66 -13q38 -20 59 -56q24 -40 31 -87q6 -47 6 -105v-229q0 -99 0.5 -162t4.5 -84q4 -38 12 -78.5t20 -76.5v2q12 -36 28 -70.5t38 -67.5l-5 -44q-31 40 -55.5 85.5t-41.5 88.5q-16 42 -30 91t-22 94
q-6 25 -8.5 93.5t-5.5 185.5q-3 114 -9 186.5t-15 101.5q-11 32 -41 48.5t-81 24.5q-9 -3 -23 -8t-27 -16q9 27 13.5 43.5t8.5 31.5q1 5 1.5 10t1.5 8l7 37q4 18 5 33q1 34 -20 67q-22 32 -121 70q-100 35 -107 87q-2 9 -5.5 24t-7.5 27q39 -27 67.5 -43.5t44.5 -22.5
q8 -3 18 -6.5t24 -6.5q13 -5 31.5 -10t39.5 -11q6 -8 17 -15t24 -12q26 -19 42 -48q7 -12 10 -30t1 -36z" />
    <glyph glyph-name="afii59763" unicode="&#xe53;" horiz-adv-x="696" 
d="M404 168q73 -5 110.5 -41.5t36.5 -105.5q1 -8 1.5 -16.5t0.5 -16.5q0 -42 -14.5 -75.5t-39.5 -57.5q-32 -29 -68 -42t-78 -13q-29 0 -60 7.5t-63 25.5q-20 9 -37.5 14.5t-34.5 5.5q-12 2 -23 -1.5t-21 -12.5q14 -17 23.5 -32.5t18.5 -30.5q45 -73 197 -73q157 0 251 225
q10 6 21 16q14 -10 9 -30q-22 -66 -50 -118.5t-63.5 -87.5t-77.5 -52.5t-87 -20.5q-74 1 -133.5 28t-93.5 78l-22 36q-11 18 -15 34h1q-17 19 -39 27q50 53 102 53q28 0 96 -28q71 -25 101 -25q34 0 62 9.5t46 26.5q11 12 18 33t7 48q0 18 -1 37q-5 83 -90 99h-1q-1 1 -3 1
h-9q-49 0 -67 -3q-14 -5 -30.5 -14t-27.5 -22q8 -29 16.5 -58t17.5 -58v-13q0 -6 -7 -10q-10 -4 -15 10q-32 76 -67 156t-67 157l27 77h189q-4 51 -40 86h-187l29 80h427l-32 -80h-158v-17q0 -30 -11 -69h200l-25 -73h-350q10 -40 20.5 -75t19.5 -75q14 24 30.5 38.5
t35.5 23.5q14 7 33 11t43 4h18z" />
    <glyph glyph-name="afii59764" unicode="&#xe54;" horiz-adv-x="638" 
d="M592 479l-31 -79h-188q4 -23 6.5 -40.5t2.5 -33.5v-9h213l-24 -74q4 -29 6.5 -51t3.5 -42q1 -14 1 -23v-241q-50 51 -95 84.5t-79 51.5q-23 8 -51 13.5t-59 5.5q-17 0 -29.5 -0.5t-23.5 -2.5q11 55 33 105.5t55 94.5h-100q-54 -6 -86.5 -68t-39.5 -166q-2 -80 -4 -160.5
t-3 -160.5q0 -21 -18 -21q-15 3 -15 21v363q0 240 120 271h160q-9 31 -21 50q-15 25 -30 33h-181l29 79h448zM399 238q-28 -29 -53.5 -54t-39.5 -47q59 -2 120.5 -44t126.5 -122q-5 103 -24 169.5t-50 97.5h-80z" />
    <glyph glyph-name="afii59765" unicode="&#xe55;" horiz-adv-x="656" 
d="M561 -345q1 -30 -7 -33q-7 -3 -28 7q-93 66 -184 105t-178 53h-29q-1 0 -10 -4q-43 -4 -78 -31q17 120 103 120q16 0 36.5 -4t38.5 -10q80 -32 154.5 -78t144.5 -107q-2 89 -6 186.5t-14 212.5q-6 72 -25 109t-48 37h-80q3 -22 5.5 -37t3.5 -23v-74q0 -21 -3 -70t-6 -122
q-27 19 -45.5 32.5t-31.5 21.5q-42 25 -88.5 36t-98.5 11h-29q16 109 74 225h-75l24 78h231q-4 63 -47 105h-201l28 79h500l-23 -79h-218v-17q0 -17 -3 -40q-3 -22 -7 -48h241l-21 -77v-564zM210 218q-30 -23 -55.5 -58.5t-43.5 -83.5q124 -24 204 -110q0 88 -10.5 151.5
t-31.5 100.5h-63z" />
    <glyph glyph-name="afii59766" unicode="&#xe56;" horiz-adv-x="588" 
d="M551 480l-30 -79h-186q3 -23 5 -41.5t2 -30.5h178l-20 -78q-23 -102 -48 -205l-50 -206q-1 -6 -5 -11q-5 -4 -9 -4q-19 0 -17 22q4 35 7.5 71t7.5 74q-8 8 -24 18t-36 19q-20 5 -38.5 9t-34.5 4q-52 -3 -88 -53q-35 -45 -36 -99q-3 -57 13.5 -142.5t51.5 -204.5
q5 -10 0 -19l-2 -3h-2l-2 -4q-5 -1 -19 17q-12 35 -29.5 84.5t-36.5 116.5q-39 125 -42 174q-2 212 201 213q91 0 134 -84q8 54 15 105.5t16 106.5h-361l31 79h206q-20 58 -49 72h-198l29 79h466z" />
    <glyph glyph-name="afii59767" unicode="&#xe57;" horiz-adv-x="612" 
d="M519 -317q13 -16 5 -29q-2 -2 -6 -2h-5q-7 0 -16 11v-2q-146 147 -302 165q-14 4 -28 4q-32 0 -62.5 -10.5t-63.5 -30.5q3 33 9 55t16 35q12 14 33 23.5t48 9.5q123 0 254 -109q27 42 42 90q15 49 16 97q-6 41 -27.5 65.5t-63.5 33.5l-3 1h-9q-51 0 -67 -3
q-16 -4 -32.5 -13.5t-26.5 -21.5q9 -30 17.5 -59t14.5 -57v-14q0 -6 -6 -10q-4 -2 -8 1t-6 9q-33 76 -67.5 157t-65.5 156l24 77h190q-1 23 -11 45q-10 24 -29 42h-187l29 80h428l-31 -80h-160v-18q0 -30 -10 -69h200l-24 -73h-352q11 -40 22 -75t20 -75q12 24 28 38.5
t36 23.5q15 9 35 12t40 3h20q74 -5 110.5 -49t36.5 -127q-8 -48 -31.5 -97.5t-64.5 -102.5h2q-3 -5 -5 -8q47 -43 94 -99z" />
    <glyph glyph-name="afii59768" unicode="&#xe58;" horiz-adv-x="612" 
d="M550 480l-31 -79h-155q7 -39 8 -65h172l-29 -77v-500q0 -10 -4 -14q-9 0 -17 7q-132 119 -272 144q-15 4 -20 4h-28q-70 0 -130 -23q33 127 93 222q-42 36 -42 97v14q4 46 75 126h162q-8 20 -16 33q-14 25 -31 32h-168l29 79h404zM480 -188q0 203 -10 330
q-91 -81 -201 -81q-27 0 -48 1.5t-32 5.5q-20 -25 -33 -46.5t-19 -40.5q15 4 42 4q68 0 143.5 -42.5t157.5 -130.5zM159 258q-5 -12 -6 -20.5t-1 -14.5q0 -76 87 -97q4 -1 13 -2t17 -1q44 0 103 19q60 16 89 45q-11 56 -35 71h-267zM470 147v-5l3 2z" />
    <glyph glyph-name="afii59769" unicode="&#xe59;" horiz-adv-x="628" 
d="M399 -390l88 156q-6 18 -10 38q-33 94 -79 147.5t-104 70.5q-40 10 -102 10h-26q-20 -2 -42 -4t-48 -7q5 62 22.5 115.5t50.5 101.5h-110l24 78h222q-6 55 -50 83h-197l28 80h480l-37 -80h-186q0 -28 -4 -49q-1 -18 -2 -34h211l-32 -78h-250q-37 -26 -68.5 -59.5
t-47.5 -69.5q35 4 52 4h19q23 0 37.5 -2t20.5 -3q36 -4 68 -14.5t58 -29.5q70 -50 127 -249l22 -101l36 -136zM506 -317q-2 12 -7 29q-3 5 -3 10q-9 -16 -14.5 -30t-14.5 -29q13 -4 23.5 -5.5t23.5 -2.5l-5 20v1q-3 2 -3 7z" />
    <glyph glyph-name="afii59770" unicode="&#xe5a;" horiz-adv-x="664" 
d="M557 -332q0 -5 -2.5 -12t-8.5 -9q-5 0 -21 8q-92 66 -183.5 104t-177.5 51h-37q-43 -4 -79 -32q16 120 103 120q18 0 37 -4t38 -14q78 -28 153.5 -75t145.5 -107q0 123 -4 192q-2 70 -4.5 119.5t-4.5 79.5q-4 59 -19 96t-33 47h-89q4 -46 6 -80t2 -57v-192q0 -13 -17 -13
q-13 0 -15 11q-9 150 -26.5 232.5t-44.5 98.5h-65q2 -10 2 -18v-71q-2 -18 -6 -22q-4 -20 -16 -34t-31 -24q-47 -24 -75 -97q-20 44 -20 80q0 33 36 69q0 1 3.5 4t12.5 9q8 8 18.5 17t25.5 22q12 20 12 65h-93l23 76h233q-24 77 -56 93h-199l31 79h465l-31 -79h-187
q6 -23 8 -41t2 -33v-19h232l-43 -71z" />
    <glyph glyph-name="afii59771" unicode="&#xe5b;" horiz-adv-x="618" 
d="M545 -216q-33 29 -71.5 48t-86.5 25q23 43 51.5 77.5t73.5 53.5q-187 288 -320 386q-32 -27 -55 -54.5t-36 -58.5q138 -23 215 -179q0 -3 2 -5t2 -6q0 -15 -13 -15q-9 0 -11 4q-117 116 -257 110q15 69 37.5 128.5t57.5 106.5h-95l37 75h339l-30 -75h-94
q58 -68 112.5 -155.5t108.5 -200.5q-7 345 -78 357l33 74h101l-23 -74v-622h13l-20 -51q12 -29 7 -46q-1 -9 -7.5 -21.5t-17.5 -30.5q27 -19 42.5 -52t21.5 -78q0 -4 -0.5 -8.5t-6.5 -5.5q-3 0 -6 2t-5 7q-13 39 -37 65t-52 33h-19q-24 0 -57 -12q6 65 57 69q26 0 45 -8
q5 11 7 19t2 16q0 22 -35 49h-71q-38 -21 -51 -67q-1 0 -1 -2v-5q0 -27 15 -54q-5 -28 -43 -45q-19 40 -19 83q0 81 105 143h133zM510 -36q-20 -11 -32.5 -26.5t-30.5 -42.5q31 -10 42 -15t24 -19z" />
    <glyph glyph-name="afii62841.075" unicode="&#xe5c;" horiz-adv-x="51" 
d="M-485 -308q22 -12 46 -27t39 -26q15 -12 41.5 -33.5t56.5 -49.5q9 -10 21.5 -21t18.5 -20q15 -15 38 -32q10 -10 33.5 -16t51.5 -11q49 2 78.5 14.5t29.5 35.5q-1 42 -61 48q-53 4 -70 -56q-18 42 -18 69q0 61 89 63q18 0 36 -3l-3 1l-13 224q-11 63 -24 103t-30 49h-79
q1 -59 1.5 -104t0.5 -75v-22l-1 -26q0 -12 -17 -12q-19 0 -19 12q-1 45 -3.5 77.5t-4.5 49.5q-10 38 -26 64t-37 36h-55q1 -8 2 -15t1 -17q0 -21 -6 -40q-8 -22 -17.5 -41t-20.5 -28q-10 -7 -23 -12.5t-21 -8.5q-19 -8 -36 -34q-20 41 -20 64q3 37 31 49q14 6 23.5 10.5
t18.5 9.5q6 6 12 21.5t12 41.5h-96l25 76h479l-17 -68v-380q0 -12 -14 -16q44 -28 43 -113q-4 -62 -33 -95q-31 -28 -86 -33q-6 0 -14 -0.5t-16 -0.5q-50 0 -100 36t-93 98q-41 48 -84 87.5t-93 68.5q-12 8 0 23q3 7 14 7q3 0 4 -2h5z" />
    <glyph glyph-name="afii62841.076" unicode="&#xe5d;" horiz-adv-x="51" 
d="M0 76l-18 -80q6 -27 8.5 -52.5t3.5 -44.5v-33q0 -22 0.5 -54.5t0.5 -74.5v-89q38 -34 36 -118q-3 -70 -33 -105q-29 -34 -84 -38q-11 -1 -27 -1q-24 0 -46.5 10t-46 29t-46 47t-43.5 60q-41 53 -84 96.5t-90 76.5l-2 2q-1 -10 -1 -20q-2 -12 -2 -24v-25q-1 -12 -1 -25.5
t-1 -25.5q0 -13 -1.5 -26t-1.5 -25q-1 -11 -6 -19t-13 -8q-20 5 -20 27v249q0 257 129 291h389zM-448 -266q22 -12 45.5 -28t37.5 -30q17 -12 43.5 -36t55.5 -55v2q10 -11 21.5 -23.5t18.5 -21.5q6 -10 15 -18.5t20 -19.5q13 -9 32 -15.5t40 -11.5q51 3 79.5 16t28.5 38
q-1 47 -62 53q-51 4 -70 -63q-6 22 -9 38.5t-3 28.5q0 77 84 81q32 0 55 -13q-148 147 -268 151q-16 0 -30 -1.5t-27 -2.5q11 63 29 109.5t47 83.5q-7 0 -17.5 -0.5t-16.5 -0.5q-11 -1 -21 -1t-20 -1q-25 -7 -47 -29t-39 -55t-28.5 -75.5t-14.5 -93.5v-11q2 6 12 6q3 0 5 -1
h4zM-176 -7q-32 -16 -58 -41.5t-40 -57.5q57 -2 114.5 -39t117.5 -107q-5 85 -24.5 147t-49.5 98h-60z" />
    <glyph glyph-name="afii62841.077" unicode="&#xe5e;" horiz-adv-x="53" 
d="M-469 -305q23 -14 45.5 -28t35.5 -26q16 -11 42 -32.5t53 -50.5q11 -8 23 -20t18 -19q12 -16 35 -33q11 -9 33 -15t50 -11q48 1 76 13.5t28 35.5q-1 42 -59 47q-50 6 -69 -54q-8 22 -11.5 38t-3.5 29q0 63 84 64q15 0 27 -2q0 56 -6 125q-2 36 -5 71t-6 71v11q-1 2 -1 6
v5q-6 37 -19.5 60.5t-33.5 23.5h-58q3 -45 3.5 -96t0.5 -110v-85q-47 43 -90 69t-88 37q-61 15 -103 15q-11 0 -23 -1.5t-25 -4.5q19 70 35.5 112t32.5 64h-61l46 76h483l-37 -76v-384q0 -7 -1 -11q30 -32 29 -103q-4 -62 -32 -93q-27 -30 -82 -33q-7 -3 -14.5 -3.5
t-15.5 -0.5q-48 0 -96 36.5t-91 97.5q-41 48 -82 87t-89 71q-11 7 0 21q4 7 15 7q2 0 4 -1h3zM-365 4q-29 -15 -51 -36t-36 -52q68 -5 124.5 -32t103.5 -76q-4 73 -16 123.5t-32 72.5h-93z" />
    <glyph glyph-name="afii62841.078" unicode="&#xe5f;" horiz-adv-x="51" 
d="M-542 -348q24 -11 45.5 -24t42.5 -28q11 -7 35.5 -25.5t57.5 -46.5q26 -24 51.5 -40.5t38.5 -25.5q35 -26 99 -24q108 0 108 44q0 31 -55 32q-31 0 -49.5 -8t-29.5 -22q-4 20 -4 34q0 61 78 61h13q0 3 2 6q2 5 6 11q-5 52 -82 52q-30 0 -65 -22q9 -6 15.5 -20.5
t11.5 -32.5q5 -15 -6 -19q-5 -3 -11 -0.5t-11 7.5q-33 39 -83 58t-112 19q13 32 26.5 57t29.5 40h-60l44 69h350q-4 5 -4 15q1 182 -54 182h-73q6 -18 8.5 -39.5t2.5 -43.5v-15l-4 -73q0 -15 -12 -16q-4 -1 -9 1.5t-11 6.5q-56 30 -110 47.5t-102 17.5q-28 0 -55 -5h-19
q-4 -1 -13 -1q26 93 78 120h-58l28 72h464l-23 -66v-189q0 -9 -3 -14h5l-38 -69h-222q-31 -12 -52.5 -21t-32.5 -18q28 -7 50.5 -19t43.5 -29q21 30 47.5 47t57.5 17q38 0 65 -15.5t46 -42.5q2 -7 6.5 -17t4.5 -17q0 -16 -10 -35q-5 -8 -11 -17q44 -22 42 -88
q-5 -111 -117 -116t-248 128q-36 40 -80 73.5t-96 61.5q-11 8 -1 20q3 6 15 6l5 -1h3zM-343 1q-30 -2 -54 -14t-36 -30q48 0 105 -21.5t114 -67.5q-4 59 -17 93t-34 40h-78z" />
    <glyph glyph-name="afii62841.079" unicode="&#xe60;" horiz-adv-x="51" 
d="M-518 -250q22 -13 45.5 -29t44.5 -34q12 -9 36 -31.5t56 -55.5v2q28 -28 52 -49t39 -29q35 -33 100 -32q108 0 109 54q0 58 -59 58q-56 1 -93 -50q0 129 91 129q23 0 40 -6q-59 50 -118 77q-70 31 -138 31q-35 0 -73 -5.5t-84 -18.5q-2 66 12.5 125t47.5 109h-92l44 82
h462l-38 -82h-265q-42 -29 -72.5 -60t-46.5 -62q27 6 49 7.5t41 1.5q56 0 114.5 -28.5t123.5 -82.5q26 -23 46.5 -46.5t32.5 -41.5q12 -15 6 -31q-6 -5 -14 -3h-1q25 -35 24 -106q-5 -136 -118 -139q-56 -3 -118 35.5t-129 118.5q-37 47 -81.5 87.5t-96.5 76.5q-11 7 -1 22
q2 6 13 6h9z" />
    <glyph glyph-name="afii62841.080" unicode="&#xe61;" horiz-adv-x="51" 
d="M-25 4h-185q0 -42 12 -30q11 -26 53 -34q27 -8 43.5 -13.5t22.5 -10.5q43 -19 64.5 -48.5t21.5 -66.5q0 -47 -27 -90q-24 -39 -62 -64l-8 -5q96 -6 91 -136q-1 -65 -33.5 -98t-91.5 -38q-57 1 -123 38.5t-131 111.5q-37 46 -81 85t-94 75q-11 6 -3 21v-1q0 8 14 8
q2 0 4 -1h5q22 -12 44.5 -27.5t44.5 -32.5q13 -11 36.5 -32t55.5 -52q30 -27 52.5 -47.5t39.5 -31.5q24 -13 53 -21t59 -7q111 2 111 53q1 57 -58 57t-93 -48q0 69 27 99q-1 -1 -3 -1h-8q-8 -4 -24 -4q-51 0 -101.5 31t-97.5 86q-25 27 -61 67t-82 86l46 81q34 -33 54 -54
t25 -27q72 15 111 45t44 77h-234l42 81h388l-35 43l65 107q22 -12 45.5 -16t48.5 -4q6 0 14.5 1t19.5 4q-6 -38 -53 -80q-1 -1 -6 -1h-6q-30 0 -57 12l-17 -21q5 -6 9 -11.5t11 -11.5q5 -7 11 -17q2 -4 5 -5h21zM-187 -133q-43 14 -65 33l-2 -2q-28 -32 -54 -53
q-28 -20 -59 -32q26 -28 50 -50.5t46 -38.5q65 -52 117 -52q20 0 37 6t33 18q30 27 35 68q8 38 -70 78q0 3 -68 25z" />
    <glyph glyph-name="afii62841.081" unicode="&#xe62;" horiz-adv-x="51" 
d="M-10 -1h-216q0 -21 -1 -45.5t-3 -53.5q39 57 118 57q164 0 161 -154q0 -138 -129 -159q66 -22 64 -135q-1 -66 -34.5 -100t-93.5 -39q-55 1 -123 41.5t-129 113.5q-20 21 -42 43t-44.5 43t-46.5 41t-47 35h1q-12 8 -2 21q1 10 13 10q2 0 5 -1h5q19 -11 36 -22
q-30 40 -30 112q0 144 157 150q37 1 66.5 -15t47.5 -45q-6 29 -17.5 55t-29.5 47h-198l42 83h444l-12 37l60 109q42 -19 95 -19h30q1 0 3.5 0.5t3.5 0.5q-4 -17 -15 -36t-29 -36q2 -5 -18 -10h-6q-11 0 -25.5 3t-32.5 12l-18 -24q6 -11 12 -27l5 -10h19zM-193 -340
q-36 24 -63 69q-22 -43 -58 -66.5t-82 -21.5q-37 0 -65 11q12 -11 33 -30q22 -20 55 -54l53 -49q22 -21 40 -31q24 -15 53.5 -22.5t59.5 -7.5q109 0 109 56q3 55 -56 58q-59 0 -95 -51q0 101 55 123q-21 4 -39 16zM-114 -124q-55 2 -82.5 -16t-32.5 -51q8 -35 35.5 -57.5
t79.5 -22.5q59 -1 89 20t36 58q-7 31 -38 49.5t-87 19.5zM-282 -188q-10 28 -39 45.5t-81 18.5q-46 -9 -73 -27.5t-36 -44.5q6 -32 35.5 -52.5t75.5 -22.5q47 5 79 27.5t39 55.5z" />
    <glyph glyph-name="afii62841.082" unicode="&#xe63;" horiz-adv-x="51" 
d="M-511 -293q21 -12 44 -27.5t43 -31.5q12 -9 36 -30.5t57 -54.5q27 -26 51 -47t39 -30q17 -14 41 -22t57 -8q107 0 107 53q2 58 -55 58q-58 1 -96 -49q0 124 91 124q12 0 22 -1q-74 77 -150 94q-56 18 -87 18q-37 0 -79 -9t-89 -22q-1 130 11 188q7 26 20.5 49.5
t29.5 41.5h-85l43 83h402l-33 53l84 102q3 -4 10.5 -7.5t16.5 -7.5q5 -1 8.5 -3.5t9.5 -5.5q21 -7 41.5 -11.5t39.5 -1.5q-11 -38 -66 -69q-6 -1 -9 -1q-2 0 -3 1q-31 5 -57 25l-16 -13q10 -17 22 -35q10 -14 16 -26h12l-44 -83h-291q-8 -5 -17 -10t-18 -9q-4 -4 -8 -6
t-8 -6q-5 -2 -10 -4.5t-7 -6.5h344l-29 -78h-350q-1 -6 -3.5 -13.5t-4.5 -15.5q-3 -7 -3.5 -12.5t-2.5 -12.5q64 13 115 13q141 0 251 -122q15 -20 27.5 -33t17.5 -21q7 -10 14.5 -28.5t14.5 -39.5q0 -2 0.5 -4t0.5 -4v-3q0 -1 3 -3q-5 -10 -10 -10q5 -27 5 -64
q-5 -132 -118 -137q-110 -6 -245 150q-37 47 -80 86t-95 74q-11 8 -1 21q4 6 16 6l4 -1h3z" />
    <glyph glyph-name="afii62841.083" unicode="&#xe64;" horiz-adv-x="51" 
d="M-158 -244h-204q-14 -3 -32 -11t-34 -21q27 -8 48 -18.5t39 -21.5q19 29 47.5 44.5t69.5 20.5q87 -1 114 -25q14 -12 19.5 -26t5.5 -29q-1 -23 -17 -52q-5 -8 -14 -18q79 -14 75 -119q-1 -58 -35 -89t-91 -33q-29 0 -59.5 9t-64 26.5t-66.5 42t-63 56.5
q-18 17 -39.5 36.5t-45 38t-47 36t-44.5 30.5q-11 6 -2 20q2 6 15 6h7q22 -12 44.5 -25.5t44.5 -28.5q12 -7 37 -29l55 -46q27 -26 51.5 -43t39.5 -27h-1q25 -13 54.5 -19.5t59.5 -6.5q109 1 109 49q2 48 -57 48q-57 0 -94 -43q0 96 66 110l11 13q2 9 3.5 18t1.5 17
q7 14 -9 25.5t-54 17.5q-32 -2 -59 -9.5t-49 -20.5q16 -23 22.5 -39t7.5 -29q5 -15 -12 -23q-2 -1 -6 2t-7 9v-1q-72 82 -194 82q13 36 27 60t34 36h-67l45 74h334q-13 6 -29 9q-99 18 -180 18q-79 0 -176 -29v24q0 51 2.5 80.5t9.5 42.5q5 9 13 19t19 16h-67l40 74h432
l-39 46l85 90q14 -8 46 -18q42 -17 82 -14q-16 -33 -66 -60q-2 -1 -4 -1h-5l-3 1q-33 4 -58 21l-17 -10q9 -11 18 -23.5t17 -23.5l6 -8h12l-6 -10l-41 -64h-327q-21 -5 -36.5 -9.5t-21.5 -6.5h366l-31 -53h-369q-13 4 -15 -17q33 2 62.5 3.5t56.5 1.5q230 -2 282 -61
q26 -26 41.5 -48.5t22.5 -37.5q15 -33 26 -87q1 -3 1 -4.5t1 -4.5v-2h2l2 -1q-5 -5 -5.5 -5t-3.5 -2l-3 -2q-18 -5 -27 6q-37 108 -101 144z" />
    <glyph glyph-name="afii62841.084" unicode="&#xe65;" horiz-adv-x="51" 
d="M-487 -269q21 -13 43.5 -28.5t43.5 -32.5q15 -12 37.5 -35.5t56.5 -52.5q11 -13 24 -24.5t25.5 -22t24.5 -20t20 -15.5q21 -14 47.5 -21.5t50.5 -6.5q109 0 109 54q1 58 -59 58q-57 1 -92 -52q0 46 11 74q-3 9 0 22q20 22 37.5 43t29.5 41q7 11 10.5 21.5t3.5 21.5
q0 9 -2 16.5t-7 16.5q-9 20 -24 35t-33 26q-39 21 -57 21q-69 0 -91 -26q-10 -13 -10 -24t7 -22.5t18 -26.5q7 -5 20 -8t28 -3h7q4 0 7 0.5t5 0.5q5 3 12.5 3t10.5 1q-13 -27 -26 -53t-30 -53q-59 -5 -93 24q-37 33 -40 84q-2 63 45 108q22 22 49 35.5t56 19.5q27 5 54 5
q14 0 25.5 -0.5t22.5 -4.5q2 5 2.5 11t0.5 11q0 7 -13 16.5t-36 21.5h-187q-29 -7 -48 -20t-27 -35v-17q0 -30 27 -68q-15 -19 -31 -39t-35 -41q-13 16 -23 37t-16 44q-7 31 -7 47q3 12 5 21.5t2 16.5q39 90 188 140h297l-37 -76q6 -11 8.5 -21t2.5 -20q0 -17 -28 -54
q31 -21 50.5 -47.5t31.5 -59.5q5 -42 -24 -87q-16 -25 -41 -48q86 -13 84 -139q-4 -68 -34 -102.5t-86 -37.5q-55 2 -119.5 41.5t-126.5 111.5q-38 43 -84.5 87.5t-94.5 76.5q-9 7 -2 23v-1q3 8 14 8h10z" />
    <glyph glyph-name="afii62841.085" unicode="&#xe67;" horiz-adv-x="51" 
d="M-442 77h438l-22 -82l-119 -311q-3 -4 -4 -6.5t-5 -5.5l3 2q-4 -6 -10 -6q-25 0 -21 24l32 111q-10 10 -29 24.5t-44 28.5q-21 6 -40 10t-36 4q-21 0 -41.5 -5t-38.5 -16q-11 -29 -11 -53q0 -17 5.5 -34.5t14.5 -33.5v1q17 -29 37 -58t41 -55q8 -11 -1 -22v-1
q-2 -2 -5 -3q-1 -2 -6.5 2t-14.5 13q-18 10 -41.5 29t-49.5 49q-56 61 -59 132q-1 58 36 91.5t98 39.5q64 2 113.5 -22.5t82.5 -71.5q2 18 6.5 33t7.5 31q4 20 8.5 39t9.5 39h-368zM-554 -266q21 -14 44.5 -29.5t43.5 -30.5q6 -5 16.5 -14.5t22.5 -21.5l53 -53
q27 -27 53 -48.5t39 -32.5q24 -13 51 -22t50 -6q108 1 108 55q0 56 -57 56q-30 1 -53 -12t-41 -38q0 131 91 131q105 0 101 -140q-5 -136 -119 -141t-249 155q-37 48 -82 89t-94 75q-12 6 -1 23h-1q3 6 14 6q2 0 5 -1h5z" />
    <glyph glyph-name="afii62841.086" unicode="&#xe68;" horiz-adv-x="51" 
d="M-508 -341q22 -13 45 -29q19 -13 36 -25v395l36 77h379l-24 -67q25 -38 25 -72q0 -18 -9.5 -36t-31.5 -39q30 -24 56 -63.5t44 -97.5q-68 24 -192 24q-122 0 -260 -124q-5 -4 -9 -8h-2q14 -10 32 -28q24 -23 57 -56q57 -56 92 -78q24 -18 44.5 -24t39.5 -4q109 0 112 52
q0 57 -59 58q-57 1 -96 -49q0 129 92 129q106 0 101 -140q-5 -136 -113 -142q-107 -2 -239 155q-76 95 -177 165q-11 7 -4 22q5 6 15 6q4 0 6 -1h4zM-196 -178q-44 0 -88 20q-46 20 -94 62q-7 -38 -10 -97t-3 -138q135 127 291 128q15 0 25 -0.5t17 -2.5q-6 18 -19 25.5
t-30 10.5q-11 -5 -34 -6.5t-55 -1.5zM-331 -6q-12 -10 -22.5 -19t-14.5 -18q14 -12 39 -25.5t55 -22.5q29 -10 49.5 -13.5t28.5 -3.5q9 0 18 0.5t17 1.5q42 10 66 23t24 24q0 12 -1.5 25.5t-6.5 27.5h-252z" />
    <glyph glyph-name="afii62841.087" unicode="&#xe69;" horiz-adv-x="51" 
d="M1 74l-29 -94h-72q34 -32 51 -80.5t21 -120.5q-46 13 -90 18.5t-86 5.5q-35 0 -65 -10.5t-55.5 -30t-47.5 -46t-37 -57.5q-7 -21 -12 -38t-6 -25q-1 -23 -25 -23q-9 5 -13 13t-4 18q0 7 0.5 18t0.5 20q2 10 2 21v20q53 210 280 210q49 0 89 -6q-10 22 -44.5 46.5
t-88.5 46.5h-272l41 94h462zM-582 -331q22 -15 44 -31t46 -33q11 -7 35 -30.5t57 -56.5v1q28 -30 52 -51t40 -32q15 -14 38.5 -21t55.5 -7q111 3 111 54q0 58 -59 58q-58 1 -94 -53q0 132 90 132q107 0 102 -139q-1 -65 -32 -101t-85 -38q-53 0 -116.5 38.5t-128.5 116.5
q-37 44 -82 86t-94 76h1q-12 8 -4 22q0 9 13 9h10z" />
    <glyph glyph-name="afii62841.088" unicode="&#xe6a;" horiz-adv-x="49" 
d="M-511 -332q21 -14 43 -27t46 -26q12 -9 36.5 -29t54.5 -47q12 -9 25 -19.5t25 -19.5t23 -16.5t18 -12.5q23 -11 45 -18t40 -6q107 0 107 45q0 48 -55 50q-58 0 -95 -44q0 96 70 108q0 4 1 5q9 13 14.5 24t5.5 19q0 66 -75 66q-27 0 -62 -26q26 -35 38 -78q3 -16 -6 -18
q-12 -4 -21 6q-35 42 -77.5 66t-90.5 24h-14q-9 0 -19 -2q22 73 73 105h-81l36 54q-15 -12 -27 -27v1q-21 -49 -32 -83t-15 -44q-2 -20 -25 -20q-18 11 -15 28q4 42 12 83t21 81q59 87 246 87q13 0 28.5 -0.5t31.5 -3.5q20 0 45.5 -1t44.5 -5q-5 11 -25.5 25t-55.5 28h-339
l48 76h446l-37 -76h-25q25 -11 37 -48t16 -97q-17 5 -36 8l-35 -66h-154q-31 -7 -57.5 -17t-45.5 -24q28 -2 51 -13t41 -26q21 29 45.5 47t52.5 18q73 0 109 -58q13 -22 13 -46q0 -25 -47 -72q84 -8 82 -115q-4 -56 -32.5 -86t-79.5 -34q-51 0 -112 33.5t-125 99.5
q-35 35 -82 71t-92 67q-10 6 -3 18h-1q1 8 14 8h9zM-128 -125q-59 7 -119 11h-4q-7 1 -13 1h-13q-55 0 -95 -15q-4 -2 -7 -5h297q-21 5 -46 8z" />
    <glyph glyph-name="afii62841.089" unicode="&#xe6b;" horiz-adv-x="51" 
d="M-539 -284q23 -14 45 -27q18 -13 34 -24q-1 5 -1 11q-2 26 5.5 61t21.5 67v-1q10 36 43 71t89 66q-2 7 -2 17v29q0 7 2 10h-196l35 80h457l-37 -80h-181q-26 -13 -32 -43q16 4 32 5t31 1q87 0 140 -44q19 -21 30 -43.5t11 -44.5q-5 -60 -45 -93t-123 -39
q-125 13 -168 120q-24 -14 -44 -52.5t-32 -97.5q-2 -7 -4 -13q-4 -5 -9 -5q11 -9 25 -21q23 -22 53 -52q12 -11 25.5 -22.5t26 -21.5t22 -18.5t17.5 -13.5h-1q24 -12 48 -19t51 -7q108 1 108 53q0 53 -57 53t-93 -50q0 124 88 124q104 0 101 -132q-3 -62 -34.5 -94.5
t-82.5 -37.5q-56 2 -118 38t-127 110q-37 42 -80.5 80t-93.5 73h2q-7 3 -7.5 8t2.5 11q5 9 16 9l4 -1h3zM-166 -110q-84 0 -150 -41q59 -79 138 -77q57 0 90 14.5t39 40.5q-6 18 -35.5 35t-81.5 28z" />
    <glyph glyph-name="afii62841.090" unicode="&#xe6c;" horiz-adv-x="49" 
d="M-479 -305q21 -14 55.5 -42.5t83.5 -73.5q58 -59 94 -81q48 -31 91 -31q108 3 108 57q3 56 -56 58q-31 0 -54.5 -13t-40.5 -39q0 38 7 66q-2 9 0 19q75 80 94 117q6 11 6 28q0 31 -22 70v-2q-21 18 -44.5 26.5t-50.5 8.5q-9 0 -52 -14q-24 -10 -40.5 -18.5t-24.5 -18.5
q1 -11 3 -22t5 -24q0 -11 2 -22.5t4 -21.5q1 -26 -21 -26q-8 0 -9 4q-6 2 -7 11q-11 32 -25.5 70t-24.5 71q-12 36 -26 75t-25 72l61 78h399l-48 -83h-331q4 -19 9.5 -37.5t10.5 -36.5q2 -16 4.5 -27.5t7.5 -29.5q23 46 59 68t84 22q171 -1 171 -156q0 -11 -0.5 -21.5
t-2.5 -22.5q-9 -27 -40 -64q-13 -14 -27 -30q91 -9 86 -139q-4 -134 -115 -139q-109 -6 -243 153q-21 28 -57 61t-79 70q-5 4 -6.5 9.5t3.5 12.5q3 8 13 8h11z" />
    <glyph glyph-name="afii62841.091" unicode="&#xe6d;" horiz-adv-x="51" 
d="M7 77l-30 -77v-372q43 -28 41 -118q-1 -64 -30 -97t-80 -38q-27 0 -56.5 10.5t-60.5 29.5t-63 46.5t-63 63.5q-18 18 -39 40t-44.5 42t-46 39t-46.5 37q-3 3 -5 9t2 13q3 6 14 6h6q37 119 93 165q-19 17 -30.5 38.5t-10.5 41.5q3 43 80 121h369zM-113 -335
q-36 18 -69 29.5t-65.5 18.5t-62.5 7q-62 0 -108 -7q-32 -2 -58 -11q34 -22 75 -52q12 -9 35.5 -30t55.5 -53q30 -30 52.5 -48.5t39.5 -29.5q22 -29 90 -29q106 1 108 54q0 54 -59 55q-59 0 -93 -49q0 124 92 124h7q-19 13 -40 21zM-328 -188q131 0 266 -122q0 75 -2 130
t-9 95q-48 -42 -93.5 -61.5t-91.5 -19.5q-66 0 -89 6q-17 -2 -32 -9t-25 -23q10 1 25 1h25q4 0 13 1.5t13 1.5zM-374 -4q-5 -7 -7.5 -17.5t-1.5 -22.5q3 -32 90 -53q17 -4 35 -4q22 0 43.5 5t41.5 14q30 9 53 21t38 24q-7 9 -16 17t-21 16h-255z" />
    <glyph glyph-name="afii62841.092" unicode="&#xe6e;" horiz-adv-x="51" 
d="M-506 -276q24 -13 45.5 -27t44.5 -32q7 -6 24.5 -21.5t39.5 -37.5q6 -4 13.5 -10t13.5 -14q25 -24 50 -45.5t42 -32.5q25 -12 54 -19.5t61 -6.5q108 2 108 52q0 54 -56 55q-59 0 -95 -49q0 96 55 117q-4 15 -12 33q-3 4 -5 9t-4 11q-1 2 -1 4.5t-2 5.5q-50 80 -170 80
q-85 0 -179 -25q5 92 20 145.5t43 69.5h-74l44 90h453l-35 -90h-291q-18 -6 -34.5 -14.5t-25.5 -18.5v3q-9 -10 -17 -30.5t-16 -52.5q21 5 45 5.5t45 0.5q104 0 165.5 -41t83.5 -120q9 -34 15 -59q94 -6 89 -131q-5 -129 -127 -133q-122 -5 -256 145q-37 45 -82 84t-93 72
q-6 5 -6.5 10t5.5 12q2 6 12 6h10z" />
    <glyph glyph-name="afii62841.093" unicode="&#xe6f;" horiz-adv-x="51" 
d="M-572 -337q21 -11 43.5 -25t43.5 -28q5 -5 15 -12t21.5 -16.5t26.5 -22.5t27 -25q27 -21 52.5 -39t40.5 -28q25 -13 53.5 -19.5t60.5 -4.5q108 0 108 46q0 47 -59 48q-58 0 -91 -43q0 63 28 91q27 48 27 62q5 45 -70 45q-24 0 -42 -6t-27 -18q10 -16 18 -30t8 -26
q5 -14 -7 -19q-5 -2 -10 1.5t-9 5.5q-34 39 -82 60t-110 21q20 68 69 95h-75l42 73h308q-53 27 -155 27q-44 0 -87.5 -4.5t-89.5 -16.5q9 119 51 145h-62l47 76h453l-36 -76h-301q-46 -6 -65.5 -19t-20.5 -35q21 2 42.5 4t48.5 2q192 0 247 -73q14 -18 30.5 -70.5
t31.5 -132.5q2 -16 -15 -28q-27 15 -52 87q-11 36 -22 60t-22 36l-6 7l-31 -62h-149q-64 4 -101 -34q53 -16 91 -50q13 34 40 49t71 15q70 0 96 -25q20 -29 18 -59q0 -14 -14 -39q-9 -12 -20 -28h4q103 0 99 -119q-1 -57 -33.5 -86.5t-92.5 -33.5q-26 0 -58 10t-64.5 26.5
t-65.5 40.5t-61 55q-18 17 -40.5 36.5t-45 37.5t-46 35t-45.5 31q-9 6 -3 19q3 6 14 6h10z" />
    <glyph glyph-name="uni1F6D.001" unicode="&#xe70;" horiz-adv-x="53" 
d="M-482 -269q21 -13 43.5 -28.5t43.5 -32.5q15 -12 37.5 -35.5t55.5 -52.5q10 -13 23.5 -24.5t26.5 -22t24 -20t20 -15.5q22 -14 46.5 -21.5t47.5 -6.5q109 0 109 54q1 58 -59 58q-57 1 -92 -52q0 112 67 128q-11 40 -19 72q-17 50 -32 66q-22 -55 -68 -87.5t-118 -38.5
q-80 4 -117 41t-33 99q1 21 11 46.5t31 45.5q16 25 46 37t75 12q24 0 43 -1t36 -6q-10 29 -48 47h-204l34 83h453l-33 -83h-155q1 -7 1 -15v-43q-1 -1 -1 -3q21 -16 40.5 -34.5t35 -37t26.5 -37.5t15 -35q12 -35 21 -80q5 -24 7 -48q80 -13 78 -136q-5 -136 -118 -140
q-56 -3 -117 37.5t-126 115.5q-39 43 -85.5 87.5t-94.5 76.5q-9 7 -1 23v-1q3 8 14 8h10zM-330 -246q97 -4 157 80q-31 22 -75 32t-93 12q-38 -11 -64.5 -29.5t-33.5 -36.5q7 -29 35 -43.5t74 -14.5z" />
    <glyph glyph-name="uni1F6F.001" unicode="&#xe71;" horiz-adv-x="51" 
d="M-476 -269q21 -13 42.5 -28.5t44.5 -32.5q15 -12 38 -35.5t56 -52.5h-3q14 -13 27 -24.5t25 -22t24 -20t19 -15.5q23 -14 46.5 -21.5t42.5 -6.5q109 0 109 54q1 58 -59 58q-57 1 -92 -52q0 115 71 128q-124 130 -261 130h-12q-6 0 -12 -2q-64 -3 -130 -18q4 66 27 123.5
t63 100.5h-72l36 83h261l-35 -83h-102q-37 -19 -65.5 -49.5t-45.5 -74.5q21 3 40.5 4.5t36.5 1.5q24 0 42.5 -2t33.5 -7q56 -10 112 -53.5t108 -121.5v88q0 150 -84 216l37 81h123l-39 -81v-339q61 -25 59 -133q-4 -68 -33 -102.5t-82 -37.5q-27 0 -56 11t-59 30t-62.5 48
t-63.5 64q-38 43 -84 87.5t-94 76.5q-11 7 -2 23v-1q3 8 13 8h11z" />
    <glyph glyph-name="uni1F74.001" unicode="&#xe72;" horiz-adv-x="51" 
d="M-466 -269q23 -14 44.5 -29.5t43.5 -31.5q13 -11 37 -34.5t57 -53.5q26 -26 51 -49t42 -33q15 -30 77 -28q109 0 109 54q1 58 -59 58q-57 1 -94 -52q0 110 67 127q-10 9 -19 16q-33 25 -65.5 44t-65.5 32.5t-64 19.5q-30 5 -57 7t-48 2q-64 0 -110 -19q3 150 88 233h-84
l31 83h307l-36 -83h-118q-47 -20 -81.5 -52.5t-49.5 -73.5q15 2 26 2h11l95 -7q31 -7 43 -8q55 91 145 129q-6 4 -12.5 6.5t-13.5 4.5l45 82h135l-34 -81v-339q61 -25 59 -133q-5 -136 -109 -140q-52 -3 -112 37t-123 116q-39 43 -85 87.5t-94 76.5q-10 7 -3 23v-1q4 8 15 8
h9zM-60 -293q0 89 -12.5 150t-37.5 96q-41 -15 -75.5 -43.5t-61.5 -70.5q43 -26 90 -65.5t97 -89.5v23z" />
    <glyph glyph-name="uni1F75.001" unicode="&#xe73;" horiz-adv-x="51" 
d="M-482 -269q21 -13 43.5 -28.5t43.5 -32.5q15 -12 37.5 -35.5t55.5 -52.5q30 -30 53 -49.5t39 -30.5q32 -32 96 -30q109 0 109 54q1 58 -59 58q-57 1 -94 -52q0 100 55 122q-16 15 -30 26q-18 15 -35.5 28.5t-29.5 20.5q-14 8 -34 14t-47 11.5t-59 9t-66 7.5
q-33 -1 -63.5 -5.5t-60.5 -10.5q11 172 91 239h-79l47 83h476l-30 -77v-343q61 -25 59 -133q-5 -136 -118 -140q-56 -3 -117 37.5t-126 115.5q-39 43 -85.5 87.5t-94.5 76.5q-9 7 -1 23v-1q3 8 14 8h10zM-326 -6q-26 -12 -47.5 -27t-38 -32t-28.5 -35.5t-15 -37.5
q9 1 19 2.5t21 1.5q212 -21 353 -197v12q0 131 -20 209t-57 104h-187z" />
    <glyph glyph-name="uni1F76.001" unicode="&#xe74;" horiz-adv-x="51" 
d="M-538 -358q22 -12 45 -24.5t43 -24.5q16 -11 40.5 -30.5t53.5 -43.5q10 -10 23.5 -20t26 -19t23.5 -16.5t18 -9.5q24 -11 52 -18.5t62 -6.5q108 1 108 44q0 48 -58 48q-59 0 -95 -43q0 95 72 107q22 32 22 47q0 38 -78 38q-53 0 -88 -23q6 -8 12 -22t11 -31q5 -15 -5 -21
q-13 -4 -21 9q-35 38 -84 57.5t-111 18.5q12 34 30 59.5t45 41.5h-78l42 69h356q-143 56 -294 56q-63 0 -117 -11q2 84 55 138h-55l30 62h462l-32 -63v-182h8l-38 -69h-253q-19 -6 -40.5 -16.5t-39.5 -24.5q54 -16 93 -48q23 30 56 46t76 16q74 0 106 -38q17 -20 13 -44
q-1 -12 -13 -30q-10 -15 -26 -35q80 -12 76 -114q-2 -111 -124 -115q-63 -2 -125.5 29.5t-129.5 97.5q-37 38 -81.5 73t-99.5 65q8 6 2 12q2 9 17 9h7zM-320 11q-33 -6 -58.5 -21t-39.5 -38h11q179 0 345 -86q-4 56 -19.5 93t-39.5 52h-199z" />
    <glyph glyph-name="uni1F77.001" unicode="&#xe75;" horiz-adv-x="51" 
d="M-500 -293q46 -29 88 -61q12 -11 36 -32t59 -56q29 -28 51 -49t40 -31q45 -31 104 -29q108 0 108 54q2 58 -56 58t-94 -51q0 129 90 129q-10 11 -16 18l-1 2v1l-1 3q-38 53 -66 86t-46 48q-73 -121 -179 -119q-147 0 -156 129q12 133 155 138q36 1 44 -3q8 -1 15.5 -1.5
t14.5 -2.5q-16 36 -42 56h-150l23 83h313l-25 -83h-78q3 -14 3.5 -28t0.5 -32v-5q-1 -2 0 -2v-1q48 -29 100.5 -88t106.5 -146q-4 282 -72 308l28 77h109l-30 -81v-368q54 -28 49 -130q-3 -133 -121 -139q-115 -5 -248 156q-40 46 -83.5 86.5t-93.5 74.5q-10 10 -3 24
q3 7 14 7h9zM-384 -132q-110 -2 -114 -61q2 -52 114 -48q92 1 145 61q-65 50 -145 48z" />
    <glyph glyph-name="uni1F78.001" unicode="&#xe76;" horiz-adv-x="49" 
d="M-500 -299q24 -14 45.5 -28.5t42.5 -31.5q14 -13 36.5 -33.5t56.5 -55.5q30 -28 52.5 -48t40.5 -32q46 -29 101 -29q109 1 109 55q2 56 -57 58q-57 0 -96 -52q0 129 93 129h6q-46 48 -92 80q-58 40 -112 52q-26 -30 -58 -48.5t-63 -18.5h-11q-6 0 -10 2h-11
q-64 12 -102.5 52t-38.5 104q0 28 14.5 62.5t41.5 75.5h-63l47 83h126q-46 -61 -71 -106t-35 -73q2 -42 25 -68.5t70 -33.5q3 -4 6 -4h11q107 0 114 119q2 23 -16 43.5t-55 41.5l45 81h85l-45 -78q38 -57 38 -91q0 -18 -1.5 -33t-3.5 -30q42 -25 85.5 -64t87.5 -91
q-6 274 -68 310l29 77h102l-24 -77v-378q51 -28 48 -128q-5 -135 -121 -140q-116 -4 -247 155q-40 47 -84.5 88t-94.5 77q-2 2 -4 7.5t2 13.5q4 7 15 7q3 0 6 -1h3z" />
    <glyph glyph-name="uni1F79.001" unicode="&#xe77;" horiz-adv-x="51" 
d="M-502 -269q22 -13 43.5 -28.5t45.5 -32.5q15 -12 37.5 -35t55.5 -53h-2q12 -13 25.5 -24.5t26.5 -22t24 -20t18 -15.5q25 -14 54 -21.5t60 -6.5q109 0 109 54q1 58 -59 58q-57 1 -94 -52q0 131 93 131h6q-42 55 -90 90q-69 49 -155 54q-4 1 -9 1h-9q-99 0 -205 -71
q9 48 35 81.5t68 56.5q11 6 32.5 9.5t51.5 5.5h12q9 2 20 2h32q5 0 11 -2v13q0 21 -13.5 45t-34.5 47h-201l44 82h477l-41 -82h-180v-17q2 -48 -15 -97q89 -26 145 -91q54 -59 84 -149q38 -32 36 -117q-4 -68 -36 -102.5t-91 -37.5q-30 0 -60.5 11t-63 30t-66 48t-65.5 64
q-37 43 -83 87.5t-94 76.5q-10 7 -4 23v-1q5 8 15 8h10z" />
    <glyph glyph-name="uni1F7A.001" unicode="&#xe78;" horiz-adv-x="49" 
d="M-492 -298q48 -27 88 -60q13 -12 37 -34.5t56 -55.5q29 -27 53 -47.5t40 -32.5h-2q24 -12 48 -20t47 -8q52 2 79.5 15t28.5 39q1 58 -57 58q-59 1 -96 -52q0 129 92 129h18q-139 138 -234 132h-6q-4 0 -10 1h-15q-23 0 -46.5 -5t-46.5 -13q0 91 88 98q16 0 28.5 -0.5
t24.5 -3.5q0 8 0.5 16t2.5 15q2 9 2.5 17.5t2.5 17.5q0 26 -15 47.5t-41 38.5h-129q-31 -24 -47.5 -57t-16.5 -75q1 -42 36 -102l-82 -55q-29 56 -25 139q1 55 35 112.5t102 120.5h237l-29 -76q14 -13 20 -33t6 -42q0 -15 -6 -37.5t-20 -58.5q40 -11 85.5 -48.5t96.5 -92.5
q-3 97 -6 149t-8 66q-13 65 -48 92l22 81h101l-19 -84v-352q0 -13 -2 -20q47 -30 45 -126q-1 -66 -31 -101t-84 -38q-53 2 -116.5 42t-127.5 112q-18 22 -40 44t-44.5 42.5t-47 41t-46.5 37.5q-9 6 -2 21v-1q0 10 16 10l4 -3h4z" />
    <glyph glyph-name="uni1F7B.001" unicode="&#xe79;" horiz-adv-x="51" 
d="M-496 -305q21 -14 44.5 -29.5t42.5 -32.5q14 -11 38.5 -33t54.5 -54q27 -25 52 -47t40 -32q27 -31 94 -29q107 0 107 54q1 56 -56 58q-58 1 -96 -52q0 123 83 130q-32 14 -62 24q-50 16 -103 16q-35 0 -67 -8q-19 0 -41.5 -1t-43.5 -6q11 67 28 108t41 57
q-13 -3 -31.5 -7t-37.5 -10q14 108 105 108l16 -1v8q0 20 -18 39.5t-52 38.5h-81q-4 -4 -7 -5t-6 -3q0 -2 -1.5 -2.5t-3.5 -1.5q-1 -2 -3 -4q-3 -1 -4 -3q-23 -17 -28 -43q-5 -8 -5 -28q0 -43 25 -77l-57 -78q-43 52 -43 107v14l4 14v-2q22 122 155 195h185l-38 -78
q20 -36 16 -99q44 -10 87.5 -33t89.5 -60q-1 80 -20 128t-57 64l31 78h125l-31 -81v-384q45 -30 43 -123q-2 -66 -31.5 -101t-83.5 -38q-53 0 -116.5 40t-127.5 113q-37 43 -83 86.5t-94 78.5q-11 7 -2 21q2 7 15 7l5 -1h4zM-68 -240q-44 23 -86 39t-75 21q-70 -16 -108 -76
h12q12 4 26.5 4.5t26.5 0.5q57 0 107.5 -18.5t99.5 -60.5v13q-1 4 -1 11v11q0 24 -1 36.5t-1 18.5z" />
    <glyph glyph-name="uni1F7C.001" unicode="&#xe7a;" horiz-adv-x="51" 
d="M-479 -283q45 -30 88 -63q13 -12 37 -34t55 -53q11 -11 24 -23.5t26.5 -23.5t24 -20t18.5 -16q24 -12 48 -20.5t44 -7.5q109 2 109 54q1 58 -59 58q-57 0 -94 -50q0 129 93 129h10q-4 23 -7 49q-4 33 -8 64q-3 34 -6.5 63t-7.5 61q-23 -22 -40 -45q-10 -15 -29.5 -25.5
t-43.5 -15.5q-17 -4 -33 -4q-17 0 -37 4t-37 10q-10 6 -24 17t-22 24q2 -11 5 -24t8 -29q23 -26 43 -61t36 -77v-5q1 -3 1 -9v-3q-1 -8 -3 -11.5t-6 -5.5q-16 -4 -27 14v-2q-32 51 -77.5 79t-103.5 28q-20 0 -42.5 -2.5t-45.5 -6.5q20 94 128 94q13 0 24.5 -1.5t21.5 -6.5
q-12 24 -16.5 54.5t-4.5 72.5q0 113 159 133l256 2l-29 -87q0 -43 0.5 -89t0.5 -94t2 -95v-78q58 -27 56 -131q-5 -134 -116 -139q-57 -4 -116.5 34t-125.5 118q-40 48 -85 88.5t-93 76.5q-11 8 -3 21h-2q5 10 15 10h11zM-106 -34q-7 9 -19.5 16.5t-25.5 13.5h-100
q-97 -3 -97 -44q0 -20 23 -53q26 -31 105 -31q29 0 61 17.5t64 49.5q-5 12 -6.5 20.5t-4.5 10.5z" />
    <glyph glyph-name="uni1F7D.001" unicode="&#xe7b;" horiz-adv-x="49" 
d="M-533 -288q21 -14 44 -29t46 -33q11 -9 33 -30.5t58 -56.5q30 -31 52.5 -50t41.5 -30q46 -31 114 -29q54 0 80.5 13t27.5 41q0 55 -59 58q-56 0 -93 -51q0 77 32 109q-4 -1 -10 0q-9 4 -9 17v3q0 8 2 9v5q13 43 33.5 78t43.5 60q1 6 3.5 14t3.5 12q4 9 6 14l2 7q1 3 1 5
v4q-10 -16 -23 -27t-25 -17q-17 -6 -38 -10t-40 -4q-11 0 -20.5 1t-19.5 3q-30 5 -52 16t-33 25q-11 12 -20.5 23t-21.5 20l-12 -102q-6 -51 -15 -102q0 -8 -3 -16t-9 -10q-22 0 -22 20l2 327l52 83l368 -2l-29 -75q4 -9 5.5 -16t4.5 -17q1 -4 3.5 -11.5t4.5 -12.5
q0 -43 -6.5 -73.5t-18.5 -54.5q25 8 49 8q109 0 129 -94q-24 4 -46 6.5t-42 2.5q-58 0 -103.5 -28t-78.5 -79v2q-1 -2 -2 -3q19 11 46 11q103 0 101 -142q-5 -134 -127 -140q-123 -5 -256 156q-37 47 -82 87t-94 76h1q-6 3 -7.5 8t3.5 14q4 7 13 7h11zM-350 -34q-2 0 -5 -10
t-6 -21q33 -32 69 -49.5t77 -17.5q40 0 66.5 9t40.5 22q11 16 17 29t6 24q0 41 -97 44h-122q-15 -6 -26.5 -13.5t-19.5 -16.5z" />
    <glyph glyph-name="afii62841.028" unicode="&#xe7c;" horiz-adv-x="51" 
d="M-492 -269q20 -13 42.5 -28.5t45.5 -32.5q13 -12 37 -35.5t54 -52.5q13 -13 26 -24.5t25 -22t24 -20t20 -15.5q22 -14 50 -21.5t54 -6.5q109 0 109 54q1 58 -59 58q-57 1 -94 -52q0 118 74 131q-29 38 -59 74q-45 55 -89 99.5t-84 76.5t-75 49q-66 -17 -94 -78
q72 -14 129 -63t99 -127v1q5 -5 5 -15q0 -16 -17 -16q-7 0 -13 6q-119 120 -269 115q12 76 33.5 127.5t57.5 81.5h-94l40 83h364l-32 -83h-95q113 -101 217 -292q-4 143 -25 214.5t-58 78.5l37 82h110l-27 -81v-339q61 -25 59 -133q-5 -136 -122 -140q-59 -3 -122 37
t-128 116q-38 43 -85 87.5t-93 76.5q-10 7 -3 23v-1q3 8 14 8h11z" />
    <glyph glyph-name="afii62841.029" unicode="&#xe7d;" horiz-adv-x="51" 
d="M-502 -269q22 -13 43.5 -28.5t45.5 -32.5q15 -12 37.5 -35t55.5 -53h-2q12 -13 25.5 -24.5t26.5 -22t24 -20t18 -15.5q25 -14 54 -21.5t60 -6.5q109 0 109 54q1 58 -59 58q-57 1 -94 -52q0 92 46 120q4 5 6 8q6 14 11.5 27.5t12.5 29.5q2 1 2 3.5t1 5.5q1 2 0.5 2.5
t2.5 3.5q2 6 2.5 11.5t0.5 11.5q0 24 -16 59q-8 22 -28 34.5t-47 17.5q-24 -5 -47 -20.5t-41 -42.5q38 -55 61 -129q4 -17 -7 -28h-10q-10 0 -16 12v-1q-21 35 -44.5 65.5t-41.5 43.5q-30 20 -62 30.5t-71 10.5h-25q-2 -3 -7.5 -3.5t-9.5 -0.5q19 81 39 126.5t46 64.5h-80
l28 85h441l-23 -85h-259q-35 -11 -65.5 -35.5t-47.5 -61.5q36 -4 67 -19.5t56 -41.5q59 115 143 109q12 3 26 3q54 0 97 -85v3q18 -27 18 -70v-10q0 -6 -1 -10q0 -38 -26 -82q-8 -16 -22 -31q86 -13 84 -139q-4 -68 -36 -102.5t-91 -37.5q-30 0 -60.5 11t-63 30t-66 48
t-65.5 64q-37 43 -83 87.5t-94 76.5q-10 7 -4 23v-1q5 8 15 8h10z" />
    <glyph glyph-name="uni1F80.001" unicode="&#xe7e;" horiz-adv-x="51" 
d="M-389 -145q37 0 74 -1.5t75 -1.5h144l-23 -44q33 -25 29 -32v-23q4 -33 -29 -69l11 -1q16 18 61 22q75 7 94 -46q-19 4 -41 4.5t-44 1.5q-48 -7 -89.5 -20t-80.5 -35q-6 -10 -13 -6l-2 2q0 3 1 4.5t2 5.5q6 14 26.5 26t50.5 28q3 4 6 6t4 4q9 7 12 12q2 6 3.5 15.5
t1.5 24.5q-14 -20 -29 -33t-28 -23q-25 -7 -41 -10t-22 -1q-88 11 -112 36q-2 1 -4 3.5t-4 2.5q0 1 -1.5 3t-3.5 3q-6 5 -15 13.5t-15 16.5l-22 -126v-17q0 -10 -8 -12q-7 0 -7 6v102q1 28 1 55v47zM-206 7q2 -27 3 -49.5t1 -39.5v-24q0 -1 -0.5 -5.5t-0.5 -6.5v-10
q0 -11 -17 -11q-15 0 -15 11q-6 73 -27 98q-21 26 -52 37h-39q-12 -54 -42 -77q-42 -4 -48 -10q-18 -11 -32 -39q-21 35 -21 55q0 21 14 30q40 17 66 23q4 4 10 8t11 10h-95l26 67h474l-32 -58v-192q0 -12 -20 -12q-18 0 -18 10q-2 6 -3 13t-2 15l-3 28q-6 26 -12 48
t-14 39.5t-16 28.5t-15 13h-81zM-534 -353q20 -11 42.5 -24t42.5 -24q15 -9 37.5 -27t53.5 -42q10 -9 18.5 -16.5t14.5 -11.5q14 -13 25 -22t17 -14q31 -11 56 -18t45 -7q106 2 106 45q2 45 -56 45q-56 0 -91 -39q0 102 86 102q103 0 101 -111q-1 -53 -30.5 -80.5
t-81.5 -31.5q-24 0 -52.5 8.5t-60 25.5t-62 39t-60.5 51q-35 33 -80.5 68t-92.5 61h2q-12 6 -3 18h-2q2 6 14 6q1 0 5 -1h6zM-383 -239q64 -56 162 -59q23 3 42 9.5t31 16.5q38 21 30 42q-6 15 -31.5 24.5t-67.5 13.5h-111q-25 -7 -40 -20q-8 0 -16 -24z" />
    <glyph glyph-name="uni1F82.001" unicode="&#xe7f;" horiz-adv-x="51" 
d="M-23 7v-353q0 -12 -5 -18q50 -30 46 -121q-1 -61 -31.5 -94t-87.5 -37q-27 2 -58.5 12t-63 28.5t-64.5 45.5t-65 61q-18 19 -39.5 39.5t-45 41t-47.5 39t-46 35.5q-4 3 -6 8.5t3 12.5v-1q4 6 10 7q-6 7 -11 13q-37 40 -36 120q0 47 18 86.5t52 72.5h-56l32 79h128
q-132 -137 -131 -217q0 -107 96 -107q73 1 73 59q0 42 -102 71q28 39 58 66.5t70 48.5h-52l38 79h188l-22 -79h-34q-7 -5 -16.5 -13t-20.5 -17q47 -28 92.5 -84.5t94.5 -142.5q-1 103 -16 169t-44 90l23 77h101zM-128 -245q-39 48 -78 86t-79 63t-80 34q-7 -3 -15.5 -9.5
t-14.5 -14.5q58 -14 86.5 -41t32.5 -66q-1 -31 -13.5 -54.5t-32 -40t-46.5 -24.5t-58 -8q-20 1 -37 5q21 -15 43 -32q14 -9 37.5 -29t57.5 -52q30 -29 52.5 -47.5t39.5 -29.5q51 -28 103 -28q108 3 108 53q2 53 -58 54q-59 0 -95 -48q0 122 93 122q14 0 28 -1
q-36 59 -74 108z" />
    <glyph glyph-name="uni1F83.001" unicode="&#xe80;" horiz-adv-x="543" 
d="M542 -25q3 -23 -2 -27q-12 0 -22 14q-66 148 -133 237t-135 119q-25 -21 -42 -37.5t-25 -27.5q54 -13 82 -39.5t32 -65.5q-8 -133 -141 -129q-140 6 -136 168q1 97 69 213h-53l28 80h116q-121 -192 -121 -273q0 -110 94 -110q67 0 67 63q0 21 -22.5 38.5t-71.5 32.5
q27 42 59.5 85.5t72.5 83.5h-61l35 80h175l-20 -80h-31q-7 -4 -17 -11.5t-21 -15.5q63 -55 112 -137.5t87 -188.5z" />
    <glyph glyph-name="uni1F84.001" unicode="&#xe81;" horiz-adv-x="593" 
d="M367 164q74 -4 111.5 -41t36.5 -107q1 -8 1.5 -16.5t0.5 -17.5q0 -41 -14.5 -75t-40.5 -60q-31 -28 -67 -41.5t-79 -13.5q-30 0 -60.5 8t-64.5 26q-20 10 -37.5 15t-35.5 5q-11 2 -22.5 -1.5t-22.5 -12.5q15 -18 25 -33.5t19 -28.5q45 -76 199 -76q157 0 253 229
q10 4 21 14q14 -9 9 -28q-22 -68 -50 -120.5t-64.5 -88t-78.5 -53t-88 -21.5q-74 1 -134 28.5t-94 78.5q-12 19 -23 37.5t-16 32.5h1q-15 21 -39 28q51 53 104 53q28 0 98 -28q70 -25 101 -25q33 0 61.5 10t47.5 28q11 12 18 32.5t7 47.5q0 18 -2 38q-4 84 -90 100l-1 1
q-1 1 -4 1h-8q-50 0 -67 -5q-16 -4 -32.5 -13t-27.5 -22q8 -30 17 -59l18 -58v-14q0 -6 -7 -9q-10 -6 -16 9q-31 76 -67 157.5t-68 158.5l27 79h191q-4 52 -41 87h-189l30 80h432l-32 -80h-161v-19q0 -30 -9 -68h201l-26 -76h-353q10 -39 20.5 -75t19.5 -75q14 24 31 39
t35 24q15 7 34.5 10.5t42.5 3.5h19z" />
    <glyph glyph-name="uni1F85.001" unicode="&#xe82;" horiz-adv-x="593" 
d="M559 480l-31 -80h-190q5 -23 7 -41t2 -33v-9h216l-25 -76q4 -28 6.5 -50.5t3.5 -42.5q1 -14 1 -23v-244q-50 51 -95.5 84.5t-79.5 52.5q-24 9 -52 14.5t-59 5.5q-17 0 -30 -0.5t-24 -2.5q11 55 33.5 106.5t55.5 95.5h-101q-54 -7 -87 -69t-41 -169q-1 -81 -3 -162
t-3 -161q0 -21 -18 -21q-16 3 -16 21v367q0 242 121 274h162q-9 31 -22 50q-14 26 -30 33h-182l29 80h452zM365 237q-29 -30 -54.5 -55t-39.5 -48q60 -2 122 -44t127 -123q-5 104 -24 171.5t-50 98.5h-81z" />
    <glyph glyph-name="uni1F86.001" unicode="&#xe83;" horiz-adv-x="555" 
d="M476 -270q2 -28 -5 -30q-8 -2 -26 6q-85 59 -168 94.5t-162 48.5h-26q-1 0 -9 -4q-39 -1 -70 -27q14 108 93 108q15 0 33.5 -3.5t35.5 -8.5q72 -30 140 -71t131 -97q-2 81 -5.5 170t-12.5 193q-6 66 -23.5 99t-43.5 33h-73q4 -19 5.5 -33t2.5 -21v-67q0 -20 -2 -64.5
t-6 -111.5q-24 18 -40.5 31t-29.5 18q-38 23 -80 33.5t-90 10.5h-25q13 98 66 204h-67l21 72h209q-2 58 -41 95h-184l26 72h454l-21 -72h-198v-14q0 -17 -2 -38q-2 -19 -6 -43h219l-20 -71v-512zM157 241q-27 -20 -50 -53t-40 -75q113 -23 186 -99q0 78 -10 136t-29 91h-57z
" />
    <glyph glyph-name="uni1F87.001" unicode="&#xe84;" horiz-adv-x="571" 
d="M65 327h208q-22 58 -50 73h-200l30 80h471l-32 -80h-188q5 -24 6 -41q2 -17 2 -32h179l-19 -78l-49 -207q-24 -104 -50 -209q-1 -6 -6 -11q-4 -3 -8 -3q-20 0 -17 22q4 35 7.5 71.5t6.5 74.5q-8 8 -24 18t-36 19q-21 6 -39.5 10t-34.5 4q-53 -4 -88 -54q-36 -45 -38 -100
q-2 -57 14.5 -143.5t52.5 -207.5q4 -10 0 -19l-2 -2q-2 0 -2.5 -0.5t-1.5 -4.5q-6 -1 -20 17q-13 36 -29.5 86t-37.5 117q-39 127 -41 176q-3 214 202 216q93 0 135 -86q8 54 16 106.5t17 107.5h-366z" />
    <glyph glyph-name="uni1F88.001" unicode="&#xe85;" horiz-adv-x="612" 
d="M521 237h-355q11 -39 22 -75t20 -76q12 25 28.5 39.5t36.5 23.5q15 8 35 11.5t41 3.5h20q75 -5 111.5 -49.5t36.5 -128.5q-8 -48 -32 -98.5t-65 -103.5h2q-3 -4 -5 -8q46 -43 95 -100q14 -16 5 -30q-1 -1 -6 -1h-5q-7 0 -16 11v-2q-147 148 -305 167q-14 3 -28 3
q-32 0 -63.5 -10.5t-64.5 -30.5q4 33 10 55.5t16 35.5q12 15 33 24.5t49 9.5q125 0 255 -111q28 44 44 91q14 49 15 98q-5 41 -27 66.5t-64 33.5l-3 2h-9q-52 0 -68 -4t-33 -13.5t-27 -21.5q9 -30 18 -59.5t15 -57.5v-15q0 -5 -6 -9q-5 -3 -8.5 0.5t-5.5 9.5
q-34 76 -69 157.5t-66 158.5l25 78h192q-1 25 -11 44q-10 25 -30 44h-189l30 80h432l-31 -80h-162v-19q0 -30 -10 -69h202z" />
    <glyph glyph-name="uni1F89.001" unicode="&#xe86;" horiz-adv-x="581" 
d="M531 480l-31 -80h-157q7 -39 8 -65h174l-30 -78v-506q0 -10 -3 -14q-10 0 -18 8q-133 120 -274 145q-16 4 -20 4h-29q-70 0 -132 -24q34 129 95 225q-43 36 -43 97v15q4 47 76 128h164q-8 20 -15 31q-15 26 -33 34h-170l30 80h408zM460 -195q0 205 -11 333
q-91 -81 -202 -81q-28 0 -49 1t-32 5q-20 -25 -33 -46.5t-19 -40.5q14 4 42 4q69 0 145 -43t159 -132zM136 256q-5 -13 -6.5 -21.5t-1.5 -14.5q0 -77 88 -98q5 -1 13.5 -2t17.5 -1q45 0 104 19q61 17 90 45q-11 57 -36 73h-269z" />
    <glyph glyph-name="uni1F8A.001" unicode="&#xe87;" horiz-adv-x="628" 
d="M400 -397l88 157q-5 18 -9 38q-34 96 -80 150t-105 71q-40 10 -103 10h-26q-21 -2 -43 -4t-48 -7q4 62 22 116t51 103h-111l25 79h224q-7 56 -51 83h-199l29 81h485l-38 -81h-188q0 -27 -3 -49q-1 -18 -3 -34h214l-32 -79h-254q-37 -27 -69 -60.5t-48 -69.5
q36 3 53.5 3.5t18.5 0.5q23 -1 38 -2.5t20 -2.5q37 -4 69.5 -15t58.5 -29q70 -51 128 -253l22 -101l37 -137zM508 -324q-2 12 -7 30q-2 5 -3 10q-9 -17 -15 -30.5t-15 -29.5q14 -3 24.5 -5t23.5 -3l-5 20v1q-2 3 -3 7z" />
    <glyph glyph-name="afii62841.030" unicode="&#xe88;" horiz-adv-x="599" 
d="M526 -340q0 -6 -2.5 -12.5t-7.5 -8.5q-6 0 -21 8q-94 66 -185.5 104.5t-179.5 51.5h-37q-44 -4 -80 -32q17 121 104 121q17 0 37 -4t39 -13q79 -29 155 -76.5t147 -108.5q0 124 -5 195q-1 69 -4 119t-5 82q-5 58 -19.5 96t-32.5 48h-90q4 -47 5.5 -81.5t1.5 -57.5v-193
q0 -13 -16 -13q-12 0 -16 11q-9 151 -26 234t-46 100h-65q2 -10 2.5 -18t0.5 -12v-60q-3 -19 -6 -22q-5 -20 -17 -34.5t-31 -24.5q-48 -24 -76 -98q-19 45 -19 81q0 34 35 69q0 1 4 4.5t13 9.5q8 7 18.5 16.5t25.5 22.5q12 20 12 66h-95l24 77h235q-23 77 -56 93h-201l31 80
h469l-30 -80h-188q4 -23 6.5 -41t2.5 -33v-19h234l-43 -72z" />
    <glyph glyph-name="afii62841.031" unicode="&#xe89;" horiz-adv-x="553" 
d="M483 -293h-155l2 -12q1 -6 1 -14v-11q0 -6 -2 -11v-5q21 -13 40 -28t34 -30.5t26 -31.5t17 -32v2q11 -31 19 -68.5t10 -72.5q2 -24 -22 -28q-6 0 -11 5t-5 11q-14 62 -31 104.5t-31 56.5q-24 -47 -69 -74t-117 -34q-79 4 -115.5 36t-33.5 84q1 18 11.5 39.5t30.5 39.5
q17 19 47 30t76 11q21 0 40.5 -1t35.5 -5q-9 24 -48 39h-202l36 72h338q13 15 24 33h-2q10 16 10 37q0 19 -12 44v-1q-28 38 -81 44q-52 5 -94 -48q41 -48 43 -75q5 -11 -6 -19q-2 -2 -4 -2h-4q-10 0 -16 10v-1q-13 12 -31.5 27.5t-35.5 28.5q-29 18 -62.5 26.5t-71.5 8.5
h-25q-3 -2 -8 -2h-8q19 45 40.5 74.5t47.5 42.5h-83l29 72h470l-24 -72h-289q-37 -7 -66.5 -18t-46.5 -23q37 -3 67.5 -16.5t54.5 -34.5q59 57 138 67q51 0 84.5 -12.5t50.5 -35.5q18 -23 18 -58v-9q0 -5 -1 -10q-6 -38 -54 -78h60zM187 -497q96 -1 154 70q-30 18 -73.5 27
t-91.5 10q-39 -10 -66 -25.5t-31 -30.5q6 -24 34 -37.5t74 -13.5z" />
    <glyph glyph-name="afii62841.032" unicode="&#xe8a;" horiz-adv-x="603" 
d="M380 -148l125 125q-63 137 -127 222q-67 90 -136 119q-22 -20 -39 -37t-27 -28q54 -13 81.5 -39t32.5 -66q-7 -133 -141 -129q-139 7 -135 168q0 97 69 213h-53l28 80h115q-121 -191 -121 -272q1 -111 93 -111q70 1 70 63q0 21 -24 39t-70 32q24 42 57.5 86t72.5 83h-62
l36 80h175l-19 -80h-31q-8 -3 -18 -11l-20 -16q119 -106 193 -309q-1 293 -58 340l21 76h94l-23 -76v-431l4 -2l-4 -195zM510 -67q-11 -11 -23.5 -24.5t-23.5 -26.5l22 -11q10 -5 23 -11z" />
    <glyph glyph-name="afii62841.033" unicode="&#xe8b;" horiz-adv-x="591" 
d="M517 287v-220h4l-35 -75h-212q-35 -15 -60 -36.5t-48 -50.5q61 -16 109 -65q25 39 55 60.5t79 21.5q30 0 55 -12t43.5 -33t28 -48t9.5 -58q0 -29 -12 -61t-31.5 -63.5t-42.5 -59t-44.5 -49t-37 -35t-18.5 -13.5q-9 0 -9.5 4.5t-0.5 7.5q0 6 3.5 10.5t11.5 11.5
q22 23 43.5 50t39 56t28.5 57.5t11 55.5q0 20 -5.5 40t-17.5 35.5t-33 25t-54 9.5q-53 0 -86 -39q6 -11 13 -25.5t13.5 -30t10.5 -29t4 -19.5q0 -8 -5 -9.5t-9 -1.5t-8 5.5t-8 10.5q-45 67 -94 96t-110 25q11 43 28 81.5t47 74.5h-91l36 75h371q-2 4 -2 9q-3 18 -7 37t-6 37
q-14 64 -35.5 100.5t-50.5 36.5h-81v-212q-53 40 -107 50q-57 13 -161 13h-16q-4 -4 -13 -4q6 53 23.5 91.5t46.5 61.5h-71l24 77h232q-3 13 -13 23q-12 11 -31 19h-204l30 74h504l-23 -74h-220v-5l-12 -37h247zM162 287q-30 -14 -55.5 -31t-41.5 -37q59 0 110.5 -19.5
t90.5 -56.5q-10 38 -20.5 72t-20.5 72h-63z" />
    <glyph glyph-name="afii62841.034" unicode="&#xe8c;" horiz-adv-x="549" 
d="M534 -229l-2 -30q-42 -85 -135.5 -54.5t-41.5 140.5q88 182 93 227q-1 36 -8 66t-16 53q-8 14 -21 24.5t-32 18.5q-17 9 -33 12.5t-35 3.5q-32 0 -57 -11t-42 -34q-6 -14 -6 -27q0 -22 31 -46q18 -12 50 -12h6q7 3 15.5 3.5t15.5 0.5q-10 -27 -23 -51t-28 -46
q-54 -4 -89 21q-33 28 -35 82q-2 57 40 110q41 53 99 70q29 7 64 7q23 0 48 -4q3 11 3 23q0 58 -46 82h-193q-28 -11 -47 -35.5t-27 -60.5v-16q0 -29 25 -66q-13 -17 -27.5 -35.5t-32.5 -41.5q-12 15 -21 36t-14 42q-6 26 -6 44q4 11 5 20t1 15q31 111 177 178h294l-35 -72
q14 -24 14 -49q0 -22 -8.5 -43.5t-22.5 -41.5q31 -20 50 -45t30 -57q10 -23 13 -99q-3 -36 -21.5 -75t-39.5 -78t-42 -73t-30 -60.5t0 -42.5t46 -17q10 0 18 1.5t13 6.5t10 12.5t12 17.5q5 6 11.5 8t14.5 6z" />
    <glyph glyph-name="afii62841.035" unicode="&#xe8d;" horiz-adv-x="25" 
d="M-167 532q11 -12 23 -28.5t23 -28.5h-55l-41 57l66 114q50 -24 99 -24q14 0 35 8q-3 -40 -54 -84h-14q-16 0 -32 3.5t-31 10.5z" />
    <glyph glyph-name="afii62841.036" unicode="&#xe8e;" horiz-adv-x="44" 
d="M-18 -306v-304q0 -9 -10 -14q-9 -1 -20 5q-97 57 -193 57h-19q-9 0 -18 -2q49 106 220 206v52h40zM-58 -396q-44 -26 -76 -54.5t-52 -57.5q38 -12 70 -30.5t58 -44.5v187z" />
    <glyph glyph-name="afii62841.037" unicode="&#xe8f;" horiz-adv-x="44" 
d="M-198 -306v-304q0 -9 -8 -14q-9 -1 -20 5q-98 57 -194 57h-18q-10 0 -19 -2q50 106 222 206v52h37zM-235 -396q-45 -26 -76.5 -54.5t-52.5 -57.5q39 -12 70.5 -30.5t58.5 -44.5v187z" />
    <glyph glyph-name="afii62841.038" unicode="&#xe90;" horiz-adv-x="44" 
d="M-217 -455l3 -17l-14 -20q7 -6 8.5 -11.5t1.5 -10.5q0 -16 -21 -30q51 -21 48 -63q0 -5 -6 -7t-12 6q-6 16 -24.5 26t-44.5 14h-17q-24 0 -55 -7q7 40 55 45q23 0 39 -5q11 12 9 18q0 8 -33 23h-67q-37 -14 -44 -33v-2q0 -17 13 -36q-6 -16 -38 -28q-18 27 -18 53
q-4 42 92 80h98q-76 33 -156 33h-14q-8 0 -17 -1q41 58 184 115l6 18l24 12v-172zM-247 -335q-37 -15 -63.5 -30t-43.5 -31q32 -8 57.5 -18t49.5 -25v104z" />
    <glyph glyph-name="afii62841.039" unicode="&#xe91;" horiz-adv-x="674" 
d="M594 16q1 -6 1 -12v-11q0 -51 -36 -90q-66 -43 -139 -43q-23 0 -46 5q-35 5 -73 23v-2q-52 22 -86.5 34t-51.5 16q-5 1 -11 1h-7q-24 0 -41 -7q23 -20 46.5 -41.5t44.5 -42.5q30 -29 81 -46q26 -8 45 -13t30 -5q10 -1 16 -1h18q97 0 158 32h-1q25 16 58 53t75 95
q9 12 17 8q11 -11 4 -27q-57 -108 -136 -167q-69 -51 -155 -58h147l-32 -65q10 -21 10 -44q0 -11 -2 -20t-5.5 -17.5t-10 -18.5t-14.5 -23q12 -10 24.5 -26.5t22 -34.5t15 -34t5.5 -22q0 -7 -0.5 -10.5t-8.5 -3.5t-10.5 3.5t-4.5 9.5q-15 24 -30.5 42.5t-34 31.5t-40.5 20
t-51 8q-7 0 -14 -0.5t-15 -2.5q13 34 27 47.5t35 13.5q11 0 25.5 -5.5t30.5 -16.5q8 17 11 25.5t3 22.5q0 17 -5.5 28.5t-16.5 23.5h-121q-23 -4 -33 -21.5t-10 -37.5q0 -13 2 -25.5t6 -30.5q-8 -20 -22 -36t-35 -32q-5 16 -7.5 34t-3.5 38q0 60 24 103.5t82 75.5h-8
q-85 9 -126 35q-9 4 -21.5 14t-28.5 29q-16 18 -26.5 36.5t-21.5 34.5q-16 22 -32 37.5t-34 27.5q37 43 95 43q6 0 13.5 -0.5t13.5 -1.5q27 -4 60 -17q47 -23 77.5 -34.5t48.5 -13.5l22 -4q11 -1 20.5 -3t19.5 -2q20 0 40.5 5t39.5 12q58 27 62 90q-70 127 -143.5 204
t-148.5 107q-27 -22 -45 -38t-29 -27q62 -13 92.5 -39.5t33.5 -67.5q-9 -133 -153 -127q-151 5 -147 166q2 99 75 218h-59l32 78h124q-132 -195 -132 -276q2 -111 102 -109q37 1 57 16.5t20 47.5q0 40 -105 70q27 44 64 88t80 85h-68l40 78h189l-21 -78h-34q-16 -8 -41 -30
q65 -53 117 -126.5t92 -166.5q0 275 -61 326l23 75h102l-24 -75v-388z" />
    <glyph glyph-name="afii62841.040" unicode="&#xe92;" horiz-adv-x="710" 
d="M690 480l-43 -96h-80q35 -48 54.5 -124.5t24.5 -178.5q-47 14 -93 21.5t-93 7.5q-170 0 -232 -184v2l-26 -128q-4 -31 -6 -51.5t-4 -31.5q-1 -21 -21 -21q-23 10 -19 31q4 62 8 125t6 127q58 219 316 219q25 0 50 -1t48 -6q-8 28 -21.5 55t-31.5 56q-20 32 -43.5 52
t-47.5 30h-307l42 96h519zM533 -573q-41 -121 -155 -121h-14q-7 0 -13 1q-13 -3 -27 0q-43 11 -86.5 80.5t-85.5 198.5q-30 89 -64 163t-71 134q-5 9 -1 19q0 6 5 8q17 10 27 -7q21 -31 40 -68t40 -79q12 -27 29 -65.5t39 -86.5q77 -198 170 -214q20 -5 40 -5q64 0 89 49
q2 12 2 23q0 19 -12 31.5t-36 18.5q-9 1 -17.5 3t-14.5 2q-25 0 -51 -18q22 110 102 98q70 -24 70 -109q0 -12 -1 -26.5t-4 -28.5v-1z" />
    <glyph glyph-name="afii62841.041" unicode="&#xe93;" horiz-adv-x="606" 
d="M547 81q0 -16 -6 -22h-25q-7 6 -7 24q1 307 -60 307h-102q2 -16 3 -27t3 -18q5 -40 6.5 -77t1.5 -72l-3 -89q0 -18 -11 -20q-11 -3 -23 8q-73 52 -145 79.5t-138 27.5h-22q-4 -1 -12 -1q32 119 90 189h-69l32 89h513l-26 -80v-318zM451 -342h1l25 46h-2q3 8 4.5 18
t1.5 20q0 93 -84 93q-37 0 -64.5 -8.5t-47.5 -25.5q12 -20 22 -44t16 -49q5 -18 -12 -26q-4 -2 -7.5 1t-6.5 8q-42 65 -96 98t-119 30q25 90 85 160h-90l44 86h387l-41 -86h-191q-35 -17 -63.5 -38t-50.5 -45q60 -20 103 -66q46 83 154 83q37 0 66.5 -20t48.5 -53
q6 -15 11 -31.5t5 -37.5q0 -30 -15 -71l-48 -59l63 -291q-31 29 -62.5 53t-63 40t-62.5 21.5t-63 -0.5zM184 390q-33 -22 -59 -48t-42 -52q56 -9 115 -43.5t125 -96.5q-7 185 -54 240h-85zM454 -403q-11 -13 -20.5 -24t-58.5 -60q31 0 61.5 -13t61.5 -40z" />
    <glyph glyph-name="afii62841.042" unicode="&#xe94;" horiz-adv-x="684" 
d="M400 479l-31 -89h-120q-42 -28 -73 -66t-46 -78h28q80 0 156 -16q62 91 159 159q-3 4 -6 5t-6 5l20 80h126l-22 -85v-277q0 -75 -10 -111q-14 -45 -63 -88q-33 -30 -76 -44.5t-96 -14.5q-31 0 -65 6t-64 19q-18 7 -40.5 15t-45.5 14h-18q-3 0 -9.5 -1.5t-15.5 -2.5
q12 -9 23 -23.5t22 -35.5q52 -108 201 -108q119 0 178 53q37 34 66.5 85.5t50.5 118.5q5 10 10.5 13.5t11.5 1.5q17 -8 16 -24q-22 -76 -51 -136.5t-57 -95.5q-33 -38 -77 -61v-270q0 -11 -7 -15q-10 -1 -22 5q-96 58 -192 58h-20q-10 0 -18 -3q49 105 223 207v3
q-55 -20 -120 -20q-83 1 -141 43.5t-88 117.5q-16 36 -34.5 58.5t-41.5 32.5q26 18 51 28t45 13q14 0 27.5 -1.5t24.5 -3.5q133 -50 177 -50h11q5 0 7 2q143 8 177 120q-28 25 -52.5 43.5t-47.5 30.5q-95 58 -216 62h-70q-26 -3 -46.5 -4t-38.5 -5q13 71 33 132t50 109h-85
l33 89h305zM532 281q-5 23 -12.5 42t-18.5 35q-43 -32 -80.5 -67.5t-64.5 -76.5q101 -48 183 -151q3 6 3 13v58q0 97 -10 147zM440 -362q-46 -26 -77.5 -53t-52.5 -56q40 -13 70.5 -31t59.5 -45v185z" />
    <glyph glyph-name="afii62841.043" unicode="&#xe95;" horiz-adv-x="671" 
d="M592 479l-21 -85v-277q0 -148 -45 -198q-65 -75 -186 -75q-25 0 -53 5t-60 13q-48 18 -74 26.5t-31 9.5h-15q-12 0 -25 -1q12 -11 23 -26.5t22 -33.5q52 -103 192 -103q55 0 103 12t79 30q38 28 66 80.5t42 128.5q7 20 22 18q18 -7 15 -27q-40 -216 -170 -290v-259
q0 -11 -7 -15q-10 -1 -22 5q-96 58 -192 58h-20q-10 0 -18 -3q44 94 188 186q-40 -10 -86 -10q-81 0 -139 44t-91 119q-14 33 -32.5 57t-40.5 34q24 18 48.5 27.5t45.5 10.5q13 0 27.5 -0.5t25.5 -5.5q64 -24 110 -35t67 -11h18q157 12 162 134q-111 95 -203 118
q-25 7 -52.5 11t-58.5 7q-10 0 -18.5 0.5t-17.5 0.5q-7 0 -16 -0.5t-18 -0.5q-31 -3 -52 -5.5t-33 -3.5q12 70 32.5 130.5t49.5 110.5h-86l35 89h510zM235 390q-87 -61 -118 -144h24q228 0 386 -183v15q0 142 -16.5 219.5t-47.5 92.5h-228zM440 -362q-46 -26 -77.5 -53
t-52.5 -56q40 -13 70.5 -31t59.5 -45v185z" />
    <glyph glyph-name="afii62841.044" unicode="&#xe96;" horiz-adv-x="673" 
d="M408 479l-32 -89h-64q0 -33 -2.5 -60t-7.5 -49q42 -31 92.5 -94.5t106.5 -158.5v157q-7 172 -50 204l32 90h95l-37 -97v-287q0 -75 -10.5 -123t-30.5 -68q-28 -32 -65.5 -48t-85.5 -16q-33 0 -69 7.5t-70 22.5q-27 10 -46.5 17t-31.5 9q-15 1 -27 0.5t-23 -4.5
q24 -20 45 -58q51 -106 191 -106h15q3 1 7 1q95 9 164 70.5t108 182.5q6 17 21 16q21 -5 15 -26q-55 -207 -173 -282v-263q0 -11 -7 -15q-10 -1 -22 5q-96 58 -192 58h-20q-10 0 -18 -3q43 94 187 185q-40 -11 -84 -11q-81 0 -139 43.5t-88 116.5q-14 34 -33.5 58t-40.5 34
q24 20 48 29t44 9q19 1 49 -5.5t67 -23.5q59 -27 117 -27q80 0 128 50q7 7 12.5 17.5t10.5 25.5q-34 48 -68 90t-66 77q-69 -146 -174 -147q-152 0 -155 147q0 98 69 146q36 22 86 22q19 0 40 -3t44 -12q-11 67 -41 97h-189l29 89h339zM172 228q-105 -4 -104 -85
q0 -36 29 -52t86 -16q87 -1 150 89q-75 67 -161 64zM439 -362q-46 -26 -77.5 -53t-52.5 -56q40 -13 70.5 -31t59.5 -45v185z" />
    <glyph glyph-name="afii62841.045" unicode="&#xe97;" horiz-adv-x="723" 
d="M399 479l-47 -89h-85q-46 -28 -74.5 -64t-44.5 -81q76 0 134.5 -9t99.5 -27q45 -21 90 -59t87 -92v66q-2 26 -2 46v33q0 143 -63 193l37 83h112l-42 -85v-277q0 -75 -10 -117q-6 -32 -22 -59.5t-42 -48.5q-49 -42 -117 -42h-17q-4 0 -8 -0.5t-11 -0.5q-63 0 -136 22
q-51 15 -80 15h-19q13 -6 27.5 -19t27.5 -27q39 -53 88 -80t107 -27q51 -1 93.5 18t77.5 57q21 26 46.5 68t51.5 96q12 24 25 16q12 -1 14 -10q1 -9 0 -16q-26 -70 -53.5 -122.5t-56.5 -85.5q-36 -40 -83 -64l-21 -32h10q3 2 9.5 3.5t15.5 1.5q67 0 85 -105
q10 -129 -113 -149q-42 -1 -85.5 17t-89.5 56q-28 22 -64 62t-81 94q-45 56 -81 94.5t-60 60.5q-13 11 -3 29q14 8 25 -3l209 -218q53 -46 101.5 -76.5t85.5 -37.5h12q7 0 13 1q102 19 97 67q-7 31 -48 31q-51 0 -90 -33q-1 15 1.5 35t7.5 44l26 42q-43 -14 -96 -16
q-125 -4 -216 159v-3q-21 36 -86 64q21 26 46 39.5t55 13.5q25 0 118 -24q24 -9 46 -12t40 -3h15q25 8 51.5 15.5t49.5 16.5q25 8 40 33t22 65q-55 46 -104 76t-97 44q-54 13 -113 16h-68q-27 -3 -48 -5.5t-38 -3.5q12 71 32 131t49 110h-63l35 89h263z" />
    <glyph glyph-name="afii62841.046" unicode="&#xe98;" horiz-adv-x="651" 
d="M614 479l-31 -75v-276q0 -113 -40 -183q-49 -89 -156 -89q-16 0 -34.5 2.5t-39.5 7.5q-44 16 -75 27t-53 21q-14 5 -23 6t-14 1q-18 3 -33 0.5t-27 -11.5q23 -19 55 -72q63 -102 202 -102h22q96 6 162.5 83.5t103.5 222.5q1 10 6.5 15.5t13.5 1.5q17 -7 15 -27
q-12 -70 -34.5 -131t-54.5 -112q-46 -67 -103 -100v-262q0 -11 -7 -15q-10 -1 -22 5q-96 58 -192 58h-20q-10 0 -18 -3q45 98 198 193q-23 -6 -47 -7q-5 -1 -12 -1h-11q-163 0 -235 144q-47 90 -94 109q66 53 126 53q21 0 50 -8.5t69 -23.5q38 -16 69.5 -24.5t51.5 -8.5
q27 0 52 10t49 26q50 51 52 190v47q0 35 -1 59.5t-1 37.5q-9 94 -49 122h-99q4 -98 4 -148v-216q0 -12 -18 -12q-16 0 -19 12q-5 80 -12 144t-17 111.5t-23 75t-27 33.5h-72q1 -13 3 -28.5t2 -29.5v-20q-4 -8 -4 -14q-1 -10 -3 -16.5t-2 -11.5q-6 -20 -18.5 -35t-33.5 -27
q-52 -28 -82 -112q-25 54 -25 89q0 53 45 82q27 17 41.5 29t16.5 18q19 37 22 76h-107l26 89h532zM440 -362q-46 -26 -77.5 -53t-52.5 -56q40 -13 70.5 -31t59.5 -45v185z" />
    <glyph glyph-name="afii62841.047" unicode="&#xe99;" horiz-adv-x="681" 
d="M571 479l-26 -84v-306q0 -218 -143 -245q-25 -3 -38 -3q-68 0 -137 42h2q-18 9 -34.5 16.5t-33.5 13.5q-5 1 -9 1h-8q-6 0 -13 -1q14 -13 27.5 -28t25.5 -33q31 -44 65 -70t65 -30q18 -4 24 -4h47q169 0 240 352q5 20 25 20q8 -4 10 -11.5t1 -18.5q-9 -66 -29.5 -132
t-49.5 -126q-42 -80 -92 -122q-9 -7 -17 -13v-270q0 -11 -7 -15q-10 -1 -22 5q-96 58 -192 58h-20q-10 0 -18 -3q47 102 212 201q-18 -6 -36 -6q-5 -3 -11 -3h-9q-77 0 -125 35q-42 28 -90 118q-21 33 -40 58t-41 39q30 43 71 43q22 0 100 -38v1q77 -37 113 -37
q139 0 144 165q-74 51 -147 76t-150 25h-23q11 79 32 139t55 102h-114q-30 -8 -49.5 -34t-26.5 -69q-3 -14 -5 -52.5t-3 -91.5q0 -54 -0.5 -111.5t-2 -115t-1.5 -115t-1 -111.5q0 -12 -5 -20t-13 -8q-20 0 -20 28v482q0 307 114 307h429zM355 390q-21 -18 -40 -37t-34 -37.5
t-27 -36.5t-18 -33q74 -7 138 -41t124 -99q0 66 -0.5 104.5t-0.5 49.5q-6 55 -17 89t-29 41h-96zM437 -362q-46 -26 -77.5 -53t-52.5 -56q40 -13 70.5 -31t59.5 -45v185z" />
    <glyph glyph-name="afii62841.048" unicode="&#xe9a;" horiz-adv-x="693" 
d="M350 390q11 -69 11 -148v-22q0 -41 -2 -99t-4 -128q-32 28 -56.5 49t-45.5 34q-38 29 -75.5 44t-73.5 20h-10q-1 0 -3.5 1t-3.5 1h-18q-13 -2 -24.5 -3.5t-21.5 -4.5q40 159 124 256h-103l27 89h524l-24 -89v-296q0 -67 -6 -94q-12 -42 -50 -76q-69 -63 -164 -63
q-65 0 -138 36q-46 27 -80 27q-14 1 -26.5 -2.5t-25.5 -13.5q14 -20 27 -38t22 -32q27 -40 81.5 -62t138.5 -22q175 0 282 251q11 22 24 17q18 -7 11 -29q-50 -153 -130 -231q-30 -29 -62 -47v-281q0 -11 -8 -14q-9 -2 -21 4q-96 58 -192 58h-20q-10 0 -19 -1
q50 103 224 205v11q-40 -16 -84 -18q-84 0 -149.5 31t-105.5 88q-15 21 -26 41t-17 33q-17 25 -40 35q54 56 113 56q31 0 108 -31q39 -13 67 -21t46 -8q74 0 124 45q34 31 45 67q11 27 10 81l-4 72v88q-7 49 -22 83.5t-38 50.5h-116zM239 390q-50 -39 -85 -80.5t-54 -78.5
q47 -6 100.5 -39t116.5 -102q-1 112 -10.5 187t-26.5 113h-41zM439 -354q-46 -26 -78 -53t-52 -57q40 -12 70.5 -30.5t59.5 -45.5v186z" />
    <glyph glyph-name="afii62841.050" unicode="&#xe9c;" horiz-adv-x="686" 
d="M540 -26q-18 16 -35 29q-41 35 -76.5 57.5t-72.5 32t-87 9.5q-16 0 -31 -0.5t-32 -1.5q23 181 106 295h-163q-27 -12 -44.5 -48.5t-27.5 -88t-15 -116t-5 -132.5l2 -262q-2 -22 -20 -25q-14 3 -15 25v620l68 112h525l-30 -85q4 -29 7 -60t5 -70.5t2.5 -90t0.5 -117.5v-83
h19l-19 -38v-15q-3 2 -5 5v-1q8 -16 9 -28.5t0 -19.5q-4 -16 -27 -52q29 -17 47 -52t24 -79q0 -6 -5 -9q-3 0 -10 1h-2q0 2 -1 4q-17 42 -43 66.5t-56 30.5h-22q-29 0 -66 -11q7 64 66 70q14 0 25.5 -1.5t22.5 -6.5q12 22 12 34q0 24 -40 49h-79q-47 -21 -57 -67h-2v-6
q0 -29 17 -55q-8 -29 -48 -45q-23 42 -23 82q0 83 118 144h83zM569 6q-5 158 -25.5 252.5t-58.5 136.5h-101q-81 -83 -118 -187q73 0 147.5 -48.5t155.5 -153.5zM678 -423q-9 -124 -141 -138q-14 -5 -25 -5q-41 0 -99.5 53.5t-128.5 150.5q-47 67 -98 126.5t-97 101.5
q-10 5 -10 14l2 2q2 2 2 4q9 6 18 -2h-2q28 -24 56 -52t56 -58q18 -20 43 -50t58 -68q60 -77 117.5 -116t103.5 -36q105 3 122 69q0 61 -70 61q-44 0 -70 -20q0 40 18 61q19 21 51 25q5 -4 12 -1q37 -6 58 -32q23 -31 24 -90z" />
    <glyph glyph-name="afii62841.051" unicode="&#xe9d;" horiz-adv-x="680" 
d="M276 -252q-112 28 -147 28q-36 0 -57 -12q26 -14 52.5 -31t52.5 -37q15 -11 27.5 -19t23.5 -9q25 -6 43.5 -9t29.5 -2q48 5 82.5 19t61.5 35q19 18 42.5 53.5t48.5 89.5q29 13 24 -16q-34 -116 -101 -178q-53 -49 -123 -62h84l-23 -48q6 -14 7 -25t0 -20q-2 -13 -26 -46
q30 -17 47 -51t25 -72q0 -8 -5 -10q-5 0 -11 1h-2q0 1 -2 4q-16 38 -42.5 61.5t-55.5 29.5h-23q-27 0 -65 -11q9 60 68 66q12 0 23 -1t25 -6q10 20 10 32q0 22 -38 47h-79q-47 -20 -58 -63l-1 -3v-3q0 -27 18 -52q-10 -28 -48 -43q-23 39 -23 77q0 76 111 133q-22 4 -42 13
q-9 4 -22.5 13t-34.5 22q-17 17 -32 33.5t-27 28.5q-16 16 -37 31.5t-39 22.5q34 53 115 53q14 0 29.5 -2.5t31.5 -5.5q38 -11 73 -17t65 -6q14 0 30 1q32 5 52 22.5t22 44.5q-1 39 -21.5 60.5t-58.5 21.5q-28 0 -51 -8t-41 -21q10 -18 20.5 -41t16.5 -43q2 -14 -6 -20
q-11 -3 -19 8q-82 113 -210 113q24 74 81 135h-86l42 77h363q-19 7 -37 11q-49 11 -96 14.5t-90 2.5q-86 0 -182 -25v21q0 101 9 126v-2q15 84 57 129h-90l42 72h467l-38 52l86 92q3 -2 16.5 -7t31.5 -11q22 -9 41.5 -12t38.5 -2q-10 -32 -66 -59h2q-3 -3 -10 -3q-3 2 -4 2
q-34 5 -59 23l-20 -12q11 -16 24 -33q11 -15 19 -30h10l-44 -72h-348q-16 -7 -32 -14.5t-26 -18.5q-11 -9 -15.5 -12t-5.5 -5h384l-30 -70h-380q-10 -15 -14 -31.5t-7 -29.5q72 13 125 13q239 -10 292 -69q26 -29 42.5 -52t25.5 -43q9 -17 14 -39t11 -50v1q2 -6 3 -10
q2 -2 3 -4q-4 -2 -7 -4t-5 -3q-18 -4 -25 6q-37 111 -99 149l-35 -68h-190q-69 -28 -113 -72q60 -19 102 -56q24 35 56.5 52.5t75.5 17.5q74 0 112 -62q6 -30 6 -51q0 -123 -162 -138z" />
    <glyph glyph-name="afii62841.052" unicode="&#xe9e;" horiz-adv-x="624" 
d="M298 -247q-56 12 -94.5 19.5t-55.5 7.5q-37 0 -60 -15q28 -12 56 -29.5t55 -35.5q13 -10 28 -18t23 -8q26 -6 45 -9t32 -3q45 6 84.5 20t63.5 34q23 17 45.5 51t49.5 85q31 18 25 -12q-35 -114 -103 -175t-165 -65q-21 -2 -47 2t-49 13q-8 1 -22 10t-35 23
q-17 16 -32.5 32t-27.5 28l-20 16q-10 8 -21 15.5t-21 13.5t-19 10q39 51 120 51q30 0 64 -7q41 -12 76 -17.5t67 -5.5q15 0 30 2q33 3 53 20t25 44q-2 39 -23.5 59.5t-62.5 20.5q-27 0 -51.5 -7.5t-44.5 -20.5q12 -18 23 -38.5t18 -41.5q4 -18 -8 -21q-13 -5 -18 7v-1
q-88 112 -217 111q25 75 84 134h-89l43 74h389q-161 94 -365 94q-32 0 -63.5 -3t-62.5 -8q1 59 18.5 110.5t46.5 94.5h-64l35 66h529l-33 -68v-281q0 -3 -3 -5h9l-39 -74h-240q-73 -28 -116 -72q63 -17 105 -54q23 35 58 51.5t79 16.5q77 0 115 -62q6 -25 6 -49
q0 -119 -166 -133zM196 414q-39 -21 -67.5 -51.5t-44.5 -70.5h16q230 0 410 -127q-6 108 -22.5 169.5t-41.5 79.5h-250zM441 -402l-23 -48q6 -14 7.5 -25t0.5 -20q-3 -13 -27 -46q30 -17 47.5 -51t24.5 -72q0 -8 -5 -10q-4 0 -10 1h-3q0 1 -1 4q-17 38 -43.5 61.5
t-54.5 29.5h-23q-28 0 -65 -11q8 60 67 66q12 0 23.5 -1t24.5 -6q11 20 11 32q0 22 -38 47h-80q-46 -20 -57 -63l-1 -3v-3q0 -27 18 -52q-10 -28 -48 -43q-23 39 -23 77q0 78 116 136h162z" />
    <glyph glyph-name="afii62841.053" unicode="&#xe9f;" horiz-adv-x="667" 
d="M564 70q11 -156 -179 -156h-37q-36 5 -73 23q-107 48 -142 54q-7 2 -12 2h-8q-14 0 -22 -2t-18 -8q24 -16 48 -40t46 -51q27 -32 48 -41q90 -27 111 -28q6 -3 15 -3h18q94 0 146 36q25 18 54 54t61 91q-12 11 -6.5 14t27.5 0q12 -15 2 -32q-24 -56 -55 -100t-68 -75
t-79.5 -45.5t-86.5 -14.5h-20q-10 0 -19 1q-43 5 -76 15.5t-54 22.5q-8 6 -21 17t-30 31q-15 21 -26.5 42t-22.5 39v-1q-34 47 -67 73q37 46 99 46q14 0 28 -1q26 -5 60 -22q91 -44 128 -49l24 -5q15 -4 33 -4q45 0 93 30q44 27 40 45q0 14 -4 31t-92 41t-197 24
q-37 0 -80 -5.5t-84 -15.5q1 88 24 158t67 130h-106l34 88h527l-34 -88h-315q-48 -34 -87 -82t-57 -101q27 2 50 3.5t44 1.5q268 -3 351 -143zM455 -254l-24 -48q7 -13 8 -24t0 -21q-4 -14 -26 -46q30 -17 47 -50t23 -74q0 -6 -4 -10q-4 0 -11 3h-1q0 1 -2 2
q-16 39 -42.5 63t-56.5 28h-22q-27 0 -65 -8q9 59 68 65q12 0 23 -2t22 -7q13 21 13 33q0 21 -39 47h-78q-47 -21 -58 -64l-2 -1v-5q0 -26 19 -52q-10 -27 -49 -40q-22 38 -22 75q0 77 115 136h164z" />
    <glyph glyph-name="afii62841.054" unicode="&#xea0;" horiz-adv-x="680" 
d="M571 70q11 -156 -179 -156h-37q-36 5 -73 23q-107 48 -142 54q-7 2 -11 2h-9q-13 0 -21.5 -2t-18.5 -8q24 -16 48 -40t46 -51q27 -32 48 -41q90 -27 111 -28q6 -3 15 -3h18q95 0 146 36q25 18 54 54t61 91q-12 11 -6.5 14t27.5 0q12 -15 2 -32q-24 -56 -55 -100
t-67.5 -75t-79.5 -45.5t-87 -14.5h-20q-10 0 -18 1q-44 5 -77 15.5t-54 22.5q-7 6 -20.5 17t-30.5 31q-15 21 -26.5 42t-22.5 39v-1q-33 47 -67 73q37 46 100 46q13 0 27 -1q27 -5 60 -22q91 -44 129 -49l24 -5q14 -4 32 -4q46 0 94 30q43 27 39 45q0 14 -4 31t-91.5 41
t-197.5 24q-37 0 -80 -5.5t-84 -15.5q1 88 24 158t67 130h-105l33 88h527l-34 -88h-315q-48 -34 -87 -82t-57 -101q27 2 50 3.5t45 1.5q267 -3 350 -143z" />
    <glyph glyph-name="afii62841.055" unicode="&#xea1;" horiz-adv-x="633" 
d="M508 51h-192q-30 -6 -60.5 -16.5t-52.5 -30.5q29 -8 55.5 -22.5t46.5 -32.5q45 73 155 73q77 0 102 -66q6 -8 6 -22q0 -17 -12 -39q-2 -15 -21.5 -35.5t-56.5 -47.5q-9 -10 -23 -7q-14 7 -8 22q41 23 41 41q5 18 5 34q0 52 -54 52q-40 0 -67.5 -8t-48.5 -23q6 -10 13 -19
t13 -18q2 -16 -6 -22q-14 -1 -22 10q-35 32 -84 49t-116 17q14 40 31.5 67t50.5 44h-87l43 78h183q-4 1 -7 6q-73 45 -146 69.5t-138 24.5h-23q-2 -1 -5 -1h-6q17 56 38.5 99t53.5 76h-70l31 77h514l-25 -71v-263q0 -22 -14 -24zM584 -212v-211q0 -11 -4 -11q-2 0 -5 4
q-67 38 -119.5 61t-85.5 27q-8 0 -17 1t-19 1q-17 0 -36 -4t-38 -12q2 33 21.5 51t56.5 20q9 0 23.5 -2.5t29.5 -6.5q3 18 3 31q3 32 -59 53h-84q-55 -33 -51 -80q5 -44 17 -63q-11 -12 -22 -22.5t-22 -20.5q-25 28 -25 73v17q-3 38 25 77.5t86 76.5h160l-22 -61
q33 -23 26 -47q-5 -14 -8 -23t-6 -14q30 -17 70 -42.5t86 -54.5q-2 22 -4 44.5t-4 38.5q-14 78 -54 101q8 15 15 30t13 28h66zM520 148q1 255 -60 255h-102q1 -17 2.5 -27t3.5 -18q9 -70 7 -132l-2 -80q0 -14 -7 -17h163q-5 6 -5 19zM195 403q-34 -23 -60 -46t-41 -47
q111 -15 240 -126q-6 167 -54 219h-85z" />
    <glyph glyph-name="afii62841.056" unicode="&#xea2;" horiz-adv-x="637" 
d="M429 42h-184q-33 -5 -61.5 -15t-48.5 -26q59 -18 100 -57q21 37 58.5 55t88.5 18q77 0 105 -41q12 -24 12 -50q0 -38 -27 -68l-71 -62q-6 -5 -10.5 -6.5t-13.5 -1.5q-12 6 -7 20q25 26 42 50t23 41q0 22 -18.5 35.5t-53.5 13.5q-72 0 -110 -28q14 -14 22 -23.5t15 -22.5
q5 -17 -7 -19q-5 -3 -10 -0.5t-8 7.5q-42 36 -94 54.5t-114 16.5q24 79 77 109h-81l44 77h343q-16 6 -34 9q-48 11 -93.5 16t-89.5 2q-84 0 -179 -27v24q0 103 9 128q14 85 56 131h-90l42 78h458l-34 50l83 96q5 -2 16.5 -7t29.5 -11q23 -9 42 -12.5t38 -2.5q-9 -34 -63 -60
h1q-4 -4 -11 -4q-4 1 -5 1q-31 5 -55 24l-22 -13q12 -17 24 -33q11 -15 20 -28h9l-44 -78h-342q-17 -6 -31.5 -14t-25.5 -18q-10 -10 -14.5 -13t-4.5 -4h377l-30 -73h-374q-9 -17 -14.5 -33.5t-6.5 -30.5q70 14 124 14q235 -10 287 -73q25 -29 41.5 -53t26.5 -43
q0 -2 1 -6.5t4 -6.5q6 -14 10 -25t8 -18q1 -6 2 -8.5t3 -4.5v-2q-6 -4 -9 -7q-18 -3 -25 7q-37 84 -95 118zM514 -212v-210q0 -11 -5 -11q-1 0 -6 3q-63 41 -111.5 62t-81.5 26q-9 0 -17.5 0.5t-17.5 0.5q-18 0 -36.5 -3.5t-35.5 -11.5q2 67 77 70q16 3 48 -7q4 16 4 30
q1 30 -54 51h-83q-50 -33 -49 -77q3 -45 15 -64q-9 -9 -20.5 -22t-21.5 -20q-22 27 -22 71v17q-4 37 23 76t81 77h157l-24 -60q31 -21 25 -46q-3 -11 -5 -19t-4 -13q0 -2 -0.5 -4.5t0.5 0.5v-3q26 -17 63.5 -41t82.5 -55q-2 23 -4.5 46t-3.5 39q-12 75 -51 98q6 15 13 30
t13 28h63z" />
    <glyph glyph-name="afii62841.057" unicode="&#xea3;" horiz-adv-x="644" 
d="M584 -189v-231q0 -8 -5 -22l-18 11q-63 39 -116 61q-54 22 -94 25l-16 2q-8 1 -16 1q-35 0 -77 -20q0 83 81 89q9 0 20.5 -1t23.5 -6q2 11 2 23q2 21 -11.5 38t-39.5 28h-79q-60 -41 -60 -89q1 -40 28 -66l-70 -48q-22 35 -22 83v15q8 102 128 176h166l-23 -65
q13 -13 20 -28t3 -33q-2 -17 -4.5 -28t-5.5 -16q35 -18 73.5 -40.5t79.5 -46.5q-4 38 -9 71q-12 93 -51 117l21 52q-18 -17 -39 -35q-5 -5 -11 -6.5t-11 -0.5q-13 9 -7 20q34 43 51 75.5t19 55.5q-15 42 -75 36q-31 -4 -54.5 -13t-41.5 -24q1 -4 4 -5l2 -5q11 -15 18 -27
t13 -21q5 -17 -4 -19q-12 -5 -22 6q-41 43 -92.5 64.5t-113.5 21.5q22 80 76 113h-80l34 67q-23 -19 -39 -42q-21 -24 -36 -53t-26 -63q-18 -70 -21 -89q-1 -21 -24 -21q-8 4 -11.5 11.5t-2.5 16.5q10 83 26 148.5t41 109.5h-2q62 126 337 126q26 0 50 -2t46 -6
q-1 26 -46 59t-93 36h-323l48 83h486l-38 -83h-42q63 -47 72 -196q-93 25 -182 25q-130 0 -205 -48h367l-37 -79h-189q-34 1 -61 -10t-49 -33q59 -20 101 -60q23 35 55 54.5t75 19.5q116 0 123 -98q-4 -35 -31 -71q-7 -11 -18 -21h82z" />
    <glyph glyph-name="afii62841.062" unicode="&#xea4;" horiz-adv-x="622" 
d="M594 480l-38 -82h-303q-49 0 -96 -36q-44 -32 -48 -60q23 5 48 7.5t49 2.5q260 0 324 -123q48 -90 66 -288q4 -12 0.5 -13t-18.5 8q-18 0 -21 10q-1 2 -6 16.5t-11 38.5q-2 5 -3 10t-2 9q-19 66 -63 150h1q-19 27 -48 45l-22 -66h-165q-34 -15 -63 -34t-50 -41
q31 -10 55.5 -25t47.5 -33q23 36 56 54.5t77 18.5q37 0 66 -17.5t48 -46.5q6 -14 10.5 -29.5t4.5 -32.5q0 -16 -28.5 -50.5t-82.5 -88.5q-11 -10 -25 -10q-12 8 -7 20q73 104 69 143q-4 17 -24 28.5t-52 14.5q-27 -2 -51.5 -8.5t-42.5 -21.5q13 -21 22.5 -35.5t15.5 -25.5
q6 -20 -4 -24q-12 -5 -22 9q-42 45 -95.5 68.5t-116.5 23.5q13 41 33.5 76.5t50.5 66.5h-89l42 77h326q-67 42 -179 42q-91 0 -186 -23q5 71 25 119.5t51 73.5h-88l48 82h514zM499 -204v-227q0 -11 -5 -11l-6 4q-134 81 -220 87q-10 0 -18 1h-17q-37 0 -72 -14q0 32 19.5 50
t57.5 22q9 0 22.5 -3t26.5 -8q3 9 4 16.5t1 13.5q3 51 -57 69h-84q-69 -39 -69 -90q2 -40 27 -65q-15 -9 -29.5 -19t-31.5 -20q-18 28 -18 71v18q7 45 37.5 88t89.5 75h160l-21 -60q30 -20 24 -54q-7 -34 -13 -46q79 -38 172 -96q-1 20 -3.5 42t-3.5 42q-8 43 -21 73t-31 41
q7 15 13.5 30t12.5 28h80z" />
    <glyph glyph-name="afii62841.063" unicode="&#xea5;" horiz-adv-x="615" 
d="M525 -165v-219l-6 -10q-144 84 -228 90q-9 0 -16 1h-17q-37 0 -75 -13q2 31 22 47t56 21q9 0 24 -3.5t29 -7.5q3 17 3 29q3 48 -58 65h-85q-70 -39 -70 -85q4 -39 30 -60q-17 -10 -32 -20t-31 -19q-17 28 -17 67v18q6 41 37.5 82t89.5 73h162l-22 -57q32 -21 26 -53
q-4 -16 -7.5 -26.5t-7.5 -16.5q78 -34 174 -92q0 21 -2.5 42.5t-5.5 37.5q-7 40 -20 69t-33 40q8 14 14 27q3 10 8 18q-33 -26 -81 -56q-11 -10 -24 -6q-11 6 -8 19q96 60 96 114t-65 54q-74 0 -113 -27q6 -9 11 -15.5t7 -12.5q6 -8 11 -14t8 -11q6 -17 -4 -21q-14 -4 -22 9
q-42 39 -95.5 59.5t-118.5 19.5q24 77 86 137h-90l42 73h402q-63 25 -129 38q-73 15 -155 15q-18 0 -36.5 -0.5t-37.5 -3.5q-32 0 -62 -2.5t-62 -8.5q2 46 18 89t46 85h-64l34 66h523l-33 -68v-210h7l-39 -73h-256q-36 -13 -64.5 -33t-48.5 -39q61 -18 102 -57q23 36 62 53
t93 17q37 0 63.5 -11.5t38.5 -31.5q8 -11 11.5 -25t3.5 -26q0 -19 -7 -39q-8 -22 -37 -46h72zM200 414q-75 -42 -109 -90q118 0 222 -21t197 -63q-4 70 -21.5 113t-42.5 61h-246zM480 -109l-5 -5q-5 -3 -8 -6q3 4 6 11h7z" />
    <glyph glyph-name="afii62841.064" unicode="&#xea6;" horiz-adv-x="639" 
d="M172 214h312l-22 -55q33 -16 33 -49v-26q0 -63 -30 -84l3 -4q30 10 58 10q87 0 108 -62q-18 2 -36.5 4t-33.5 2q-59 0 -102.5 -17.5t-74.5 -49.5q-6 -11 -14 -7q-4 1 -4 4t1 6v6q12 26 31 48t40 40q10 20 14.5 35t4.5 24l-6 2q-20 -45 -56 -53q-38 -15 -71 -15
q-11 0 -21 1q-65 13 -94 43q-6 9 -17 22.5t-26 34.5l-23 -287v-21q0 -12 -10 -13q-10 1 -10 10q0 97 0.5 193t0.5 194zM355 406q3 -40 4.5 -69t1.5 -50q0 -9 -0.5 -17t-0.5 -13v-29q0 -9 -17 -9q-18 0 -18 9q-1 26 -3.5 45t-5.5 32q-8 42 -25 66.5t-42 34.5h-74q2 -7 2 -15
v-13q0 -10 -1 -18.5t-2 -14.5q-15 -35 -48 -51q-40 -12 -50 -19q-19 -14 -34 -44q-20 37 -20 63q0 20 14 33q20 8 37 17t32 16q6 6 14 18t15 28h-104l26 74h538l-32 -66v-266q0 -13 -21 -13q-15 0 -15 12q-4 25 -8 53t-7 55q-12 66 -26 105.5t-33 45.5h-97zM564 -192v-218
q0 -11 -5 -11q-3 0 -6 4q-99 77 -199 84q-17 2 -36 2q-23 0 -60 -15q2 63 64 67q10 1 22 -1t29 -5q3 8 4 14.5t1 14.5q2 46 -59 64h-85q-45 -33 -39 -92q4 -23 7.5 -38t9.5 -22q-12 -13 -23 -24.5t-21 -25.5q-17 28 -17 68v17q-6 72 91 174h161l-22 -58q29 -20 22 -53
q-4 -18 -5.5 -28.5t-4.5 -17.5q46 -17 83.5 -39.5t66.5 -53.5q-1 22 -3 44.5t-4 39.5q-6 42 -19 70.5t-34 38.5q6 15 13.5 28.5t14.5 28.5h63zM190 132q-1 -3 -4 -11.5t-9 -21.5q66 -75 147 -75q78 0 105 27q36 12 34 54q-13 45 -108 54h-118q-30 -10 -47 -27z" />
    <glyph glyph-name="afii62841.065" unicode="&#xea7;" horiz-adv-x="25" 
d="M-79 -223h73l-19 -71h-203q-38 -16 -48 -41q18 5 37 6t41 1q44 0 75 -11t47 -29q21 -20 30.5 -41.5t11.5 -38.5q3 -52 -33 -84t-118 -36q-71 8 -116.5 35t-66.5 73q-17 -14 -32.5 -56.5t-31.5 -103.5q0 -6 -5 -11t-11 -5q-22 2 -21 28q1 33 10 71.5t20 68.5v-1
q6 15 16.5 31.5t25 32t34.5 30t39 28.5v5q-1 5 -1 11v11q0 7 0.5 13.5t2.5 12.5h-154l19 71l325 2q13 15 24 33h-2q10 16 10 37q0 19 -12 44v-1q-28 38 -81 44q-52 5 -94 -48q41 -48 43 -75q5 -11 -6 -19q-2 -2 -4 -2h-4q-10 0 -16 10v-1q-13 12 -31.5 27.5t-35.5 28.5
q-29 18 -62.5 26.5t-71.5 8.5h-25q-3 -2 -7 -2h-9q19 45 40.5 74.5t47.5 42.5h-83l29 72h470l-24 -72h-289q-37 -7 -66.5 -18t-46.5 -23q37 -3 67.5 -16.5t54.5 -34.5q59 57 138 67q51 0 84.5 -12.5t50.5 -35.5q18 -23 18 -58v-9q0 -5 -1 -10q-6 -38 -54 -78zM-182 -498
q48 0 75.5 13t33.5 37q-5 16 -32 31.5t-65 25.5q-48 -3 -91.5 -11t-75.5 -26q60 -72 155 -70z" />
    <glyph glyph-name="afii62841.066" unicode="&#xea8;" horiz-adv-x="822" 
d="M616 51l-11 -22q-7 -14 -19.5 -30t-31 -32.5t-45 -29.5t-61 -21t-78.5 -8q-62 0 -107.5 17t-78 41t-54 50.5t-32.5 44.5q-30 0 -47 6.5t-24.5 16t-10 17.5t-2.5 9q0 6 5 9t11 3q6 1 16.5 2.5t21.5 2.5q8 1 15.5 1t13.5 2q11 0 19 8.5t16 26.5q7 19 16 36t18 31
q-21 29 -30 55t-9 47t6 37.5t13 30.5t16.5 24t17.5 15h8q-4 -14 -4.5 -25.5t-0.5 -22.5q0 -27 7 -47q9 -15 19 -26.5t21 -19.5q7 7 18.5 14.5t24.5 13.5t25 11.5t21 8.5q14 7 18.5 16.5t4.5 23.5q0 32 -18 63q-16 29 -53 41v9q18 10 33 10q30 0 53.5 -15.5t39 -39
t23.5 -49.5t9 -46q23 0 38 7.5t24 21t13 28.5t4 33q0 11 -0.5 20t-3.5 18l4 10q17 -11 28.5 -25.5t18.5 -29.5t10 -31.5t3 -30.5q0 -30 -7 -51q6 -3 12.5 -7.5t16.5 -13.5q36 24 63.5 33t51.5 9q28 0 44.5 -9t22.5 -13v-11q-26 -1 -47.5 -8.5t-38 -18t-27.5 -23.5t-20 -26
q7 -19 11.5 -40t3.5 -34q40 -19 67 -26t44 -7q15 0 26 4.5t21 7.5l1 -9q-5 -22 -13 -35.5t-18.5 -22t-23 -11.5t-24.5 -3q-16 0 -37 5.5t-45 14.5t-46 19.5t-40 21.5q1 -2 1 -5v-7q0 -20 -6 -37t-15 -31t-19.5 -26t-19.5 -19q0 -2 0.5 -3.5t2.5 -2.5q10 4 25 13.5t29 22
t26.5 26.5t19.5 27zM375 -23q-9 1 -26 7t-33 18t-28 32t-12 50q0 42 26 66q26 25 62 31l5 -12q-11 -11 -16 -26.5t-5 -32.5q0 -11 2 -23t8 -21.5t16.5 -18.5t22.5 -13q1 4 3 6.5t3 5.5q-15 6 -25.5 22.5t-10.5 36.5q0 11 4 21t12 18.5t20 14t27 5.5q16 0 27 -6t18 -15
t10 -18t3 -16q0 -15 -3 -26t-14 -25q1 -2 2 -4.5t4 -5.5q23 16 30 48q3 9 3 20q0 18 -11 38q0 2 -1.5 3.5t-3.5 2.5q-5 8 -11 14q-9 6 -39 14t-78 8q-39 0 -71.5 -10.5t-58.5 -25.5t-44 -30t-29 -26l-5 -4q13 -22 33 -45t48 -41.5t61 -30t72 -12.5zM278 -258l142 148v14
l34 -27v-218zM417 302q-20 0 -41 -5t-43.5 -13t-45.5 -21.5t-44 -32.5q30 16 62 23.5t76 7.5q27 0 50 -3t48.5 -11.5t55 -22t69.5 -34.5q-16 50 -65.5 78t-121.5 34zM415 -166q-12 -13 -23.5 -26.5t-25.5 -28.5q10 -6 24 -12.5t25 -11.5v79zM236 223l7 7q-2 -1 -5.5 -2.5
t-6.5 -4.5l5 -1v1zM608 187q-2 0 -4 3v-4z" />
    <glyph glyph-name="afii62841.067" unicode="&#xea9;" horiz-adv-x="676" 
d="M452 479l-29 -85h-119q59 -40 127.5 -108.5t151.5 -169.5q-6 244 -73 279l27 84h114l-36 -84v-307q0 -32 -14 -35h-1l-2 -1v-2q-7 0 -16.5 7t-17.5 14q-86 93 -180 167.5t-190 121.5q-28 -20 -50.5 -43.5t-38.5 -46.5q59 -12 111 -44t99 -80q17 -20 7 -39l-3 -3h-1
q-2 -1 -6 -1h-6l-2 1h-3q-4 3 -7 3q-110 77 -238 77q-7 0 -16.5 -1.5t-15.5 -1.5q25 69 51.5 121.5t53.5 91.5h-102l24 85h401zM472 -174q-2 -8 -11 -22t-26 -28.5t-44 -26t-67 -11.5q-38 0 -65.5 10.5t-46.5 25.5t-31.5 30.5t-20.5 26.5q-18 0 -27.5 4t-15 9.5t-6.5 10.5
t-1 6q0 9 10 9q4 2 15 3t18 1q3 0 5 1h2q14 0 20 22q8 20 20 37q-12 17 -17.5 32.5t-5.5 29.5q0 12 5 23t11 19.5t12 15.5t12 12q-5 -22 -5 -35q0 -20 9 -34t20 -20q11 10 25 16.5t25 13.5q10 1 11.5 7t1.5 15q0 19 -9 36t-30 25v8q8 5 19 5q18 0 32 -9.5t24 -23.5
t15.5 -29.5t5.5 -27.5q13 0 21.5 5t13 11.5t6.5 15t2 17.5q0 16 -4 27l6 7q20 -13 29.5 -33.5t9.5 -39.5q0 -7 -2 -15t-4 -14q9 -5 18 -12q20 14 38 19.5t31 5.5q15 0 25.5 -4t15.5 -7v-10q-35 -5 -53 -17.5t-26 -29.5q5 -6 5 -11v-14q0 -11 1 -17v1q11 -17 23.5 -23.5
t23.5 -6.5q12 0 22.5 5.5t16.5 8.5q3 0 4 2t7 7v-12q-6 -29 -19.5 -37.5t-29.5 -8.5q-20 0 -50 12l-26 13q-12 6 -22 12q2 -26 -10 -44q-6 -10 -12.5 -17.5t-12.5 -13.5q14 7 32 22.5t27 32.5zM326 -220q-7 0 -16.5 4.5t-20 12t-17.5 19.5t-7 29q0 25 17.5 40t36.5 21l5 -9
q-5 -7 -8 -17.5t-3 -19.5q0 -12 6.5 -24t22.5 -18v3l1 1q-10 5 -15.5 14t-5.5 22q0 14 10.5 26t27.5 12q10 0 17.5 -4.5t11.5 -10t6 -11.5t2 -10q0 -16 -10 -29q0 -3 1 -5q10 7 15 16.5t5 21.5q0 11 -8 23l-1 2q-1 1 -2 3v-1q-1 5 -5 6q-1 3 -12 4.5t-26 3t-31 2.5t-29 1
q-24 0 -45 -7.5t-37.5 -16.5t-26.5 -18.5t-14 -13.5q6 -14 21.5 -27t38 -23.5t47 -16.5t48.5 -6v1zM352 -25q-22 1 -46 -7.5t-47 -28.5q15 7 32 10t39 3q15 0 30 -1t29 -6t30.5 -11.5t40.5 -16.5q-24 53 -108 58zM259 -61q-5 -1 -9 -3.5t-9 -5.5l6 -2z" />
    <glyph glyph-name="afii62841.068" unicode="&#xeaa;" horiz-adv-x="674" 
d="M464 -27q-3 -9 -12 -23t-26.5 -28t-44.5 -24t-66 -10q-38 0 -65.5 10t-47 24t-31.5 28.5t-21 25.5q-17 2 -27 5.5t-15 9t-6 10.5t-1 6q0 9 10 9q2 2 7 2.5t13 0.5h11q4 0 8 2q13 0 20 22q4 11 10 21t12 18q-15 18 -20 33t-5 29q0 10 4.5 21t10.5 19.5t12 15.5t13 10
q-2 -10 -3 -18.5t-1 -14.5q0 -21 8 -34t19 -19q11 9 26.5 16.5t26.5 11.5q12 7 12 24q0 18 -9 35.5t-31 24.5v10q6 2 20 2q18 0 31.5 -9t24 -23t16.5 -29.5t6 -26.5q24 0 33.5 16t9.5 34q0 14 -5 25l6 7q19 -13 28 -33.5t9 -40.5q0 -8 -0.5 -15t-5.5 -13q10 -2 19 -10
q23 14 40 19t30 5q17 0 26 -5t14 -9v-10q-33 -2 -51 -15t-26 -28q1 -6 1.5 -12t0.5 -12q0 -5 0.5 -10t3.5 -10q11 -16 23 -23t21 -7q11 0 21 4.5t18 8.5h-2l7 3q3 2 8 -2q-4 -15 -8.5 -23.5t-11.5 -14t-14.5 -7.5t-13.5 -2q-11 0 -24 3t-29 11q-14 6 -25 11t-22 11
q1 -12 -2 -24t-8 -22t-13 -16.5t-14 -11.5h2q8 1 16 7.5t16.5 14.5t16 16.5t11.5 16.5zM647 480l-27 -88h-243l2 -1v-16q0 -23 -4 -50t-12 -59h-31q-3 74 -51 126h-227l32 88h561zM590 -332q3 -20 -3 -26q-11 0 -30 12q-102 73 -196.5 112t-172.5 39q-50 0 -94 -12.5
t-82 -37.5q5 140 114 140h21q8 0 14 -1h-2q119 -7 218 -59q39 -21 82.5 -53t91.5 -75q-4 48 -7 96t-5 96q-9 13 -9 25q0 28 60 52v-308zM315 -74q-6 2 -16 6t-20 10.5t-17 18.5t-7 29q0 14 4.5 25t12 17.5t18 12t21.5 7.5l4 -9q-6 -6 -9 -16.5t-3 -19.5q0 -13 6 -25t20 -18
q2 1 2 2.5t1 3.5q-7 4 -14 12.5t-7 21.5q0 12 10.5 25.5t29.5 13.5q9 0 16.5 -4.5t12 -10.5t6 -12t1.5 -10q0 -16 -10 -28l3 -5q17 13 17 37q0 12 -7 24l-2 1l-2 4v-1q0 1 -0.5 3t-1.5 3q-7 5 -25 9.5t-47 4.5q-23 2 -43.5 -5.5t-36.5 -17t-27 -19t-16 -14.5v-1
q9 -12 20.5 -25.5t26.5 -23.5q31 -24 79 -26zM342 122q-47 2 -95 -36q16 6 34 10t39 4q17 0 30 -2t29 -6.5t32.5 -13t39.5 -20.5q-11 29 -38.5 44.5t-70.5 19.5zM236 75q1 4 5 5.5t6 5.5q-5 -1 -8.5 -3.5t-7.5 -3.5zM458 56q-2 0 -3.5 1t-3.5 1q2 0 2 -1v-3z" />
    <glyph glyph-name="afii62841.069" unicode="&#xeab;" horiz-adv-x="678" 
d="M458 479l-29 -85h-120q59 -40 128 -108.5t152 -169.5q-8 244 -74 279l28 84h113l-35 -84v-307q0 -32 -14 -35h-2l-1 -1v-2q-8 0 -17 7l-18 14q-85 93 -179 167.5t-190 121.5q-28 -20 -50.5 -43.5t-38.5 -46.5q59 -12 111 -44t98 -80q18 -20 8 -39l-3 -3h-2q-1 -1 -6 -1
h-6l-2 1h-2q-4 3 -9 3q-15 10 -30 19q10 -8 17 -18q11 -13 16.5 -28.5t5.5 -27.5q24 1 34 16t10 33q0 13 -5 25l7 7q18 -12 27 -33t9 -39q0 -8 -0.5 -14.5t-5.5 -12.5l10 -6q5 -3 8 -5q23 13 40 18.5t31 5.5q16 0 26 -5.5t14 -7.5v-11q-34 -3 -52.5 -16t-25.5 -30
q2 -7 2 -21q0 -6 0.5 -11.5t3.5 -10.5v1q11 -17 22 -24t22 -7q15 0 25 6t17 10l3 2q3 1 8 2v-7q-5 -13 -9.5 -22t-11.5 -14t-14 -7t-14 -2q-21 0 -53 14q-12 5 -24 11t-22 12q3 -12 -1.5 -23.5t-8.5 -21.5q-6 -9 -12 -17t-12 -13v-1q7 4 15.5 9.5t16 13t15 17t11.5 19.5
l5 -26q-3 -10 -11.5 -24.5t-25.5 -28t-44.5 -24.5t-67.5 -11q-36 0 -62 9t-45 22t-32 28t-21 26q0 1 -1.5 3t-2.5 3q-18 0 -28 5t-15 10.5t-5.5 9.5t-0.5 6q0 8 9 9q2 2 7 2h13q7 1 12 1h8q12 0 19 22q6 12 11 21.5t11 16.5q-15 17 -19.5 32.5t-4.5 30.5q0 11 4.5 22
t10 19.5t13 16t13.5 11.5q-5 -22 -5 -33q0 -23 8.5 -35.5t21.5 -19.5q11 8 24.5 16.5t24.5 13.5q10 1 11 5.5t1 16.5q0 9 -2.5 18t-7 17.5t-12 15t-18.5 8.5v10q8 3 20 3q10 0 19 -3q-88 47 -186 47q-7 0 -17 -1.5t-16 -1.5q26 69 51.5 121.5t54.5 91.5h-102l24 85h401z
M254 -176q-10 3 -20 11t-16.5 19.5t-6.5 27.5q0 29 16 43t38 19l4 -9q-6 -7 -9 -16.5t-3 -20.5q0 -12 6 -23.5t22 -18.5q1 2 2 5q-8 5 -14.5 14.5t-6.5 21.5t10 24.5t29 12.5q11 0 17.5 -3t11 -8.5t7 -12.5t2.5 -13q0 -15 -12 -28l3 -5q19 15 19 39q0 13 -7 20q0 1 -1 3v1
q-1 2 -3 4.5t-4 2.5q-4 4 -14.5 5t-25.5 3t-30 2.5t-30 0.5q-23 0 -43 -6t-36.5 -15.5t-27 -18.5t-15.5 -14q6 -15 22 -28t38.5 -22.5t47 -15t47.5 -7.5zM297 13q-22 1 -46.5 -7t-48.5 -29q16 6 33.5 10.5t39.5 4.5q15 0 28.5 -2.5t28 -8t32.5 -14t41 -19.5q-8 29 -36.5 46
t-71.5 19zM191 -34l11 11q-7 -2 -14 -7zM405 -52l1 -1z" />
    <glyph glyph-name="afii62841.070" unicode="&#xeac;" horiz-adv-x="712" 
d="M416 -98q1 -11 -1 -21q-3 -12 -9 -21q-6 -8 -11.5 -15.5t-11.5 -12.5v-1q7 2 15.5 8t16 14t15 17t12.5 16l6 -25q-4 -7 -12.5 -22t-25 -29.5t-43.5 -25t-68 -10.5q-11 0 -22 1q54 -15 103 -40q40 -22 84.5 -55.5t92.5 -73.5q-3 48 -6 95t-6 95q-10 14 -10 25q0 29 59 53
l2 -308q2 -21 -4 -27q-11 0 -28 15q-212 150 -368 150q-104 0 -179 -50q3 141 115 141h20q8 0 14 -1q32 -3 63 -8q-27 11 -44 24q-19 14 -32 29t-19 25q-20 0 -29.5 5.5t-14.5 11t-6 11.5v5q0 7 11 7q2 2 7 3t11 2q12 0 20 2q12 0 18 19q5 10 11.5 20t10.5 20q-12 17 -17 33
t-5 28q0 25 11 41.5t20 23.5h10q-4 -11 -5 -18t-1 -14q0 -20 8 -32.5t18 -20.5q11 9 26.5 17t27.5 14q10 2 11 7.5t1 14.5q0 19 -10 37t-34 30q16 6 24 6q18 0 32 -8.5t24 -22.5t15.5 -29.5t6.5 -28.5q23 0 33 17t10 36q0 5 -0.5 11.5t-2.5 9.5l2 9q11 -5 18.5 -13.5
t12 -18.5t6 -20.5t1.5 -19.5q0 -7 -0.5 -15t-2.5 -14q5 -4 9 -7t9 -5q21 16 38 21t29 5q18 0 29 -5t13 -9v-10q-32 -2 -51 -15t-28 -30q3 -5 3 -12v-12q0 -5 1 -10.5t3 -6.5q12 -18 23 -24.5t23 -6.5q13 0 23.5 4.5t16.5 9.5q2 0 5 2.5t6 2.5v-10q-5 -26 -20 -34.5t-29 -8.5
q-20 0 -52 12q-15 9 -26 13t-22 12v-3q2 -1 4 -3zM482 479l-28 -85h-118q59 -40 126.5 -108.5t150.5 -169.5q-6 244 -72 279l27 84h114l-35 -84v-307q0 -30 -16 -35h-1v-1q0 -2 -1 -2q-6 0 -16.5 7t-18.5 14q-85 93 -179.5 167.5t-190.5 121.5q-27 -20 -50 -43.5t-36 -46.5
q58 -12 109.5 -44t98.5 -80q18 -20 8 -39l-4 -3h-2q-1 -1 -3 -1h-3q-2 0 -4 0.5t-3 0.5h-3q-2 3 -8 3q-109 77 -238 77q-6 0 -15 -1.5t-17 -1.5q26 69 52.5 121.5t54.5 91.5h-103l24 85h400zM299 -184q-7 0 -17 4t-20 11.5t-16 20t-6 29.5q0 16 6 27.5t19 19.5
q-21 -5 -41.5 -10.5t-37 -11.5t-27.5 -10.5t-15 -9.5q6 -12 23.5 -25t38 -23.5t45.5 -16.5t48 -6v1zM325 10q-20 0 -45.5 -8.5t-49.5 -26.5q15 6 32.5 9.5t41.5 3.5q16 0 30 -1t29 -6t31 -12t39 -18q-11 26 -38.5 41t-69.5 18zM298 -70q-6 -6 -10 -16t-4 -18q0 -14 7 -25
t23 -17q0 1 2 4q-10 5 -15.5 14.5t-5.5 20.5q0 15 10.5 26t29.5 11q8 0 15.5 -3.5t12 -9t6 -11.5t1.5 -10q0 -15 -11 -28q2 -2 2 -3t1 -4q18 14 18 37q0 13 -7 25v-1l-1 1q-13 5 -24.5 8t-22.5 3h-15q-6 0 -15 -1v8q-7 -2 -15.5 -5t-14.5 -8q7 1 15 1.5t15 3.5zM218 -36
q3 2 5 4l7 7q-4 -3 -8.5 -5t-7.5 -5z" />
    <glyph glyph-name="afii62841.072" unicode="&#xeae;" horiz-adv-x="677" 
d="M570 225h-206v-12q0 -41 21 -58q8 -7 27.5 -19.5t54.5 -28.5q34 -13 57 -25.5t35 -22.5q48 -42 48 -109q0 -58 -25 -91q-32 -46 -76 -67.5t-100 -21.5q-40 0 -80 11.5t-77 36.5q-48 30 -107 92t-129 160l54 79q2 -2 56 -79q192 25 192 142v13h-272l47 84h220
q-3 18 -13 37q-15 23 -38 44h-201l42 89h428l-44 -89h-132q1 -8 2 -19t1 -20q0 -13 -2 -25q0 -8 -2 -17h178q-12 33 -12 60v11q0 42 52 93q49 49 55 76q10 -22 16 -39.5t6 -30.5q0 -14 -11.5 -35.5t-30.5 -44.5q-18 -24 -29 -41.5t-11 -27.5v-21h48zM475 0q-50 20 -88 42
t-64 47q-30 -27 -67 -49.5t-85 -41.5q37 -46 61.5 -71t53.5 -43q56 -40 135 -40q74 0 116 45v-1q7 15 7 33q0 52 -69 79z" />
    <glyph glyph-name="afii62841.073" unicode="&#xeaf;" horiz-adv-x="674" 
d="M464 -27q-3 -9 -12 -23t-26.5 -28t-44.5 -24t-66 -10q-38 0 -65.5 10t-47 24t-31.5 28.5t-21 25.5q-17 2 -27 5.5t-15 9t-6 10.5t-1 6q0 9 10 9q2 2 7 2.5t13 0.5h11q4 0 8 2q13 0 20 22q4 11 10 21t12 18q-15 18 -20 33t-5 29q0 10 4.5 21t10.5 19.5t12 15.5t13 10
q-2 -10 -3 -18.5t-1 -14.5q0 -21 8 -34t19 -19q11 9 26.5 16.5t26.5 11.5q12 7 12 24q0 18 -9 35.5t-31 24.5v10q6 2 20 2q18 0 31.5 -9t24 -23t16.5 -29.5t6 -26.5q24 0 33.5 16t9.5 34q0 14 -5 25l6 7q19 -13 28 -33.5t9 -40.5q0 -8 -0.5 -15t-5.5 -13q10 -2 19 -10
q23 14 40 19t30 5q17 0 26 -5t14 -9v-10q-33 -2 -51 -15t-26 -28q1 -6 1.5 -12t0.5 -12q0 -5 0.5 -10t3.5 -10q11 -16 23 -23t21 -7q11 0 21 4.5t18 8.5h-2l7 3q3 2 8 -2q-4 -15 -8.5 -23.5t-11.5 -14t-14.5 -7.5t-13.5 -2q-11 0 -24 3t-29 11q-14 6 -25 11t-22 11
q1 -12 -2 -24t-8 -22t-13 -16.5t-14 -11.5h2q8 1 16 7.5t16.5 14.5t16 16.5t11.5 16.5zM647 480l-27 -88h-243l2 -1v-16q0 -23 -4 -50t-12 -59h-31q-3 74 -51 126h-227l32 88h561zM590 -332q3 -20 -3 -26q-11 0 -30 12q-102 73 -196.5 112t-172.5 39q-50 0 -94 -12.5
t-82 -37.5q5 140 114 140h21q8 0 14 -1h-2q119 -7 218 -59q39 -21 82.5 -53t91.5 -75q-4 48 -7 96t-5 96q-9 13 -9 25q0 28 60 52v-308zM315 -74q-6 2 -16 6t-20 10.5t-17 18.5t-7 29q0 14 4.5 25t12 17.5t18 12t21.5 7.5l4 -9q-6 -6 -9 -16.5t-3 -19.5q0 -13 6 -25t20 -18
q2 1 2 2.5t1 3.5q-7 4 -14 12.5t-7 21.5q0 12 10.5 25.5t29.5 13.5q9 0 16.5 -4.5t12 -10.5t6 -12t1.5 -10q0 -16 -10 -28l3 -5q17 13 17 37q0 12 -7 24l-2 1l-2 4v-1q0 1 -0.5 3t-1.5 3q-7 5 -25 9.5t-47 4.5q-23 2 -43.5 -5.5t-36.5 -17t-27 -19t-16 -14.5v-1
q9 -12 20.5 -25.5t26.5 -23.5q31 -24 79 -26zM342 122q-47 2 -95 -36q16 6 34 10t39 4q17 0 30 -2t29 -6.5t32.5 -13t39.5 -20.5q-11 29 -38.5 44.5t-70.5 19.5zM236 75q1 4 5 5.5t6 5.5q-5 -1 -8.5 -3.5t-7.5 -3.5zM458 56q-2 0 -3.5 1t-3.5 1q2 0 2 -1v-3z" />
    <glyph glyph-name="afii62841.094" unicode="&#xeb0;" horiz-adv-x="678" 
d="M458 479l-29 -85h-120q59 -40 128 -108.5t152 -169.5q-8 244 -74 279l28 84h113l-35 -84v-307q0 -32 -14 -35h-2l-1 -1v-2q-8 0 -17 7l-18 14q-85 93 -179 167.5t-190 121.5q-28 -20 -50.5 -43.5t-38.5 -46.5q59 -12 111 -44t98 -80q18 -20 8 -39l-3 -3h-2q-1 -1 -6 -1
h-6l-2 1h-2q-4 3 -9 3q-15 10 -30 19q10 -8 17 -18q11 -13 16.5 -28.5t5.5 -27.5q24 1 34 16t10 33q0 13 -5 25l7 7q18 -12 27 -33t9 -39q0 -8 -0.5 -14.5t-5.5 -12.5l10 -6q5 -3 8 -5q23 13 40 18.5t31 5.5q16 0 26 -5.5t14 -7.5v-11q-34 -3 -52.5 -16t-25.5 -30
q2 -7 2 -21q0 -6 0.5 -11.5t3.5 -10.5v1q11 -17 22 -24t22 -7q15 0 25 6t17 10l3 2q3 1 8 2v-7q-5 -13 -9.5 -22t-11.5 -14t-14 -7t-14 -2q-21 0 -53 14q-12 5 -24 11t-22 12q3 -12 -1.5 -23.5t-8.5 -21.5q-6 -9 -12 -17t-12 -13v-1q7 4 15.5 9.5t16 13t15 17t11.5 19.5
l5 -26q-3 -10 -11.5 -24.5t-25.5 -28t-44.5 -24.5t-67.5 -11q-36 0 -62 9t-45 22t-32 28t-21 26q0 1 -1.5 3t-2.5 3q-18 0 -28 5t-15 10.5t-5.5 9.5t-0.5 6q0 8 9 9q2 2 7 2h13q7 1 12 1h8q12 0 19 22q6 12 11 21.5t11 16.5q-15 17 -19.5 32.5t-4.5 30.5q0 11 4.5 22
t10 19.5t13 16t13.5 11.5q-5 -22 -5 -33q0 -23 8.5 -35.5t21.5 -19.5q11 8 24.5 16.5t24.5 13.5q10 1 11 5.5t1 16.5q0 9 -2.5 18t-7 17.5t-12 15t-18.5 8.5v10q8 3 20 3q10 0 19 -3q-88 47 -186 47q-7 0 -17 -1.5t-16 -1.5q26 69 51.5 121.5t54.5 91.5h-102l24 85h401z
M254 -176q-10 3 -20 11t-16.5 19.5t-6.5 27.5q0 29 16 43t38 19l4 -9q-6 -7 -9 -16.5t-3 -20.5q0 -12 6 -23.5t22 -18.5q1 2 2 5q-8 5 -14.5 14.5t-6.5 21.5t10 24.5t29 12.5q11 0 17.5 -3t11 -8.5t7 -12.5t2.5 -13q0 -15 -12 -28l3 -5q19 15 19 39q0 13 -7 20q0 1 -1 3v1
q-1 2 -3 4.5t-4 2.5q-4 4 -14.5 5t-25.5 3t-30 2.5t-30 0.5q-23 0 -43 -6t-36.5 -15.5t-27 -18.5t-15.5 -14q6 -15 22 -28t38.5 -22.5t47 -15t47.5 -7.5zM297 13q-22 1 -46.5 -7t-48.5 -29q16 6 33.5 10.5t39.5 4.5q15 0 28.5 -2.5t28 -8t32.5 -14t41 -19.5q-8 29 -36.5 46
t-71.5 19zM191 -34l11 11q-7 -2 -14 -7zM405 -52l1 -1z" />
    <glyph glyph-name="afii62841.174" unicode="&#xeb1;" horiz-adv-x="712" 
d="M416 -98q1 -11 -1 -21q-3 -12 -9 -21q-6 -8 -11.5 -15.5t-11.5 -12.5v-1q7 2 15.5 8t16 14t15 17t12.5 16l6 -25q-4 -7 -12.5 -22t-25 -29.5t-43.5 -25t-68 -10.5q-11 0 -22 1q54 -15 103 -40q40 -22 84.5 -55.5t92.5 -73.5q-3 48 -6 95t-6 95q-10 14 -10 25q0 29 59 53
l2 -308q2 -21 -4 -27q-11 0 -28 15q-212 150 -368 150q-104 0 -179 -50q3 141 115 141h20q8 0 14 -1q32 -3 63 -8q-27 11 -44 24q-19 14 -32 29t-19 25q-20 0 -29.5 5.5t-14.5 11t-6 11.5v5q0 7 11 7q2 2 7 3t11 2q12 0 20 2q12 0 18 19q5 10 11.5 20t10.5 20q-12 17 -17 33
t-5 28q0 25 11 41.5t20 23.5h10q-4 -11 -5 -18t-1 -14q0 -20 8 -32.5t18 -20.5q11 9 26.5 17t27.5 14q10 2 11 7.5t1 14.5q0 19 -10 37t-34 30q16 6 24 6q18 0 32 -8.5t24 -22.5t15.5 -29.5t6.5 -28.5q23 0 33 17t10 36q0 5 -0.5 11.5t-2.5 9.5l2 9q11 -5 18.5 -13.5
t12 -18.5t6 -20.5t1.5 -19.5q0 -7 -0.5 -15t-2.5 -14q5 -4 9 -7t9 -5q21 16 38 21t29 5q18 0 29 -5t13 -9v-10q-32 -2 -51 -15t-28 -30q3 -5 3 -12v-12q0 -5 1 -10.5t3 -6.5q12 -18 23 -24.5t23 -6.5q13 0 23.5 4.5t16.5 9.5q2 0 5 2.5t6 2.5v-10q-5 -26 -20 -34.5t-29 -8.5
q-20 0 -52 12q-15 9 -26 13t-22 12v-3q2 -1 4 -3zM482 479l-28 -85h-118q59 -40 126.5 -108.5t150.5 -169.5q-6 244 -72 279l27 84h114l-35 -84v-307q0 -30 -16 -35h-1v-1q0 -2 -1 -2q-6 0 -16.5 7t-18.5 14q-85 93 -179.5 167.5t-190.5 121.5q-27 -20 -50 -43.5t-36 -46.5
q58 -12 109.5 -44t98.5 -80q18 -20 8 -39l-4 -3h-2q-1 -1 -3 -1h-3q-2 0 -4 0.5t-3 0.5h-3q-2 3 -8 3q-109 77 -238 77q-6 0 -15 -1.5t-17 -1.5q26 69 52.5 121.5t54.5 91.5h-103l24 85h400zM299 -184q-7 0 -17 4t-20 11.5t-16 20t-6 29.5q0 16 6 27.5t19 19.5
q-21 -5 -41.5 -10.5t-37 -11.5t-27.5 -10.5t-15 -9.5q6 -12 23.5 -25t38 -23.5t45.5 -16.5t48 -6v1zM325 10q-20 0 -45.5 -8.5t-49.5 -26.5q15 6 32.5 9.5t41.5 3.5q16 0 30 -1t29 -6t31 -12t39 -18q-11 26 -38.5 41t-69.5 18zM298 -70q-6 -6 -10 -16t-4 -18q0 -14 7 -25
t23 -17q0 1 2 4q-10 5 -15.5 14.5t-5.5 20.5q0 15 10.5 26t29.5 11q8 0 15.5 -3.5t12 -9t6 -11.5t1.5 -10q0 -15 -11 -28q2 -2 2 -3t1 -4q18 14 18 37q0 13 -7 25v-1l-1 1q-13 5 -24.5 8t-22.5 3h-15q-6 0 -15 -1v8q-7 -2 -15.5 -5t-14.5 -8q7 1 15 1.5t15 3.5zM218 -36
q3 2 5 4l7 7q-4 -3 -8.5 -5t-7.5 -5z" />
    <glyph glyph-name="afii62841.074" unicode="&#xeb2;" horiz-adv-x="674" 
d="M571 225h-209v-9q0 -43 23 -60q14 -16 82 -47q32 -13 55.5 -25.5t34.5 -23.5q46 -42 46 -107q0 -22 -7 -44.5t-20 -40.5q-27 -36 -66.5 -58.5t-87.5 -26.5q-9 -4 -17 -4h-13q-109 0 -219 102q-34 30 -73.5 77.5t-87.5 112.5l54 76q27 -33 43 -53.5t17 -21.5
q186 24 186 139v14h-269l47 84h219q-3 18 -15 38q-15 24 -37 46h-198l39 86h427l-43 -86h-133q5 -21 5 -40q0 -11 -2 -24q-1 -9 -3 -20h186q-8 20 -13 37q-7 22 -7 39v8q0 23 13.5 46t38.5 48q23 23 38 42t16 32q22 -43 22 -68q0 -37 -43 -84q-37 -40 -37 -67v-10
q0 -8 1 -17q1 -3 1 -6h44zM473 1q-51 20 -88.5 42.5t-64.5 47.5l3 5l-5 -3v-1l2 -1q-30 -30 -67.5 -51.5t-76.5 -33.5q37 -47 67 -79t56 -48q37 -23 70 -36.5t64 -13.5q59 0 102 52q5 8 7.5 17t2.5 19q0 59 -72 84z" />
    <glyph glyph-name="afii62841.095" unicode="&#xeb3;" horiz-adv-x="831" 
d="M621 51q-5 -8 -11.5 -22t-19 -30t-31 -32.5t-45 -29.5t-61.5 -21t-78 -8q-62 0 -107.5 17t-78 41t-54 50.5t-32.5 44.5q-30 0 -47 6.5t-24.5 16t-10 17.5t-2.5 9q0 6 4.5 9t10.5 3q6 1 17 2.5t22 2.5q8 1 14.5 1t14.5 2q10 0 18.5 8.5t15.5 26.5q6 19 16 36t19 31
q-21 29 -30 55t-9 47t5 37.5t13 30.5t17.5 24t16.5 15h9q-4 -14 -4.5 -25.5t-0.5 -22.5q0 -27 7 -47q9 -15 18.5 -26.5t20.5 -19.5q8 7 19.5 14.5t24.5 13.5t25 11.5t21 8.5q14 7 17.5 16.5t3.5 23.5q0 32 -17 63q-15 29 -52 41v9q18 10 32 10q31 0 54.5 -15.5t39 -39
t23.5 -49.5t9 -46q23 0 38 7.5t24 21t13 28.5t4 33q0 11 -1 20t-4 18l5 10q17 -11 28.5 -25.5t18.5 -29.5t10 -31.5t3 -30.5q0 -30 -7 -51q6 -3 12.5 -7.5t16.5 -13.5q36 24 63.5 33t51.5 9q28 0 44.5 -9t22.5 -13v-11q-26 -1 -47.5 -8.5t-38 -18t-28 -23.5t-19.5 -26
q7 -19 11.5 -40t2.5 -34q40 -19 67.5 -26t44.5 -7q13 0 25 4.5t22 7.5l1 -9q-5 -22 -13.5 -35.5t-18.5 -22t-22.5 -11.5t-24.5 -3q-16 0 -37 5.5t-45 14.5t-46 19.5t-41 21.5q2 -2 2 -5v-7q0 -20 -6.5 -37t-15 -31t-19.5 -26t-20 -19q0 -2 1 -3.5t2 -2.5q11 4 26 13.5t29 22
t26 26.5t20 27zM62 -32q24 -13 45.5 -28.5t42.5 -31.5q33 -25 93 -87q30 -31 53 -50.5t41 -31.5q24 -13 52.5 -21t61.5 -8q110 2 111 56q2 57 -58 58q-60 4 -95 -49q0 127 91 127q104 0 100 -138q-5 -135 -146 -144h-8q-6 -1 -11 -1q-20 0 -44 11t-51.5 32t-57 50.5
t-62.5 66.5q-38 44 -83.5 87.5t-93.5 77.5q-11 3 -4 21q5 6 15 6q1 0 3 -3h5zM380 -23q-10 1 -26.5 7t-33 18t-28.5 32t-12 50q0 42 27 66q26 25 62 31l5 -12q-11 -11 -16.5 -26.5t-5.5 -32.5q0 -11 2 -23t8.5 -21.5t16 -18.5t23.5 -13q1 4 2.5 6.5t3.5 5.5
q-15 6 -25.5 22.5t-10.5 36.5q0 11 4 21t12 18.5t20 14t27 5.5q16 0 26.5 -6t18 -15t10.5 -18t3 -16q0 -15 -3 -26t-14 -25q1 -2 1.5 -4.5t4.5 -5.5q23 16 29 48q3 9 3 20q0 18 -10 38q0 2 -2 3.5t-3 2.5q-5 8 -11 14q-10 6 -40 14t-78 8q-38 0 -70.5 -10.5t-59 -25.5
t-44.5 -30t-28 -26l-5 -4q12 -22 32.5 -45t48 -41.5t61 -30t71.5 -12.5zM422 302q-20 0 -41 -5t-43.5 -13t-46 -21.5t-43.5 -32.5q30 16 62 23.5t76 7.5q26 0 49.5 -3t49 -11.5t54.5 -22t70 -34.5q-18 50 -66.5 78t-120.5 34zM241 223l7 7q-2 -1 -6 -2.5t-6 -4.5l5 -1v1z
M613 187q-2 0 -4 3v-4z" />
    <glyph glyph-name="afii62841.096" unicode="&#xeb4;" horiz-adv-x="822" 
d="M616 51l-11 -22q-7 -14 -19.5 -30t-31 -32.5t-45 -29.5t-61 -21t-78.5 -8q-62 0 -107.5 17t-78 41t-54 50.5t-32.5 44.5q-30 0 -47 6.5t-24.5 16t-10 17.5t-2.5 9q0 6 5 9t11 3q6 1 16.5 2.5t21.5 2.5q8 1 15.5 1t13.5 2q11 0 19 8.5t16 26.5q7 19 16 36t18 31
q-21 29 -30 55t-9 47t6 37.5t13 30.5t16.5 24t17.5 15h8q-4 -14 -4.5 -25.5t-0.5 -22.5q0 -27 7 -47q9 -15 19 -26.5t21 -19.5q7 7 18.5 14.5t24.5 13.5t25 11.5t21 8.5q14 7 18.5 16.5t4.5 23.5q0 32 -18 63q-16 29 -53 41v9q18 10 33 10q30 0 53.5 -15.5t39 -39
t23.5 -49.5t9 -46q23 0 38 7.5t24 21t13 28.5t4 33q0 11 -0.5 20t-3.5 18l4 10q17 -11 28.5 -25.5t18.5 -29.5t10 -31.5t3 -30.5q0 -30 -7 -51q6 -3 12.5 -7.5t16.5 -13.5q36 24 63.5 33t51.5 9q28 0 44.5 -9t22.5 -13v-11q-26 -1 -47.5 -8.5t-38 -18t-27.5 -23.5t-20 -26
q7 -19 11.5 -40t3.5 -34q40 -19 67 -26t44 -7q15 0 26 4.5t21 7.5l1 -9q-5 -22 -13 -35.5t-18.5 -22t-23 -11.5t-24.5 -3q-16 0 -37 5.5t-45 14.5t-46 19.5t-40 21.5q1 -2 1 -5v-7q0 -20 -6 -37t-15 -31t-19.5 -26t-19.5 -19q0 -2 0.5 -3.5t2.5 -2.5q10 4 25 13.5t29 22
t26.5 26.5t19.5 27zM375 -23q-9 1 -26 7t-33 18t-28 32t-12 50q0 42 26 66q26 25 62 31l5 -12q-11 -11 -16 -26.5t-5 -32.5q0 -11 2 -23t8 -21.5t16.5 -18.5t22.5 -13q1 4 3 6.5t3 5.5q-15 6 -25.5 22.5t-10.5 36.5q0 11 4 21t12 18.5t20 14t27 5.5q16 0 27 -6t18 -15
t10 -18t3 -16q0 -15 -3 -26t-14 -25q1 -2 2 -4.5t4 -5.5q23 16 30 48q3 9 3 20q0 18 -11 38q0 2 -1.5 3.5t-3.5 2.5q-5 8 -11 14q-9 6 -39 14t-78 8q-39 0 -71.5 -10.5t-58.5 -25.5t-44 -30t-29 -26l-5 -4q13 -22 33 -45t48 -41.5t61 -30t72 -12.5zM278 -258l142 148v14
l34 -27v-218zM417 302q-20 0 -41 -5t-43.5 -13t-45.5 -21.5t-44 -32.5q30 16 62 23.5t76 7.5q27 0 50 -3t48.5 -11.5t55 -22t69.5 -34.5q-16 50 -65.5 78t-121.5 34zM415 -166q-12 -13 -23.5 -26.5t-25.5 -28.5q10 -6 24 -12.5t25 -11.5v79zM236 223l7 7q-2 -1 -5.5 -2.5
t-6.5 -4.5l5 -1v1zM608 187q-2 0 -4 3v-4z" />
    <glyph glyph-name="afii62841.097" unicode="&#xeb5;" horiz-adv-x="828" 
d="M617 51q-3 -8 -10 -22t-19 -30t-32 -32.5t-46.5 -29.5t-60 -21t-76.5 -8q-62 0 -108.5 17t-79.5 41t-53.5 50.5t-33.5 44.5q-29 0 -45 6.5t-25 16t-10 17.5t-1 9q0 6 3.5 9t11.5 3q5 1 16 2.5t23 2.5q6 1 13.5 1t12.5 2q12 0 20 8.5t16 26.5q7 19 15.5 36t19.5 31
q-23 29 -31.5 55t-8.5 47t6 37.5t14 30.5t16.5 24t16.5 15h8q-2 -14 -4 -25.5t-2 -22.5q0 -27 10 -47q6 -15 16 -26.5t22 -19.5q6 7 19 14.5t23 13.5q15 6 27 11.5t21 8.5q12 7 17 16.5t5 23.5q0 32 -17 63q-15 29 -54 41v9q17 10 34 10q30 0 52.5 -15.5t38.5 -39t24 -49.5
t8 -46q24 0 39 7.5t25 21t13.5 28.5t3.5 33q0 11 -1.5 20t-2.5 18l4 10q15 -11 27 -25.5t20 -29.5t11 -31.5t3 -30.5q0 -30 -10 -51q8 -3 15 -7.5t17 -13.5q33 24 62 33t50 9q28 0 46 -9t24 -13v-11q-28 -1 -49.5 -8.5t-37.5 -18t-28 -23.5t-18 -26q6 -19 10.5 -40t3.5 -34
q40 -19 66.5 -26t42.5 -7t28 4.5t19 7.5l1 -9q-4 -22 -12.5 -35.5t-19 -22t-21.5 -11.5t-23 -3q-16 0 -37.5 5.5t-45 14.5t-45.5 19.5t-42 21.5v-12q0 -20 -5 -37t-13.5 -31t-19.5 -26t-20 -19q0 -2 0.5 -3.5t0.5 -2.5q13 4 27.5 13.5t28 22t26.5 26.5t21 27zM637 -350
q0 -20 -6 -26q-10 0 -29 12q-211 151 -367 151q-49 0 -94 -12.5t-82 -37.5q2 140 114 140h19q7 0 13 -1h-1q121 -7 217 -59q40 -21 84 -53t90 -75l-8 192q-5 7 -7.5 12.5t-2.5 12.5q0 28 58 52zM377 -23q-11 1 -27.5 7t-32.5 18t-28 32t-12 50q0 42 26 66q26 25 62 31l4 -12
q-9 -11 -15 -26.5t-6 -32.5q0 -11 3 -23t8.5 -21.5t15.5 -18.5t24 -13q2 4 3 6.5t1 5.5q-13 6 -23.5 22.5t-10.5 36.5q0 11 4 21t11.5 18.5t19.5 14t29 5.5q16 0 26.5 -6t17 -15t10.5 -18t4 -16q0 -15 -4.5 -26t-15.5 -25q2 -2 3.5 -4.5t2.5 -5.5q26 16 32 48q3 9 3 20
q0 18 -11 38q-2 2 -3 3.5t-3 2.5q-3 8 -12 14q-8 6 -37.5 14t-77.5 8q-39 0 -72 -10.5t-59 -25.5t-44.5 -30t-29.5 -26l-2 -4q12 -22 32 -45t47 -41.5t61.5 -30t72.5 -12.5zM417 302q-18 0 -40 -5t-44 -13t-44.5 -21.5t-42.5 -32.5q27 16 59 23.5t76 7.5q29 0 52 -3
t48 -11.5t55 -22t69 -34.5q-17 50 -65 78t-123 34zM236 223l3 3q3 3 7 4q-5 -1 -8 -2.5t-7 -4.5l5 -1v1zM606 186l5 1q-3 0 -5 2v-3z" />
    <glyph glyph-name="afii62841.098" unicode="&#xeb6;" horiz-adv-x="833" 
d="M622 51l-11 -22q-7 -14 -19.5 -30t-31 -32.5t-45 -29.5t-61 -21t-78.5 -8q-61 0 -107 17t-78.5 41t-54 50.5t-32.5 44.5q-29 0 -46.5 6.5t-25 16t-10 17.5t-2.5 9q0 6 5 9t11 3l17 2q11 2 22 3q7 1 14.5 1t13.5 2q11 0 19 8.5t17 26.5q6 19 15 36t18 31q-21 29 -29.5 55
t-8.5 47t5.5 37.5t13 30.5t16.5 24t18 15h7q-4 -14 -4.5 -25.5t-0.5 -22.5q0 -27 9 -47q7 -15 17 -26.5t21 -19.5q7 7 19 14.5t24 13.5q15 6 26 11.5t21 8.5q13 7 17.5 16.5t4.5 23.5q0 32 -18 63q-15 29 -52 41v9q17 10 32 10q32 0 54.5 -15.5t38 -39t23.5 -49.5t9 -46
q24 0 38.5 7.5t24 21t13 28.5t3.5 33q0 11 -0.5 20t-3.5 18l4 10q17 -11 29 -25.5t18.5 -29.5t9.5 -31.5t3 -30.5q0 -30 -7 -51q6 -3 13.5 -7.5t15.5 -13.5q36 24 63.5 33t51.5 9q28 0 44.5 -9t24.5 -13v-11q-27 -1 -48.5 -8.5t-38.5 -18t-28 -23.5t-19 -26q6 -19 11 -40
t3 -34q40 -19 67 -26t44 -7q15 0 26 4.5t21 7.5l1 -9q-5 -22 -13 -35.5t-18.5 -22t-22.5 -11.5t-25 -3q-16 0 -36 5.5t-44 14.5t-47 19.5t-41 21.5q1 -2 1 -5v-7q0 -20 -6 -37t-15 -31t-19.5 -26t-19.5 -19q0 -2 0.5 -3.5t2.5 -2.5q10 4 25 13.5t29 22t26.5 26.5t19.5 27z
M381 -23q-9 1 -26 7t-33 18t-28 32t-12 50q0 42 26 66q26 25 62 31l5 -12q-11 -11 -16 -26.5t-5 -32.5q0 -11 2 -23t8 -21.5t16.5 -18.5t22.5 -13q1 4 3 6.5t3 5.5q-13 6 -24 22.5t-11 36.5q0 11 3.5 21t11.5 18.5t20.5 14t26.5 5.5q16 0 27 -6t18 -15t10 -18t3 -16
q0 -15 -3 -26t-14 -25q1 -2 2.5 -4.5t3.5 -5.5q24 16 30 48q3 9 3 20q0 18 -11 38q0 2 -1.5 3.5t-3.5 2.5q-4 8 -11 14q-8 6 -38.5 14t-78.5 8q-39 0 -71.5 -10.5t-58.5 -25.5t-44 -30t-29 -26l-5 -4q13 -22 33 -45t48 -41.5t61 -30t72 -12.5zM423 302q-20 0 -41 -5
t-43.5 -13t-45.5 -21.5t-44 -32.5q30 16 62 23.5t76 7.5q27 0 50 -3t48.5 -11.5t55 -22t69.5 -34.5q-16 50 -65 78t-122 34zM242 223l7 7l-5 -3q-3 -1 -7 -4l5 -1v1zM613 187q-1 0 -3 3v-4z" />
    <glyph glyph-name="afii62841.099" unicode="&#xeb7;" horiz-adv-x="833" 
d="M627 -171v-347q0 -19 -12 -19q-6 0 -12 7q-73 74 -139 111.5t-121 42.5q-11 1 -20.5 3t-16.5 2q-46 0 -90 -24q0 99 92 105q10 0 23.5 -1.5t28.5 -5.5q3 12 3 28q0 53 -59 92h-93q-34 -21 -51.5 -53.5t-17.5 -71.5q3 -50 35 -82l-84 -57q-12 22 -17.5 46t-5.5 53v21
q0 96 147 233h102q-27 4 -51 13q-46 17 -78.5 41t-53.5 50.5t-33 44.5q-30 0 -46.5 6.5t-24.5 16t-10 17.5t-2 9q0 6 4 9t12 3q4 1 15 2.5t24 2.5q6 1 14 1t13 2q12 0 19.5 8.5t14.5 26.5q9 19 17.5 36t18.5 31q-22 29 -31 55t-9 47t6.5 37.5t14 30.5t16 24t15.5 15h10
q-4 -14 -5 -25.5t-1 -22.5q0 -27 10 -47q6 -15 15.5 -26.5t22.5 -19.5q6 7 18.5 14.5t23.5 13.5q13 6 25.5 11.5t22.5 8.5q12 7 17 16.5t5 23.5q0 32 -18 63q-15 29 -54 41v9q18 10 34 10q29 0 52.5 -15.5t39 -39t24 -49.5t8.5 -46q23 0 38.5 7.5t25 21t13 28.5t3.5 33
q0 11 -1.5 20t-2.5 18l4 10q16 -11 27.5 -25.5t19 -29.5t10.5 -31.5t3 -30.5q0 -30 -8 -51q7 -3 14.5 -7.5t14.5 -13.5q36 24 64 33t51 9q28 0 45 -9t25 -13v-11q-29 -1 -50.5 -8.5t-38 -18t-28 -23.5t-17.5 -26q6 -19 11 -40t3 -34q40 -19 66.5 -26t43.5 -7q16 0 27 4.5
t20 7.5l1 -9q-5 -22 -13.5 -35.5t-18.5 -22t-21.5 -11.5t-24.5 -3q-16 0 -37.5 5.5t-44 14.5t-45.5 19.5t-41 21.5v-12q0 -20 -5.5 -37t-14.5 -31t-19.5 -26t-19.5 -19q0 -2 0.5 -3.5t0.5 -2.5q12 4 27 13.5t29 22t26.5 26.5t19.5 27l5 -35q-3 -8 -10 -22t-19.5 -30
t-31.5 -32.5t-45.5 -29.5t-60.5 -21q-21 -5 -46 -7l-26 -76q10 -16 15.5 -32.5t8.5 -34.5v-38q-8 -25 -9 -37q96 -41 194 -157q-1 55 -2 94t-5 60q-6 55 -21.5 91.5t-40.5 49.5l34 83h106zM381 -23q-11 1 -27 7t-32 18t-29 32t-13 50q0 42 27 66q26 25 62 31l5 -12
q-10 -11 -16 -26.5t-6 -32.5q0 -11 3 -23t8.5 -21.5t15 -18.5t24.5 -13q1 4 3 6.5t2 5.5q-15 6 -24.5 22.5t-9.5 36.5q0 11 3.5 21t11.5 18.5t19.5 14t27.5 5.5t27 -6t18 -15t10 -18t3 -16q0 -15 -3.5 -26t-14.5 -25q1 -2 3 -4.5t3 -5.5q25 16 31 48q3 9 3 20q0 18 -11 38
q-1 2 -3 3.5t-3 2.5q-3 8 -11 14q-10 6 -39 14t-77 8q-39 0 -72 -10.5t-58.5 -25.5t-44.5 -30t-29 -26l-4 -4q13 -22 33 -45t47 -41.5t61 -30t73 -12.5zM422 302q-19 0 -40.5 -5t-44 -13t-45 -21.5t-43.5 -32.5q29 16 61 23.5t76 7.5q28 0 51 -3t48 -11.5t55 -22t69 -34.5
q-18 50 -65.5 78t-121.5 34zM241 223l6 6q-3 -1 -5 -2q-4 -1 -6 -4l5 -1v1zM610 186l5 1q-3 0 -5 2v-3z" />
    <glyph glyph-name="afii62841.100" unicode="&#xeb8;" horiz-adv-x="636" 
d="M435 -28q-5 -9 -13 -23t-25 -28t-44 -24t-67 -10q-38 0 -65 10t-46 24t-32.5 28.5t-21.5 25.5q-18 2 -27.5 5.5t-15 9t-6 10.5t-0.5 6q0 9 9 9q3 2 8 2.5t13 0.5h11q5 0 8 2q14 0 20 22q10 21 21 39q-12 18 -17.5 33t-5.5 29q0 10 4 21t9.5 19.5t12.5 15.5t13 10
q-1 -10 -2.5 -18.5t-1.5 -14.5q0 -21 8 -34t19 -19q11 9 26 16.5t27 11.5q13 7 13 24q0 18 -10 35.5t-32 24.5v10q7 2 21 2q18 0 31.5 -9t24 -23t15.5 -29.5t7 -26.5q24 0 33.5 16t9.5 34q0 14 -4 25l6 7q18 -13 27.5 -33.5t9.5 -40.5q0 -8 -1.5 -15t-4.5 -13q9 -2 17 -10
q23 14 40 19t31 5q17 0 26.5 -5t11.5 -9v-10q-30 -2 -48.5 -15t-27.5 -28q2 -6 2 -12v-12q0 -5 1 -10t4 -10q11 -16 23 -23t20 -7q13 0 22 4.5t18 8.5q2 2 5 3.5t8 -2.5q-3 -15 -8 -23.5t-12 -14t-14.5 -7.5t-13.5 -2q-11 0 -24 3t-29 11q-13 6 -25 11t-23 11q4 -12 1 -24
t-8.5 -22t-13.5 -16.5t-14 -11.5h1q8 1 17 7.5t16.5 14.5t15 16.5t11.5 16.5zM618 479l-27 -88h-242v-17q0 -23 -3 -50t-12 -59h-32q-2 74 -50 126h-228l33 88h561zM286 -75q-6 2 -16 6t-19.5 10.5t-17 18.5t-7.5 29q0 14 5 25t13 17.5t17 12t19 7.5l6 -9q-6 -6 -9.5 -16.5
t-3.5 -19.5q0 -13 6 -25t22 -18v2q0 2 1 4q-7 4 -13.5 12.5t-6.5 21.5q0 12 10 25.5t29 13.5q11 0 17.5 -4.5t11.5 -10.5t7.5 -12t2.5 -10q0 -17 -12 -28l2 -5q19 12 19 37q0 11 -8 24l-1 1q0 2 -2 4v-1q-2 1 -2 3t-2 3q-6 5 -24 9.5t-46 4.5q-24 2 -44.5 -5.5t-36 -17
t-26.5 -19t-17 -14.5h2l-2 -1q8 -12 20.5 -25.5t27.5 -23.5q29 -24 78 -26zM313 121q-22 1 -46.5 -7.5t-47.5 -28.5q15 6 32 10t40 4q17 0 30 -2t29 -6.5t33 -13t40 -20.5q-11 29 -39 44.5t-71 19.5zM206 74q4 4 7 5.5t6 5.5q-5 -1 -9 -3.5t-9 -3.5zM424 53l5 2q-1 0 -3 1
t-3 1v-1l1 -1v-2z" />
    <glyph glyph-name="afii62841.101" unicode="&#xeb9;" horiz-adv-x="653" 
d="M600 395v-321q0 -18 -11 -23v2q-13 -6 -22 3q-66 65 -127 100.5t-117 40.5q-5 1 -16 1h-14q-56 0 -99 -23q0 96 94 106q24 0 50 -5q3 5 4 9t2 9v19q0 29 -19 54q-5 6 -12.5 13t-17.5 15h-130q-32 -26 -50.5 -58t-17.5 -70q0 -27 9 -53.5t28 -55.5l-85 -57
q-14 31 -20 66.5t-5 78.5q0 101 143 234h234l-27 -81q21 -33 21 -66q0 -18 -4 -34t-12 -32q53 -26 99.5 -65t88.5 -92q-7 130 -27.5 202.5t-56.5 85.5l29 82h113zM480 -131q-4 -8 -12.5 -22.5t-26.5 -29t-44 -25.5t-66 -11q-38 0 -66 10.5t-47.5 25.5t-31.5 29.5t-19 24.5
q-17 0 -27.5 5t-15.5 10.5t-7 11.5q-2 4 -2 6q0 8 10 9q8 2 20 4h22q12 0 20 23q2 9 7 19t11 19q-12 16 -17.5 32t-5.5 28q0 13 5 24t10.5 19.5t12 15.5t12.5 11q-1 -11 -2.5 -19.5t-1.5 -14.5q0 -21 8.5 -34.5t20.5 -19.5q10 7 25.5 16t27.5 12q7 3 9 7.5t2 16.5
q0 18 -9 36t-33 24v9q4 2 9.5 2.5t11.5 0.5q17 0 31.5 -8.5t24 -22.5t15 -29.5t5.5 -27.5q13 0 21.5 5.5t14 12t7 16t1.5 18.5q0 5 -1 11.5t-2 12.5l6 5q19 -11 28 -31.5t9 -38.5t-6 -31q11 -4 18 -11q21 16 38.5 21t29.5 5q17 0 27 -6.5t15 -8.5v-10q-32 -2 -50.5 -15.5
t-28.5 -28.5q4 -5 4 -11v-13q1 -6 1 -9.5t3 -8.5q11 -17 22.5 -23.5t22.5 -6.5t21 4t17 9h-1q7 5 14 0q-4 -29 -19 -38t-29 -9q-21 0 -52 12q-15 6 -26.5 12.5t-21.5 12.5q1 -12 -2 -24t-8 -22t-12.5 -16.5t-13.5 -11.5v-4q8 4 17 10t17 14t15.5 16t12.5 18zM331 -178
q-7 2 -16 6q-10 4 -20 11t-16.5 19.5t-6.5 29.5q0 25 16.5 39.5t37.5 19.5l5 -7q-5 -9 -9 -18t-4 -19q0 -15 6.5 -25.5t22.5 -16.5v3l1 1q-10 5 -15.5 14t-5.5 22q0 14 10 26t29 12q9 0 16.5 -4.5t12 -10t6 -11.5t1.5 -10q0 -9 -2.5 -15.5t-7.5 -16.5q3 -1 4 -2q7 7 11 16
t4 20q0 13 -6 26v-1l-2 5q-1 4 -7 6q-5 4 -22 9t-45 5q-24 0 -44.5 -7t-37 -16t-27.5 -18.5t-16 -15.5q15 -27 48 -52q15 -12 35 -17.5t44 -6.5zM359 17q-23 2 -48.5 -7t-49.5 -31q16 9 34.5 13.5t41.5 4.5q16 0 29.5 -2t28.5 -7t32.5 -13t39.5 -20q-11 28 -38.5 43.5
t-69.5 18.5zM251 -29q4 5 10 8q-4 -1 -7 -2t-8 -4zM475 -49q-4 1 -8 4q2 -2 2 -3v-3z" />
    <glyph glyph-name="afii62841.103" unicode="&#xebb;" horiz-adv-x="676" 
d="M452 480l-29 -85h-119q59 -40 127.5 -108.5t151.5 -169.5q-6 244 -73 279l27 84h114l-36 -84v-307q0 -32 -14 -35h-1l-2 -1v-2q-7 0 -16.5 7t-17.5 14q-86 93 -180 167.5t-190 121.5q-28 -20 -50.5 -43.5t-38.5 -46.5q59 -12 111 -44t99 -80q17 -20 7 -39l-3 -3h-1
q-2 -1 -6 -1h-6l-2 1h-3q-4 3 -7 3q-110 77 -238 77q-7 0 -16.5 -1.5t-15.5 -1.5q25 69 51.5 121.5t53.5 91.5h-102l24 85h401zM472 -173q-2 -8 -11 -22t-26 -28.5t-44 -26t-67 -11.5q-38 0 -65.5 10.5t-46.5 25.5t-31.5 30.5t-20.5 26.5q-18 0 -27.5 4t-15 9.5t-6.5 10.5
t-1 6q0 9 10 9q4 2 15 3t18 1q3 0 5 1h2q14 0 20 22q8 20 20 37q-12 17 -17.5 32.5t-5.5 29.5q0 12 5 23t11 19.5t12 15.5t12 12q-5 -22 -5 -35q0 -20 9 -34t20 -20q11 10 25 16.5t25 13.5q10 1 11.5 7t1.5 15q0 19 -9 36t-30 25v8q8 5 19 5q18 0 32 -9.5t24 -23.5
t15.5 -29.5t5.5 -27.5q13 0 21.5 5t13 11.5t6.5 15t2 17.5q0 16 -4 27l6 7q20 -13 29.5 -33.5t9.5 -39.5q0 -7 -2 -15t-4 -14q9 -5 18 -12q20 14 38 19.5t31 5.5q15 0 25.5 -4t15.5 -7v-10q-35 -5 -53 -17.5t-26 -29.5q5 -6 5 -11v-14q0 -11 1 -17v1q11 -17 23.5 -23.5
t23.5 -6.5q12 0 22.5 5.5t16.5 8.5q3 0 4 2t7 7v-12q-6 -29 -19.5 -37.5t-29.5 -8.5q-20 0 -50 12l-26 13q-12 6 -22 12q2 -26 -10 -44q-6 -10 -12.5 -17.5t-12.5 -13.5q14 7 32 22.5t27 32.5zM326 -219q-7 0 -16.5 4.5t-20 12t-17.5 19.5t-7 29q0 25 17.5 40t36.5 21l5 -9
q-5 -7 -8 -17.5t-3 -19.5q0 -12 6.5 -24t22.5 -18v3l1 1q-10 5 -15.5 14t-5.5 22q0 14 10.5 26t27.5 12q10 0 17.5 -4.5t11.5 -10t6 -11.5t2 -10q0 -16 -10 -29q0 -3 1 -5q10 7 15 16.5t5 21.5q0 11 -8 23l-1 2q-1 1 -2 3v-1q-1 5 -5 6q-1 3 -12 4.5t-26 3t-31 2.5t-29 1
q-24 0 -45 -7.5t-37.5 -16.5t-26.5 -18.5t-14 -13.5q6 -14 21.5 -27t38 -23.5t47 -16.5t48.5 -6v1zM352 -24q-22 1 -46 -7.5t-47 -28.5q15 7 32 10t39 3q15 0 30 -1t29 -6t30.5 -11.5t40.5 -16.5q-24 53 -108 58zM259 -60q-5 -1 -9 -3.5t-9 -5.5l6 -2z" />
    <glyph glyph-name="afii62841.106" unicode="&#xebe;" horiz-adv-x="678" 
d="M458 480l-29 -85h-120q59 -40 128 -108.5t152 -169.5q-8 244 -74 279l28 84h113l-35 -84v-307q0 -32 -14 -35h-2l-1 -1v-2q-8 0 -17 7l-18 14q-85 93 -179 167.5t-190 121.5q-28 -20 -50.5 -43.5t-38.5 -46.5q59 -12 111 -44t98 -80q18 -20 8 -39l-3 -3h-2q-1 -1 -6 -1
h-6l-2 1h-2q-4 3 -9 3q-15 10 -30 19q10 -8 17 -18q11 -13 16.5 -28.5t5.5 -27.5q24 1 34 16t10 33q0 13 -5 25l7 7q18 -12 27 -33t9 -39q0 -8 -0.5 -14.5t-5.5 -12.5l10 -6q5 -3 8 -5q23 13 40 18.5t31 5.5q16 0 26 -5.5t14 -7.5v-11q-34 -3 -52.5 -16t-25.5 -30
q2 -7 2 -21q0 -6 0.5 -11.5t3.5 -10.5v1q11 -17 22 -24t22 -7q15 0 25 6t17 10l3 2q3 1 8 2v-7q-5 -13 -9.5 -22t-11.5 -14t-14 -7t-14 -2q-21 0 -53 14q-12 5 -24 11t-22 12q3 -12 -1.5 -23.5t-8.5 -21.5q-6 -9 -12 -17t-12 -13v-1q7 4 15.5 9.5t16 13t15 17t11.5 19.5
l5 -26q-3 -10 -11.5 -24.5t-25.5 -28t-44.5 -24.5t-67.5 -11q-36 0 -62 9t-45 22t-32 28t-21 26q0 1 -1.5 3t-2.5 3q-18 0 -28 5t-15 10.5t-5.5 9.5t-0.5 6q0 8 9 9q2 2 7 2h13q7 1 12 1h8q12 0 19 22q6 12 11 21.5t11 16.5q-15 17 -19.5 32.5t-4.5 30.5q0 11 4.5 22
t10 19.5t13 16t13.5 11.5q-5 -22 -5 -33q0 -23 8.5 -35.5t21.5 -19.5q11 8 24.5 16.5t24.5 13.5q10 1 11 5.5t1 16.5q0 9 -2.5 18t-7 17.5t-12 15t-18.5 8.5v10q8 3 20 3q10 0 19 -3q-88 47 -186 47q-7 0 -17 -1.5t-16 -1.5q26 69 51.5 121.5t54.5 91.5h-102l24 85h401z
M254 -175q-10 3 -20 11t-16.5 19.5t-6.5 27.5q0 29 16 43t38 19l4 -9q-6 -7 -9 -16.5t-3 -20.5q0 -12 6 -23.5t22 -18.5q1 2 2 5q-8 5 -14.5 14.5t-6.5 21.5t10 24.5t29 12.5q11 0 17.5 -3t11 -8.5t7 -12.5t2.5 -13q0 -15 -12 -28l3 -5q19 15 19 39q0 13 -7 20q0 1 -1 3v1
q-1 2 -3 4.5t-4 2.5q-4 4 -14.5 5t-25.5 3t-30 2.5t-30 0.5q-23 0 -43 -6t-36.5 -15.5t-27 -18.5t-15.5 -14q6 -15 22 -28t38.5 -22.5t47 -15t47.5 -7.5zM297 14q-22 1 -46.5 -7t-48.5 -29q16 6 33.5 10.5t39.5 4.5q15 0 28.5 -2.5t28 -8t32.5 -14t41 -19.5q-8 29 -36.5 46
t-71.5 19zM191 -33l11 11q-7 -2 -14 -7zM405 -51l1 -1z" />
    <glyph glyph-name="afii62841.107" unicode="&#xebf;" horiz-adv-x="51" 
d="M-274 511q-25 42 -55 74.5t-62 54.5q-16 12 -41 21.5t-54 16.5q-25 6 -50.5 9t-41.5 3h-26q28 89 99 95q53 5 99 -25q30 -18 56 -46.5t48 -71.5q20 50 49 79.5t67 35.5q61 0 94 5q21 1 48.5 11.5t59.5 28.5q28 19 44 32.5t20 24.5v-1q4 13 15 13q17 -2 11 -17h1
q-18 -38 -46.5 -74.5t-64.5 -70.5q-22 -27 -60 -43t-90 -14h-27q-39 0 -63 -11.5t-36 -35.5l20 -40q4 -17 10 -31t10 -23h-34z" />
    <glyph glyph-name="afii62841.108" unicode="&#xec0;" horiz-adv-x="412" 
d="M548 517l-48 -84q12 -31 18 -57t6 -46v-14q-1 -5 -1 -8v-6q-9 -57 -62 -136q105 -80 146 -268q3 -20 -9 -26q-15 -5 -22 15q-35 93 -88.5 148t-113.5 68q-16 3 -27.5 4t-15.5 1q-60 0 -127 -24q11 109 127 124q52 0 96 -20q12 26 19.5 52t7.5 53q0 83 -81 135h-158
q-46 -21 -77 -65t-43 -109q-3 -2 -3 -8v-10q0 -63 36 -120q-18 -58 -69 -98q-25 47 -36.5 91.5t-11.5 87.5q0 213 215 320h322z" />
    <glyph glyph-name="afii62841.109" unicode="&#xec1;" horiz-adv-x="51" 
d="M-49 503q-36 42 -63.5 72t-48.5 48q-134 131 -267 146q-15 1 -24 1q-56 0 -60 -44q-4 -22 10.5 -37t38.5 -21q14 -1 24 -1q35 0 60 27l5 -4q-27 -92 -95 -104q-91 18 -91 104q0 13 0.5 22.5t2.5 19.5q54 131 169 126q105 6 224 -139q45 -61 80 -110t59 -86z" />
    <glyph glyph-name="afii62841.110" unicode="&#xec2;" horiz-adv-x="833" 
d="M622 127l-11 -22q-7 -14 -19.5 -30t-31 -32.5t-45 -29.5t-61 -21t-78.5 -8q-61 0 -107 17t-78.5 41t-54 50.5t-32.5 44.5q-29 0 -46.5 6.5t-25 16t-10 17.5t-2.5 9q0 6 5 9t11 3l17 2q11 2 22 3q7 1 14.5 1t13.5 2q11 0 19 8.5t17 26.5q6 19 15 36t18 31q-21 29 -29.5 55
t-8.5 47t5.5 37.5t13 30.5t16.5 24t18 15h7q-4 -14 -4.5 -25.5t-0.5 -22.5q0 -27 9 -47q7 -15 17 -26.5t21 -19.5q7 7 19 14.5t24 13.5q15 6 26 11.5t21 8.5q13 7 17.5 16.5t4.5 23.5q0 32 -18 63q-15 29 -52 41v9q17 10 32 10q32 0 54.5 -15.5t38 -39t23.5 -49.5t9 -46
q24 0 38.5 7.5t24 21t13 28.5t3.5 33q0 11 -0.5 20t-3.5 18l4 10q17 -11 29 -25.5t18.5 -29.5t9.5 -31.5t3 -30.5q0 -30 -7 -51q6 -3 13.5 -7.5t15.5 -13.5q36 24 63.5 33t51.5 9q28 0 44.5 -9t24.5 -13v-11q-27 -1 -48.5 -8.5t-38.5 -18t-28 -23.5t-19 -26q6 -19 11 -40
t3 -34q40 -19 67 -26t44 -7q15 0 26 4.5t21 7.5l1 -9q-5 -22 -13 -35.5t-18.5 -22t-22.5 -11.5t-25 -3q-16 0 -36 5.5t-44 14.5t-47 19.5t-41 21.5q1 -2 1 -5v-7q0 -20 -6 -37t-15 -31t-19.5 -26t-19.5 -19q0 -2 0.5 -3.5t2.5 -2.5q10 4 25 13.5t29 22t26.5 26.5t19.5 27z
M381 53q-9 1 -26 7t-33 18t-28 32t-12 50q0 42 26 66q26 25 62 31l5 -12q-11 -11 -16 -26.5t-5 -32.5q0 -11 2 -23t8 -21.5t16.5 -18.5t22.5 -13q1 4 3 6.5t3 5.5q-13 6 -24 22.5t-11 36.5q0 11 3.5 21t11.5 18.5t20.5 14t26.5 5.5q16 0 27 -6t18 -15t10 -18t3 -16
q0 -15 -3 -26t-14 -25q1 -2 2.5 -4.5t3.5 -5.5q24 16 30 48q3 9 3 20q0 18 -11 38q0 2 -1.5 3.5t-3.5 2.5q-4 8 -11 14q-8 6 -38.5 14t-78.5 8q-39 0 -71.5 -10.5t-58.5 -25.5t-44 -30t-29 -26l-5 -4q13 -22 33 -45t48 -41.5t61 -30t72 -12.5zM423 378q-20 0 -41 -5
t-43.5 -13t-45.5 -21.5t-44 -32.5q30 16 62 23.5t76 7.5q27 0 50 -3t48.5 -11.5t55 -22t69.5 -34.5q-16 50 -65 78t-122 34zM242 299l7 7l-5 -3q-3 -1 -7 -4l5 -1v1zM613 263q-1 0 -3 3v-4z" />
    </font>
</defs>
</svg>
